%FSLAX45Y45*%
G04 Gerber Fmt 4.5, Leading zero omitted, Abs format (unit mm)*
G04 Created by KiCad (PCBNEW (5.1.9-0-10_14)) date 2022-05-15 13:48:27*
%MOMM*%
%LPD*%
G01*
G04 APERTURE LIST*
%TA.AperFunction,Profile*%
%ADD10C,0.050000*%
%TD*%
%ADD11C,0.200000*%
%ADD12C,0.300000*%
G04 APERTURE END LIST*
D10*
X8382000Y-8128000D02*
X18669000Y-8128000D01*
X16510000Y-15367000D02*
X8382000Y-15367000D01*
X16510000Y-14605000D02*
X16510000Y-15367000D01*
X18669000Y-14605000D02*
X16510000Y-14605000D01*
X18669000Y-8128000D02*
X18669000Y-14605000D01*
X8382000Y-15367000D02*
X8382000Y-8128000D01*
D11*
D12*
X8665928Y-15835214D02*
X8665928Y-15535214D01*
X8737357Y-15535214D01*
X8780214Y-15549500D01*
X8808786Y-15578071D01*
X8823071Y-15606643D01*
X8837357Y-15663786D01*
X8837357Y-15706643D01*
X8823071Y-15763786D01*
X8808786Y-15792357D01*
X8780214Y-15820929D01*
X8737357Y-15835214D01*
X8665928Y-15835214D01*
X8965928Y-15835214D02*
X8965928Y-15635214D01*
X8965928Y-15692357D02*
X8980214Y-15663786D01*
X8994500Y-15649500D01*
X9023071Y-15635214D01*
X9051643Y-15635214D01*
X9151643Y-15835214D02*
X9151643Y-15635214D01*
X9151643Y-15535214D02*
X9137357Y-15549500D01*
X9151643Y-15563786D01*
X9165928Y-15549500D01*
X9151643Y-15535214D01*
X9151643Y-15563786D01*
X9337357Y-15835214D02*
X9308786Y-15820929D01*
X9294500Y-15792357D01*
X9294500Y-15535214D01*
X9494500Y-15835214D02*
X9465928Y-15820929D01*
X9451643Y-15792357D01*
X9451643Y-15535214D01*
X9837357Y-15835214D02*
X9837357Y-15535214D01*
X9937357Y-15749500D01*
X10037357Y-15535214D01*
X10037357Y-15835214D01*
X10308786Y-15835214D02*
X10308786Y-15678071D01*
X10294500Y-15649500D01*
X10265928Y-15635214D01*
X10208786Y-15635214D01*
X10180214Y-15649500D01*
X10308786Y-15820929D02*
X10280214Y-15835214D01*
X10208786Y-15835214D01*
X10180214Y-15820929D01*
X10165928Y-15792357D01*
X10165928Y-15763786D01*
X10180214Y-15735214D01*
X10208786Y-15720929D01*
X10280214Y-15720929D01*
X10308786Y-15706643D01*
X10451643Y-15635214D02*
X10451643Y-15935214D01*
X10451643Y-15649500D02*
X10480214Y-15635214D01*
X10537357Y-15635214D01*
X10565928Y-15649500D01*
X10580214Y-15663786D01*
X10594500Y-15692357D01*
X10594500Y-15778071D01*
X10580214Y-15806643D01*
X10565928Y-15820929D01*
X10537357Y-15835214D01*
X10480214Y-15835214D01*
X10451643Y-15820929D01*
X10723071Y-15806643D02*
X10737357Y-15820929D01*
X10723071Y-15835214D01*
X10708786Y-15820929D01*
X10723071Y-15806643D01*
X10723071Y-15835214D01*
X10723071Y-15649500D02*
X10737357Y-15663786D01*
X10723071Y-15678071D01*
X10708786Y-15663786D01*
X10723071Y-15649500D01*
X10723071Y-15678071D01*
M02*
