%FSLAX45Y45*%
G04 Gerber Fmt 4.5, Leading zero omitted, Abs format (unit mm)*
G04 Created by KiCad (PCBNEW (5.1.9-0-10_14)) date 2022-05-15 13:48:27*
%MOMM*%
%LPD*%
G01*
G04 APERTURE LIST*
%TA.AperFunction,Profile*%
%ADD10C,0.050000*%
%TD*%
%ADD11C,0.200000*%
%ADD12C,0.300000*%
G04 APERTURE END LIST*
D10*
X8382000Y-8128000D02*
X18669000Y-8128000D01*
X16510000Y-15367000D02*
X8382000Y-15367000D01*
X16510000Y-14605000D02*
X16510000Y-15367000D01*
X18669000Y-14605000D02*
X16510000Y-14605000D01*
X18669000Y-8128000D02*
X18669000Y-14605000D01*
X8382000Y-15367000D02*
X8382000Y-8128000D01*
D11*
X8743001Y-11664000D02*
X8783001Y-11704000D01*
X8783001Y-11664000D02*
X8743001Y-11704000D01*
X8870000Y-11527999D02*
X8910000Y-11567999D01*
X8910000Y-11527999D02*
X8870000Y-11567999D01*
X9124000Y-9695500D02*
X9164000Y-9735500D01*
X9164000Y-9695500D02*
X9124000Y-9735500D01*
X9632000Y-9505000D02*
X9672000Y-9545000D01*
X9672000Y-9505000D02*
X9632000Y-9545000D01*
X9695500Y-13569000D02*
X9735500Y-13609000D01*
X9735500Y-13569000D02*
X9695500Y-13609000D01*
X10648000Y-9251000D02*
X10688000Y-9291000D01*
X10688000Y-9251000D02*
X10648000Y-9291000D01*
X11092500Y-10775000D02*
X11132500Y-10815000D01*
X11132500Y-10775000D02*
X11092500Y-10815000D01*
X11219501Y-10520999D02*
X11259501Y-10560999D01*
X11259501Y-10520999D02*
X11219501Y-10560999D01*
X11283000Y-8997000D02*
X11323000Y-9037000D01*
X11323000Y-8997000D02*
X11283000Y-9037000D01*
X11600500Y-10902000D02*
X11640500Y-10942000D01*
X11640500Y-10902000D02*
X11600500Y-10942000D01*
X11791000Y-10521000D02*
X11831000Y-10561000D01*
X11831000Y-10521000D02*
X11791000Y-10561000D01*
X11918000Y-12362500D02*
X11958000Y-12402500D01*
X11958000Y-12362500D02*
X11918000Y-12402500D01*
X11918001Y-12616500D02*
X11958001Y-12656500D01*
X11958001Y-12616500D02*
X11918001Y-12656500D01*
X11972000Y-8489000D02*
X12012000Y-8529000D01*
X12012000Y-8489000D02*
X11972000Y-8529000D01*
X12108500Y-12426000D02*
X12148500Y-12466000D01*
X12148500Y-12426000D02*
X12108500Y-12466000D01*
X12235500Y-11791000D02*
X12275500Y-11831000D01*
X12275500Y-11791000D02*
X12235500Y-11831000D01*
X12299000Y-10711500D02*
X12339000Y-10751500D01*
X12339000Y-10711500D02*
X12299000Y-10751500D01*
X12299000Y-14267500D02*
X12339000Y-14307500D01*
X12339000Y-14267500D02*
X12299000Y-14307500D01*
X12362500Y-8489000D02*
X12402500Y-8529000D01*
X12402500Y-8489000D02*
X12362500Y-8529000D01*
X12553000Y-14267500D02*
X12593000Y-14307500D01*
X12593000Y-14267500D02*
X12553000Y-14307500D01*
X12679999Y-11537000D02*
X12719999Y-11577000D01*
X12719999Y-11537000D02*
X12679999Y-11577000D01*
X13061000Y-14267500D02*
X13101000Y-14307500D01*
X13101000Y-14267500D02*
X13061000Y-14307500D01*
X13188001Y-11029000D02*
X13228001Y-11069000D01*
X13228001Y-11029000D02*
X13188001Y-11069000D01*
X13251500Y-14267500D02*
X13291500Y-14307500D01*
X13291500Y-14267500D02*
X13251500Y-14307500D01*
X13315000Y-11473500D02*
X13355000Y-11513500D01*
X13355000Y-11473500D02*
X13315000Y-11513500D01*
X13569000Y-14394500D02*
X13609000Y-14434500D01*
X13609000Y-14394500D02*
X13569000Y-14434500D01*
X13632500Y-10013000D02*
X13672500Y-10053000D01*
X13672500Y-10013000D02*
X13632500Y-10053000D01*
X13950000Y-11029000D02*
X13990000Y-11069000D01*
X13990000Y-11029000D02*
X13950000Y-11069000D01*
X13950000Y-13442000D02*
X13990000Y-13482000D01*
X13990000Y-13442000D02*
X13950000Y-13482000D01*
X14204000Y-13886500D02*
X14244000Y-13926500D01*
X14244000Y-13886500D02*
X14204000Y-13926500D01*
X14267500Y-8362000D02*
X14307500Y-8402000D01*
X14307500Y-8362000D02*
X14267500Y-8402000D01*
X14458000Y-8743000D02*
X14498000Y-8783000D01*
X14498000Y-8743000D02*
X14458000Y-8783000D01*
X14458000Y-11029000D02*
X14498000Y-11069000D01*
X14498000Y-11029000D02*
X14458000Y-11069000D01*
X14458000Y-13378500D02*
X14498000Y-13418500D01*
X14498000Y-13378500D02*
X14458000Y-13418500D01*
X14521501Y-8616000D02*
X14561501Y-8656000D01*
X14561501Y-8616000D02*
X14521501Y-8656000D01*
X14648500Y-9378000D02*
X14688500Y-9418000D01*
X14688500Y-9378000D02*
X14648500Y-9418000D01*
X15093000Y-8425500D02*
X15133000Y-8465500D01*
X15133000Y-8425500D02*
X15093000Y-8465500D01*
X15220000Y-9378000D02*
X15260000Y-9418000D01*
X15260000Y-9378000D02*
X15220000Y-9418000D01*
X15410500Y-8362000D02*
X15450500Y-8402000D01*
X15450500Y-8362000D02*
X15410500Y-8402000D01*
X15537500Y-11727500D02*
X15577500Y-11767500D01*
X15577500Y-11727500D02*
X15537500Y-11767500D01*
X15601000Y-14204000D02*
X15641000Y-14244000D01*
X15641000Y-14204000D02*
X15601000Y-14244000D01*
X15728000Y-9187500D02*
X15768000Y-9227500D01*
X15768000Y-9187500D02*
X15728000Y-9227500D01*
X15728000Y-11092500D02*
X15768000Y-11132500D01*
X15768000Y-11092500D02*
X15728000Y-11132500D01*
X15728000Y-11727500D02*
X15768000Y-11767500D01*
X15768000Y-11727500D02*
X15728000Y-11767500D01*
X15728000Y-12489500D02*
X15768000Y-12529500D01*
X15768000Y-12489500D02*
X15728000Y-12529500D01*
X15855000Y-8933500D02*
X15895000Y-8973500D01*
X15895000Y-8933500D02*
X15855000Y-8973500D01*
X16172500Y-12172000D02*
X16212500Y-12212000D01*
X16212500Y-12172000D02*
X16172500Y-12212000D01*
X16172501Y-14204000D02*
X16212501Y-14244000D01*
X16212501Y-14204000D02*
X16172501Y-14244000D01*
X16236000Y-11854500D02*
X16276000Y-11894500D01*
X16276000Y-11854500D02*
X16236000Y-11894500D01*
X16299500Y-13569000D02*
X16339500Y-13609000D01*
X16339500Y-13569000D02*
X16299500Y-13609000D01*
X16553500Y-11791000D02*
X16593500Y-11831000D01*
X16593500Y-11791000D02*
X16553500Y-11831000D01*
X17188500Y-11918000D02*
X17228500Y-11958000D01*
X17228500Y-11918000D02*
X17188500Y-11958000D01*
X17252000Y-10076500D02*
X17292000Y-10116500D01*
X17292000Y-10076500D02*
X17252000Y-10116500D01*
X17252000Y-10838500D02*
X17292000Y-10878500D01*
X17292000Y-10838500D02*
X17252000Y-10878500D01*
X17633000Y-8933500D02*
X17673000Y-8973500D01*
X17673000Y-8933500D02*
X17633000Y-8973500D01*
X17696500Y-11791000D02*
X17736500Y-11831000D01*
X17736500Y-11791000D02*
X17696500Y-11831000D01*
X18141000Y-9187500D02*
X18181000Y-9227500D01*
X18181000Y-9187500D02*
X18141000Y-9227500D01*
X18141000Y-11600500D02*
X18181000Y-11640500D01*
X18181000Y-11600500D02*
X18141000Y-11640500D01*
X18262000Y-13208000D02*
G75*
G03*
X18262000Y-13208000I-37500J0D01*
G01*
X18262000Y-13335000D02*
G75*
G03*
X18262000Y-13335000I-37500J0D01*
G01*
X18262000Y-13462000D02*
G75*
G03*
X18262000Y-13462000I-37500J0D01*
G01*
X8890000Y-8723000D02*
X8890000Y-8803000D01*
X8850000Y-8763000D02*
X8930000Y-8763000D01*
X8890000Y-10247000D02*
X8890000Y-10327000D01*
X8850000Y-10287000D02*
X8930000Y-10287000D01*
X8890000Y-12533000D02*
X8890000Y-12613000D01*
X8850000Y-12573000D02*
X8930000Y-12573000D01*
X8890000Y-13041000D02*
X8890000Y-13121000D01*
X8850000Y-13081000D02*
X8930000Y-13081000D01*
X8890000Y-13803000D02*
X8890000Y-13883000D01*
X8850000Y-13843000D02*
X8930000Y-13843000D01*
X8890000Y-14184000D02*
X8890000Y-14264000D01*
X8850000Y-14224000D02*
X8930000Y-14224000D01*
X9144000Y-8723000D02*
X9144000Y-8803000D01*
X9104000Y-8763000D02*
X9184000Y-8763000D01*
X9144000Y-10247000D02*
X9144000Y-10327000D01*
X9104000Y-10287000D02*
X9184000Y-10287000D01*
X9144000Y-11263000D02*
X9144000Y-11343000D01*
X9104000Y-11303000D02*
X9184000Y-11303000D01*
X9144000Y-12025000D02*
X9144000Y-12105000D01*
X9104000Y-12065000D02*
X9184000Y-12065000D01*
X9144000Y-12533000D02*
X9144000Y-12613000D01*
X9104000Y-12573000D02*
X9184000Y-12573000D01*
X9144000Y-13041000D02*
X9144000Y-13121000D01*
X9104000Y-13081000D02*
X9184000Y-13081000D01*
X9144000Y-13803000D02*
X9144000Y-13883000D01*
X9104000Y-13843000D02*
X9184000Y-13843000D01*
X9390000Y-14184000D02*
X9390000Y-14264000D01*
X9350000Y-14224000D02*
X9430000Y-14224000D01*
X9398000Y-8723000D02*
X9398000Y-8803000D01*
X9358000Y-8763000D02*
X9438000Y-8763000D01*
X9398000Y-10247000D02*
X9398000Y-10327000D01*
X9358000Y-10287000D02*
X9438000Y-10287000D01*
X9398000Y-11263000D02*
X9398000Y-11343000D01*
X9358000Y-11303000D02*
X9438000Y-11303000D01*
X9398000Y-12025000D02*
X9398000Y-12105000D01*
X9358000Y-12065000D02*
X9438000Y-12065000D01*
X9398000Y-12533000D02*
X9398000Y-12613000D01*
X9358000Y-12573000D02*
X9438000Y-12573000D01*
X9398000Y-13041000D02*
X9398000Y-13121000D01*
X9358000Y-13081000D02*
X9438000Y-13081000D01*
X9398000Y-13803000D02*
X9398000Y-13883000D01*
X9358000Y-13843000D02*
X9438000Y-13843000D01*
X9652000Y-8723000D02*
X9652000Y-8803000D01*
X9612000Y-8763000D02*
X9692000Y-8763000D01*
X9652000Y-10247000D02*
X9652000Y-10327000D01*
X9612000Y-10287000D02*
X9692000Y-10287000D01*
X9652000Y-11263000D02*
X9652000Y-11343000D01*
X9612000Y-11303000D02*
X9692000Y-11303000D01*
X9652000Y-12025000D02*
X9652000Y-12105000D01*
X9612000Y-12065000D02*
X9692000Y-12065000D01*
X9652000Y-12533000D02*
X9652000Y-12613000D01*
X9612000Y-12573000D02*
X9692000Y-12573000D01*
X9652000Y-13041000D02*
X9652000Y-13121000D01*
X9612000Y-13081000D02*
X9692000Y-13081000D01*
X9652000Y-13803000D02*
X9652000Y-13883000D01*
X9612000Y-13843000D02*
X9692000Y-13843000D01*
X9906000Y-8723000D02*
X9906000Y-8803000D01*
X9866000Y-8763000D02*
X9946000Y-8763000D01*
X9906000Y-10247000D02*
X9906000Y-10327000D01*
X9866000Y-10287000D02*
X9946000Y-10287000D01*
X9906000Y-11263000D02*
X9906000Y-11343000D01*
X9866000Y-11303000D02*
X9946000Y-11303000D01*
X9906000Y-12025000D02*
X9906000Y-12105000D01*
X9866000Y-12065000D02*
X9946000Y-12065000D01*
X9906000Y-12533000D02*
X9906000Y-12613000D01*
X9866000Y-12573000D02*
X9946000Y-12573000D01*
X9906000Y-13041000D02*
X9906000Y-13121000D01*
X9866000Y-13081000D02*
X9946000Y-13081000D01*
X9906000Y-13803000D02*
X9906000Y-13883000D01*
X9866000Y-13843000D02*
X9946000Y-13843000D01*
X10160000Y-8723000D02*
X10160000Y-8803000D01*
X10120000Y-8763000D02*
X10200000Y-8763000D01*
X10160000Y-10247000D02*
X10160000Y-10327000D01*
X10120000Y-10287000D02*
X10200000Y-10287000D01*
X10160000Y-11263000D02*
X10160000Y-11343000D01*
X10120000Y-11303000D02*
X10200000Y-11303000D01*
X10160000Y-12025000D02*
X10160000Y-12105000D01*
X10120000Y-12065000D02*
X10200000Y-12065000D01*
X10160000Y-12533000D02*
X10160000Y-12613000D01*
X10120000Y-12573000D02*
X10200000Y-12573000D01*
X10160000Y-13041000D02*
X10160000Y-13121000D01*
X10120000Y-13081000D02*
X10200000Y-13081000D01*
X10160000Y-13803000D02*
X10160000Y-13883000D01*
X10120000Y-13843000D02*
X10200000Y-13843000D01*
X10414000Y-8723000D02*
X10414000Y-8803000D01*
X10374000Y-8763000D02*
X10454000Y-8763000D01*
X10414000Y-10247000D02*
X10414000Y-10327000D01*
X10374000Y-10287000D02*
X10454000Y-10287000D01*
X10414000Y-11263000D02*
X10414000Y-11343000D01*
X10374000Y-11303000D02*
X10454000Y-11303000D01*
X10414000Y-12025000D02*
X10414000Y-12105000D01*
X10374000Y-12065000D02*
X10454000Y-12065000D01*
X10414000Y-12533000D02*
X10414000Y-12613000D01*
X10374000Y-12573000D02*
X10454000Y-12573000D01*
X10414000Y-13041000D02*
X10414000Y-13121000D01*
X10374000Y-13081000D02*
X10454000Y-13081000D01*
X10414000Y-13803000D02*
X10414000Y-13883000D01*
X10374000Y-13843000D02*
X10454000Y-13843000D01*
X10668000Y-8723000D02*
X10668000Y-8803000D01*
X10628000Y-8763000D02*
X10708000Y-8763000D01*
X10668000Y-10247000D02*
X10668000Y-10327000D01*
X10628000Y-10287000D02*
X10708000Y-10287000D01*
X10668000Y-11263000D02*
X10668000Y-11343000D01*
X10628000Y-11303000D02*
X10708000Y-11303000D01*
X10668000Y-12025000D02*
X10668000Y-12105000D01*
X10628000Y-12065000D02*
X10708000Y-12065000D01*
X10668000Y-12533000D02*
X10668000Y-12613000D01*
X10628000Y-12573000D02*
X10708000Y-12573000D01*
X10668000Y-13041000D02*
X10668000Y-13121000D01*
X10628000Y-13081000D02*
X10708000Y-13081000D01*
X10668000Y-13803000D02*
X10668000Y-13883000D01*
X10628000Y-13843000D02*
X10708000Y-13843000D01*
X10922000Y-8723000D02*
X10922000Y-8803000D01*
X10882000Y-8763000D02*
X10962000Y-8763000D01*
X10922000Y-10247000D02*
X10922000Y-10327000D01*
X10882000Y-10287000D02*
X10962000Y-10287000D01*
X10922000Y-11263000D02*
X10922000Y-11343000D01*
X10882000Y-11303000D02*
X10962000Y-11303000D01*
X10922000Y-12025000D02*
X10922000Y-12105000D01*
X10882000Y-12065000D02*
X10962000Y-12065000D01*
X10922000Y-12533000D02*
X10922000Y-12613000D01*
X10882000Y-12573000D02*
X10962000Y-12573000D01*
X10922000Y-13041000D02*
X10922000Y-13121000D01*
X10882000Y-13081000D02*
X10962000Y-13081000D01*
X10922000Y-13803000D02*
X10922000Y-13883000D01*
X10882000Y-13843000D02*
X10962000Y-13843000D01*
X11176000Y-8723000D02*
X11176000Y-8803000D01*
X11136000Y-8763000D02*
X11216000Y-8763000D01*
X11176000Y-10247000D02*
X11176000Y-10327000D01*
X11136000Y-10287000D02*
X11216000Y-10287000D01*
X11176000Y-13041000D02*
X11176000Y-13121000D01*
X11136000Y-13081000D02*
X11216000Y-13081000D01*
X11176000Y-13803000D02*
X11176000Y-13883000D01*
X11136000Y-13843000D02*
X11216000Y-13843000D01*
X11430000Y-8723000D02*
X11430000Y-8803000D01*
X11390000Y-8763000D02*
X11470000Y-8763000D01*
X11430000Y-10247000D02*
X11430000Y-10327000D01*
X11390000Y-10287000D02*
X11470000Y-10287000D01*
X11684000Y-8723000D02*
X11684000Y-8803000D01*
X11644000Y-8763000D02*
X11724000Y-8763000D01*
X11684000Y-10247000D02*
X11684000Y-10327000D01*
X11644000Y-10287000D02*
X11724000Y-10287000D01*
X11684000Y-11263000D02*
X11684000Y-11343000D01*
X11644000Y-11303000D02*
X11724000Y-11303000D01*
X11684000Y-12025000D02*
X11684000Y-12105000D01*
X11644000Y-12065000D02*
X11724000Y-12065000D01*
X11684000Y-13041000D02*
X11684000Y-13121000D01*
X11644000Y-13081000D02*
X11724000Y-13081000D01*
X11684000Y-13803000D02*
X11684000Y-13883000D01*
X11644000Y-13843000D02*
X11724000Y-13843000D01*
X11874500Y-10882000D02*
X11874500Y-10962000D01*
X11834500Y-10922000D02*
X11914500Y-10922000D01*
X11938000Y-8723000D02*
X11938000Y-8803000D01*
X11898000Y-8763000D02*
X11978000Y-8763000D01*
X11938000Y-10247000D02*
X11938000Y-10327000D01*
X11898000Y-10287000D02*
X11978000Y-10287000D01*
X11938000Y-11263000D02*
X11938000Y-11343000D01*
X11898000Y-11303000D02*
X11978000Y-11303000D01*
X11938000Y-12025000D02*
X11938000Y-12105000D01*
X11898000Y-12065000D02*
X11978000Y-12065000D01*
X11938000Y-13041000D02*
X11938000Y-13121000D01*
X11898000Y-13081000D02*
X11978000Y-13081000D01*
X11938000Y-13803000D02*
X11938000Y-13883000D01*
X11898000Y-13843000D02*
X11978000Y-13843000D01*
X12192000Y-8723000D02*
X12192000Y-8803000D01*
X12152000Y-8763000D02*
X12232000Y-8763000D01*
X12192000Y-10247000D02*
X12192000Y-10327000D01*
X12152000Y-10287000D02*
X12232000Y-10287000D01*
X12192000Y-11263000D02*
X12192000Y-11343000D01*
X12152000Y-11303000D02*
X12232000Y-11303000D01*
X12192000Y-12025000D02*
X12192000Y-12105000D01*
X12152000Y-12065000D02*
X12232000Y-12065000D01*
X12192000Y-13041000D02*
X12192000Y-13121000D01*
X12152000Y-13081000D02*
X12232000Y-13081000D01*
X12192000Y-13803000D02*
X12192000Y-13883000D01*
X12152000Y-13843000D02*
X12232000Y-13843000D01*
X12374500Y-10882000D02*
X12374500Y-10962000D01*
X12334500Y-10922000D02*
X12414500Y-10922000D01*
X12446000Y-8723000D02*
X12446000Y-8803000D01*
X12406000Y-8763000D02*
X12486000Y-8763000D01*
X12446000Y-10247000D02*
X12446000Y-10327000D01*
X12406000Y-10287000D02*
X12486000Y-10287000D01*
X12446000Y-11263000D02*
X12446000Y-11343000D01*
X12406000Y-11303000D02*
X12486000Y-11303000D01*
X12446000Y-12025000D02*
X12446000Y-12105000D01*
X12406000Y-12065000D02*
X12486000Y-12065000D01*
X12446000Y-13041000D02*
X12446000Y-13121000D01*
X12406000Y-13081000D02*
X12486000Y-13081000D01*
X12446000Y-13803000D02*
X12446000Y-13883000D01*
X12406000Y-13843000D02*
X12486000Y-13843000D01*
X12700000Y-8723000D02*
X12700000Y-8803000D01*
X12660000Y-8763000D02*
X12740000Y-8763000D01*
X12700000Y-10247000D02*
X12700000Y-10327000D01*
X12660000Y-10287000D02*
X12740000Y-10287000D01*
X12700000Y-11263000D02*
X12700000Y-11343000D01*
X12660000Y-11303000D02*
X12740000Y-11303000D01*
X12700000Y-12025000D02*
X12700000Y-12105000D01*
X12660000Y-12065000D02*
X12740000Y-12065000D01*
X12700000Y-13041000D02*
X12700000Y-13121000D01*
X12660000Y-13081000D02*
X12740000Y-13081000D01*
X12700000Y-13803000D02*
X12700000Y-13883000D01*
X12660000Y-13843000D02*
X12740000Y-13843000D01*
X12708000Y-12533000D02*
X12708000Y-12613000D01*
X12668000Y-12573000D02*
X12748000Y-12573000D01*
X12954000Y-11263000D02*
X12954000Y-11343000D01*
X12914000Y-11303000D02*
X12994000Y-11303000D01*
X12954000Y-12025000D02*
X12954000Y-12105000D01*
X12914000Y-12065000D02*
X12994000Y-12065000D01*
X12954000Y-13041000D02*
X12954000Y-13121000D01*
X12914000Y-13081000D02*
X12994000Y-13081000D01*
X12954000Y-13803000D02*
X12954000Y-13883000D01*
X12914000Y-13843000D02*
X12994000Y-13843000D01*
X13208000Y-8723000D02*
X13208000Y-8803000D01*
X13168000Y-8763000D02*
X13248000Y-8763000D01*
X13208000Y-8977000D02*
X13208000Y-9057000D01*
X13168000Y-9017000D02*
X13248000Y-9017000D01*
X13208000Y-9231000D02*
X13208000Y-9311000D01*
X13168000Y-9271000D02*
X13248000Y-9271000D01*
X13208000Y-9485000D02*
X13208000Y-9565000D01*
X13168000Y-9525000D02*
X13248000Y-9525000D01*
X13208000Y-9739000D02*
X13208000Y-9819000D01*
X13168000Y-9779000D02*
X13248000Y-9779000D01*
X13208000Y-9993000D02*
X13208000Y-10073000D01*
X13168000Y-10033000D02*
X13248000Y-10033000D01*
X13208000Y-10247000D02*
X13208000Y-10327000D01*
X13168000Y-10287000D02*
X13248000Y-10287000D01*
X13208000Y-10501000D02*
X13208000Y-10581000D01*
X13168000Y-10541000D02*
X13248000Y-10541000D01*
X13208000Y-11263000D02*
X13208000Y-11343000D01*
X13168000Y-11303000D02*
X13248000Y-11303000D01*
X13208000Y-12025000D02*
X13208000Y-12105000D01*
X13168000Y-12065000D02*
X13248000Y-12065000D01*
X13208000Y-12533000D02*
X13208000Y-12613000D01*
X13168000Y-12573000D02*
X13248000Y-12573000D01*
X13208000Y-13041000D02*
X13208000Y-13121000D01*
X13168000Y-13081000D02*
X13248000Y-13081000D01*
X13208000Y-13803000D02*
X13208000Y-13883000D01*
X13168000Y-13843000D02*
X13248000Y-13843000D01*
X13462000Y-11263000D02*
X13462000Y-11343000D01*
X13422000Y-11303000D02*
X13502000Y-11303000D01*
X13462000Y-12025000D02*
X13462000Y-12105000D01*
X13422000Y-12065000D02*
X13502000Y-12065000D01*
X13462000Y-13041000D02*
X13462000Y-13121000D01*
X13422000Y-13081000D02*
X13502000Y-13081000D01*
X13462000Y-13803000D02*
X13462000Y-13883000D01*
X13422000Y-13843000D02*
X13502000Y-13843000D01*
X13716000Y-11263000D02*
X13716000Y-11343000D01*
X13676000Y-11303000D02*
X13756000Y-11303000D01*
X13716000Y-12025000D02*
X13716000Y-12105000D01*
X13676000Y-12065000D02*
X13756000Y-12065000D01*
X13716000Y-13041000D02*
X13716000Y-13121000D01*
X13676000Y-13081000D02*
X13756000Y-13081000D01*
X13716000Y-13803000D02*
X13716000Y-13883000D01*
X13676000Y-13843000D02*
X13756000Y-13843000D01*
X13716000Y-14184000D02*
X13716000Y-14264000D01*
X13676000Y-14224000D02*
X13756000Y-14224000D01*
X13970000Y-8723000D02*
X13970000Y-8803000D01*
X13930000Y-8763000D02*
X14010000Y-8763000D01*
X13970000Y-8977000D02*
X13970000Y-9057000D01*
X13930000Y-9017000D02*
X14010000Y-9017000D01*
X13970000Y-9231000D02*
X13970000Y-9311000D01*
X13930000Y-9271000D02*
X14010000Y-9271000D01*
X13970000Y-9485000D02*
X13970000Y-9565000D01*
X13930000Y-9525000D02*
X14010000Y-9525000D01*
X13970000Y-9739000D02*
X13970000Y-9819000D01*
X13930000Y-9779000D02*
X14010000Y-9779000D01*
X13970000Y-9993000D02*
X13970000Y-10073000D01*
X13930000Y-10033000D02*
X14010000Y-10033000D01*
X13970000Y-10247000D02*
X13970000Y-10327000D01*
X13930000Y-10287000D02*
X14010000Y-10287000D01*
X13970000Y-10501000D02*
X13970000Y-10581000D01*
X13930000Y-10541000D02*
X14010000Y-10541000D01*
X13970000Y-11263000D02*
X13970000Y-11343000D01*
X13930000Y-11303000D02*
X14010000Y-11303000D01*
X13970000Y-12025000D02*
X13970000Y-12105000D01*
X13930000Y-12065000D02*
X14010000Y-12065000D01*
X13970000Y-13041000D02*
X13970000Y-13121000D01*
X13930000Y-13081000D02*
X14010000Y-13081000D01*
X13970000Y-13803000D02*
X13970000Y-13883000D01*
X13930000Y-13843000D02*
X14010000Y-13843000D01*
X14216000Y-14184000D02*
X14216000Y-14264000D01*
X14176000Y-14224000D02*
X14256000Y-14224000D01*
X14224000Y-11263000D02*
X14224000Y-11343000D01*
X14184000Y-11303000D02*
X14264000Y-11303000D01*
X14224000Y-12025000D02*
X14224000Y-12105000D01*
X14184000Y-12065000D02*
X14264000Y-12065000D01*
X14351000Y-9866000D02*
X14351000Y-9946000D01*
X14311000Y-9906000D02*
X14391000Y-9906000D01*
X14351000Y-10247000D02*
X14351000Y-10327000D01*
X14311000Y-10287000D02*
X14391000Y-10287000D01*
X14351000Y-10501000D02*
X14351000Y-10581000D01*
X14311000Y-10541000D02*
X14391000Y-10541000D01*
X14478000Y-11263000D02*
X14478000Y-11343000D01*
X14438000Y-11303000D02*
X14518000Y-11303000D01*
X14478000Y-12025000D02*
X14478000Y-12105000D01*
X14438000Y-12065000D02*
X14518000Y-12065000D01*
X14478000Y-13041000D02*
X14478000Y-13121000D01*
X14438000Y-13081000D02*
X14518000Y-13081000D01*
X14478000Y-13803000D02*
X14478000Y-13883000D01*
X14438000Y-13843000D02*
X14518000Y-13843000D01*
X14732000Y-13041000D02*
X14732000Y-13121000D01*
X14692000Y-13081000D02*
X14772000Y-13081000D01*
X14732000Y-13803000D02*
X14732000Y-13883000D01*
X14692000Y-13843000D02*
X14772000Y-13843000D01*
X14986000Y-13041000D02*
X14986000Y-13121000D01*
X14946000Y-13081000D02*
X15026000Y-13081000D01*
X14986000Y-13803000D02*
X14986000Y-13883000D01*
X14946000Y-13843000D02*
X15026000Y-13843000D01*
X15113000Y-9866000D02*
X15113000Y-9946000D01*
X15073000Y-9906000D02*
X15153000Y-9906000D01*
X15113000Y-10247000D02*
X15113000Y-10327000D01*
X15073000Y-10287000D02*
X15153000Y-10287000D01*
X15113000Y-10501000D02*
X15113000Y-10581000D01*
X15073000Y-10541000D02*
X15153000Y-10541000D01*
X15240000Y-13041000D02*
X15240000Y-13121000D01*
X15200000Y-13081000D02*
X15280000Y-13081000D01*
X15240000Y-13803000D02*
X15240000Y-13883000D01*
X15200000Y-13843000D02*
X15280000Y-13843000D01*
X15430500Y-9810500D02*
X15430500Y-9890500D01*
X15390500Y-9850500D02*
X15470500Y-9850500D01*
X15430500Y-10310500D02*
X15430500Y-10390500D01*
X15390500Y-10350500D02*
X15470500Y-10350500D01*
X15494000Y-13041000D02*
X15494000Y-13121000D01*
X15454000Y-13081000D02*
X15534000Y-13081000D01*
X15494000Y-13803000D02*
X15494000Y-13883000D01*
X15454000Y-13843000D02*
X15534000Y-13843000D01*
X15748000Y-13041000D02*
X15748000Y-13121000D01*
X15708000Y-13081000D02*
X15788000Y-13081000D01*
X15748000Y-13803000D02*
X15748000Y-13883000D01*
X15708000Y-13843000D02*
X15788000Y-13843000D01*
X16002000Y-13041000D02*
X16002000Y-13121000D01*
X15962000Y-13081000D02*
X16042000Y-13081000D01*
X16002000Y-13803000D02*
X16002000Y-13883000D01*
X15962000Y-13843000D02*
X16042000Y-13843000D01*
X16256000Y-13041000D02*
X16256000Y-13121000D01*
X16216000Y-13081000D02*
X16296000Y-13081000D01*
X16256000Y-13803000D02*
X16256000Y-13883000D01*
X16216000Y-13843000D02*
X16296000Y-13843000D01*
X16764000Y-12025000D02*
X16764000Y-12105000D01*
X16724000Y-12065000D02*
X16804000Y-12065000D01*
X16764000Y-12279000D02*
X16764000Y-12359000D01*
X16724000Y-12319000D02*
X16804000Y-12319000D01*
X16764000Y-12533000D02*
X16764000Y-12613000D01*
X16724000Y-12573000D02*
X16804000Y-12573000D01*
X16764000Y-12787000D02*
X16764000Y-12867000D01*
X16724000Y-12827000D02*
X16804000Y-12827000D01*
X16764000Y-13041000D02*
X16764000Y-13121000D01*
X16724000Y-13081000D02*
X16804000Y-13081000D01*
X16764000Y-13295000D02*
X16764000Y-13375000D01*
X16724000Y-13335000D02*
X16804000Y-13335000D01*
X16764000Y-13549000D02*
X16764000Y-13629000D01*
X16724000Y-13589000D02*
X16804000Y-13589000D01*
X16764000Y-13803000D02*
X16764000Y-13883000D01*
X16724000Y-13843000D02*
X16804000Y-13843000D01*
X16764000Y-14184000D02*
X16764000Y-14264000D01*
X16724000Y-14224000D02*
X16804000Y-14224000D01*
X17264000Y-14184000D02*
X17264000Y-14264000D01*
X17224000Y-14224000D02*
X17304000Y-14224000D01*
X17526000Y-12025000D02*
X17526000Y-12105000D01*
X17486000Y-12065000D02*
X17566000Y-12065000D01*
X17526000Y-12279000D02*
X17526000Y-12359000D01*
X17486000Y-12319000D02*
X17566000Y-12319000D01*
X17526000Y-12533000D02*
X17526000Y-12613000D01*
X17486000Y-12573000D02*
X17566000Y-12573000D01*
X17526000Y-12787000D02*
X17526000Y-12867000D01*
X17486000Y-12827000D02*
X17566000Y-12827000D01*
X17526000Y-13041000D02*
X17526000Y-13121000D01*
X17486000Y-13081000D02*
X17566000Y-13081000D01*
X17526000Y-13295000D02*
X17526000Y-13375000D01*
X17486000Y-13335000D02*
X17566000Y-13335000D01*
X17526000Y-13549000D02*
X17526000Y-13629000D01*
X17486000Y-13589000D02*
X17566000Y-13589000D01*
X17526000Y-13803000D02*
X17526000Y-13883000D01*
X17486000Y-13843000D02*
X17566000Y-13843000D01*
X17970500Y-11961500D02*
X17970500Y-12041500D01*
X17930500Y-12001500D02*
X18010500Y-12001500D01*
X17970500Y-12723500D02*
X17970500Y-12803500D01*
X17930500Y-12763500D02*
X18010500Y-12763500D01*
X18351500Y-11961500D02*
X18351500Y-12041500D01*
X18311500Y-12001500D02*
X18391500Y-12001500D01*
X18351500Y-12723500D02*
X18351500Y-12803500D01*
X18311500Y-12763500D02*
X18391500Y-12763500D01*
X15910356Y-8671356D02*
X15910356Y-8600644D01*
X15839644Y-8600644D01*
X15839644Y-8671356D01*
X15910356Y-8671356D01*
X16164356Y-8671356D02*
X16164356Y-8600644D01*
X16093644Y-8600644D01*
X16093644Y-8671356D01*
X16164356Y-8671356D01*
X18295620Y-8687300D02*
X18455620Y-8527300D01*
X18295620Y-8367300D01*
X18135620Y-8527300D01*
X18295620Y-8687300D01*
X18295620Y-14338800D02*
X18455620Y-14178800D01*
X18295620Y-14018800D01*
X18135620Y-14178800D01*
X18295620Y-14338800D01*
D12*
X8665928Y-15835214D02*
X8665928Y-15535214D01*
X8737357Y-15535214D01*
X8780214Y-15549500D01*
X8808786Y-15578071D01*
X8823071Y-15606643D01*
X8837357Y-15663786D01*
X8837357Y-15706643D01*
X8823071Y-15763786D01*
X8808786Y-15792357D01*
X8780214Y-15820929D01*
X8737357Y-15835214D01*
X8665928Y-15835214D01*
X8965928Y-15835214D02*
X8965928Y-15635214D01*
X8965928Y-15692357D02*
X8980214Y-15663786D01*
X8994500Y-15649500D01*
X9023071Y-15635214D01*
X9051643Y-15635214D01*
X9151643Y-15835214D02*
X9151643Y-15635214D01*
X9151643Y-15535214D02*
X9137357Y-15549500D01*
X9151643Y-15563786D01*
X9165928Y-15549500D01*
X9151643Y-15535214D01*
X9151643Y-15563786D01*
X9337357Y-15835214D02*
X9308786Y-15820929D01*
X9294500Y-15792357D01*
X9294500Y-15535214D01*
X9494500Y-15835214D02*
X9465928Y-15820929D01*
X9451643Y-15792357D01*
X9451643Y-15535214D01*
X9837357Y-15835214D02*
X9837357Y-15535214D01*
X9937357Y-15749500D01*
X10037357Y-15535214D01*
X10037357Y-15835214D01*
X10308786Y-15835214D02*
X10308786Y-15678071D01*
X10294500Y-15649500D01*
X10265928Y-15635214D01*
X10208786Y-15635214D01*
X10180214Y-15649500D01*
X10308786Y-15820929D02*
X10280214Y-15835214D01*
X10208786Y-15835214D01*
X10180214Y-15820929D01*
X10165928Y-15792357D01*
X10165928Y-15763786D01*
X10180214Y-15735214D01*
X10208786Y-15720929D01*
X10280214Y-15720929D01*
X10308786Y-15706643D01*
X10451643Y-15635214D02*
X10451643Y-15935214D01*
X10451643Y-15649500D02*
X10480214Y-15635214D01*
X10537357Y-15635214D01*
X10565928Y-15649500D01*
X10580214Y-15663786D01*
X10594500Y-15692357D01*
X10594500Y-15778071D01*
X10580214Y-15806643D01*
X10565928Y-15820929D01*
X10537357Y-15835214D01*
X10480214Y-15835214D01*
X10451643Y-15820929D01*
X10723071Y-15806643D02*
X10737357Y-15820929D01*
X10723071Y-15835214D01*
X10708786Y-15820929D01*
X10723071Y-15806643D01*
X10723071Y-15835214D01*
X10723071Y-15649500D02*
X10737357Y-15663786D01*
X10723071Y-15678071D01*
X10708786Y-15663786D01*
X10723071Y-15649500D01*
X10723071Y-15678071D01*
X8339500Y-16309500D02*
X8379500Y-16349500D01*
X8379500Y-16309500D02*
X8339500Y-16349500D01*
X8723071Y-16165214D02*
X8751643Y-16165214D01*
X8780214Y-16179500D01*
X8794500Y-16193786D01*
X8808786Y-16222357D01*
X8823071Y-16279500D01*
X8823071Y-16350929D01*
X8808786Y-16408071D01*
X8794500Y-16436643D01*
X8780214Y-16450929D01*
X8751643Y-16465214D01*
X8723071Y-16465214D01*
X8694500Y-16450929D01*
X8680214Y-16436643D01*
X8665928Y-16408071D01*
X8651643Y-16350929D01*
X8651643Y-16279500D01*
X8665928Y-16222357D01*
X8680214Y-16193786D01*
X8694500Y-16179500D01*
X8723071Y-16165214D01*
X8951643Y-16436643D02*
X8965928Y-16450929D01*
X8951643Y-16465214D01*
X8937357Y-16450929D01*
X8951643Y-16436643D01*
X8951643Y-16465214D01*
X9223071Y-16265214D02*
X9223071Y-16465214D01*
X9151643Y-16150929D02*
X9080214Y-16365214D01*
X9265928Y-16365214D01*
X9437357Y-16165214D02*
X9465928Y-16165214D01*
X9494500Y-16179500D01*
X9508786Y-16193786D01*
X9523071Y-16222357D01*
X9537357Y-16279500D01*
X9537357Y-16350929D01*
X9523071Y-16408071D01*
X9508786Y-16436643D01*
X9494500Y-16450929D01*
X9465928Y-16465214D01*
X9437357Y-16465214D01*
X9408786Y-16450929D01*
X9394500Y-16436643D01*
X9380214Y-16408071D01*
X9365928Y-16350929D01*
X9365928Y-16279500D01*
X9380214Y-16222357D01*
X9394500Y-16193786D01*
X9408786Y-16179500D01*
X9437357Y-16165214D01*
X9665928Y-16465214D02*
X9665928Y-16265214D01*
X9665928Y-16293786D02*
X9680214Y-16279500D01*
X9708786Y-16265214D01*
X9751643Y-16265214D01*
X9780214Y-16279500D01*
X9794500Y-16308071D01*
X9794500Y-16465214D01*
X9794500Y-16308071D02*
X9808786Y-16279500D01*
X9837357Y-16265214D01*
X9880214Y-16265214D01*
X9908786Y-16279500D01*
X9923071Y-16308071D01*
X9923071Y-16465214D01*
X10065928Y-16465214D02*
X10065928Y-16265214D01*
X10065928Y-16293786D02*
X10080214Y-16279500D01*
X10108786Y-16265214D01*
X10151643Y-16265214D01*
X10180214Y-16279500D01*
X10194500Y-16308071D01*
X10194500Y-16465214D01*
X10194500Y-16308071D02*
X10208786Y-16279500D01*
X10237357Y-16265214D01*
X10280214Y-16265214D01*
X10308786Y-16279500D01*
X10323071Y-16308071D01*
X10323071Y-16465214D01*
X10908786Y-16150929D02*
X10651643Y-16536643D01*
X11294500Y-16165214D02*
X11323071Y-16165214D01*
X11351643Y-16179500D01*
X11365928Y-16193786D01*
X11380214Y-16222357D01*
X11394500Y-16279500D01*
X11394500Y-16350929D01*
X11380214Y-16408071D01*
X11365928Y-16436643D01*
X11351643Y-16450929D01*
X11323071Y-16465214D01*
X11294500Y-16465214D01*
X11265928Y-16450929D01*
X11251643Y-16436643D01*
X11237357Y-16408071D01*
X11223071Y-16350929D01*
X11223071Y-16279500D01*
X11237357Y-16222357D01*
X11251643Y-16193786D01*
X11265928Y-16179500D01*
X11294500Y-16165214D01*
X11523071Y-16436643D02*
X11537357Y-16450929D01*
X11523071Y-16465214D01*
X11508786Y-16450929D01*
X11523071Y-16436643D01*
X11523071Y-16465214D01*
X11723071Y-16165214D02*
X11751643Y-16165214D01*
X11780214Y-16179500D01*
X11794500Y-16193786D01*
X11808786Y-16222357D01*
X11823071Y-16279500D01*
X11823071Y-16350929D01*
X11808786Y-16408071D01*
X11794500Y-16436643D01*
X11780214Y-16450929D01*
X11751643Y-16465214D01*
X11723071Y-16465214D01*
X11694500Y-16450929D01*
X11680214Y-16436643D01*
X11665928Y-16408071D01*
X11651643Y-16350929D01*
X11651643Y-16279500D01*
X11665928Y-16222357D01*
X11680214Y-16193786D01*
X11694500Y-16179500D01*
X11723071Y-16165214D01*
X12108786Y-16465214D02*
X11937357Y-16465214D01*
X12023071Y-16465214D02*
X12023071Y-16165214D01*
X11994500Y-16208071D01*
X11965928Y-16236643D01*
X11937357Y-16250929D01*
X12365928Y-16165214D02*
X12308786Y-16165214D01*
X12280214Y-16179500D01*
X12265928Y-16193786D01*
X12237357Y-16236643D01*
X12223071Y-16293786D01*
X12223071Y-16408071D01*
X12237357Y-16436643D01*
X12251643Y-16450929D01*
X12280214Y-16465214D01*
X12337357Y-16465214D01*
X12365928Y-16450929D01*
X12380214Y-16436643D01*
X12394500Y-16408071D01*
X12394500Y-16336643D01*
X12380214Y-16308071D01*
X12365928Y-16293786D01*
X12337357Y-16279500D01*
X12280214Y-16279500D01*
X12251643Y-16293786D01*
X12237357Y-16308071D01*
X12223071Y-16336643D01*
X12508786Y-16165214D02*
X12508786Y-16222357D01*
X12623071Y-16165214D02*
X12623071Y-16222357D01*
X13065928Y-16579500D02*
X13051643Y-16565214D01*
X13023071Y-16522357D01*
X13008786Y-16493786D01*
X12994500Y-16450929D01*
X12980214Y-16379500D01*
X12980214Y-16322357D01*
X12994500Y-16250929D01*
X13008786Y-16208071D01*
X13023071Y-16179500D01*
X13051643Y-16136643D01*
X13065928Y-16122357D01*
X13323071Y-16165214D02*
X13180214Y-16165214D01*
X13165928Y-16308071D01*
X13180214Y-16293786D01*
X13208786Y-16279500D01*
X13280214Y-16279500D01*
X13308786Y-16293786D01*
X13323071Y-16308071D01*
X13337357Y-16336643D01*
X13337357Y-16408071D01*
X13323071Y-16436643D01*
X13308786Y-16450929D01*
X13280214Y-16465214D01*
X13208786Y-16465214D01*
X13180214Y-16450929D01*
X13165928Y-16436643D01*
X13508786Y-16293786D02*
X13480214Y-16279500D01*
X13465928Y-16265214D01*
X13451643Y-16236643D01*
X13451643Y-16222357D01*
X13465928Y-16193786D01*
X13480214Y-16179500D01*
X13508786Y-16165214D01*
X13565928Y-16165214D01*
X13594500Y-16179500D01*
X13608786Y-16193786D01*
X13623071Y-16222357D01*
X13623071Y-16236643D01*
X13608786Y-16265214D01*
X13594500Y-16279500D01*
X13565928Y-16293786D01*
X13508786Y-16293786D01*
X13480214Y-16308071D01*
X13465928Y-16322357D01*
X13451643Y-16350929D01*
X13451643Y-16408071D01*
X13465928Y-16436643D01*
X13480214Y-16450929D01*
X13508786Y-16465214D01*
X13565928Y-16465214D01*
X13594500Y-16450929D01*
X13608786Y-16436643D01*
X13623071Y-16408071D01*
X13623071Y-16350929D01*
X13608786Y-16322357D01*
X13594500Y-16308071D01*
X13565928Y-16293786D01*
X13980214Y-16465214D02*
X13980214Y-16165214D01*
X14108786Y-16465214D02*
X14108786Y-16308071D01*
X14094500Y-16279500D01*
X14065928Y-16265214D01*
X14023071Y-16265214D01*
X13994500Y-16279500D01*
X13980214Y-16293786D01*
X14294500Y-16465214D02*
X14265928Y-16450929D01*
X14251643Y-16436643D01*
X14237357Y-16408071D01*
X14237357Y-16322357D01*
X14251643Y-16293786D01*
X14265928Y-16279500D01*
X14294500Y-16265214D01*
X14337357Y-16265214D01*
X14365928Y-16279500D01*
X14380214Y-16293786D01*
X14394500Y-16322357D01*
X14394500Y-16408071D01*
X14380214Y-16436643D01*
X14365928Y-16450929D01*
X14337357Y-16465214D01*
X14294500Y-16465214D01*
X14565928Y-16465214D02*
X14537357Y-16450929D01*
X14523071Y-16422357D01*
X14523071Y-16165214D01*
X14794500Y-16450929D02*
X14765928Y-16465214D01*
X14708786Y-16465214D01*
X14680214Y-16450929D01*
X14665928Y-16422357D01*
X14665928Y-16308071D01*
X14680214Y-16279500D01*
X14708786Y-16265214D01*
X14765928Y-16265214D01*
X14794500Y-16279500D01*
X14808786Y-16308071D01*
X14808786Y-16336643D01*
X14665928Y-16365214D01*
X14923071Y-16450929D02*
X14951643Y-16465214D01*
X15008786Y-16465214D01*
X15037357Y-16450929D01*
X15051643Y-16422357D01*
X15051643Y-16408071D01*
X15037357Y-16379500D01*
X15008786Y-16365214D01*
X14965928Y-16365214D01*
X14937357Y-16350929D01*
X14923071Y-16322357D01*
X14923071Y-16308071D01*
X14937357Y-16279500D01*
X14965928Y-16265214D01*
X15008786Y-16265214D01*
X15037357Y-16279500D01*
X15151643Y-16579500D02*
X15165928Y-16565214D01*
X15194500Y-16522357D01*
X15208786Y-16493786D01*
X15223071Y-16450929D01*
X15237357Y-16379500D01*
X15237357Y-16322357D01*
X15223071Y-16250929D01*
X15208786Y-16208071D01*
X15194500Y-16179500D01*
X15165928Y-16136643D01*
X15151643Y-16122357D01*
X8379500Y-16725500D02*
G75*
G03*
X8379500Y-16725500I-37500J0D01*
G01*
X8723071Y-16561214D02*
X8751643Y-16561214D01*
X8780214Y-16575500D01*
X8794500Y-16589786D01*
X8808786Y-16618357D01*
X8823071Y-16675500D01*
X8823071Y-16746929D01*
X8808786Y-16804072D01*
X8794500Y-16832643D01*
X8780214Y-16846929D01*
X8751643Y-16861214D01*
X8723071Y-16861214D01*
X8694500Y-16846929D01*
X8680214Y-16832643D01*
X8665928Y-16804072D01*
X8651643Y-16746929D01*
X8651643Y-16675500D01*
X8665928Y-16618357D01*
X8680214Y-16589786D01*
X8694500Y-16575500D01*
X8723071Y-16561214D01*
X8951643Y-16832643D02*
X8965928Y-16846929D01*
X8951643Y-16861214D01*
X8937357Y-16846929D01*
X8951643Y-16832643D01*
X8951643Y-16861214D01*
X9065928Y-16561214D02*
X9265928Y-16561214D01*
X9137357Y-16861214D01*
X9523071Y-16561214D02*
X9380214Y-16561214D01*
X9365928Y-16704071D01*
X9380214Y-16689786D01*
X9408786Y-16675500D01*
X9480214Y-16675500D01*
X9508786Y-16689786D01*
X9523071Y-16704071D01*
X9537357Y-16732643D01*
X9537357Y-16804072D01*
X9523071Y-16832643D01*
X9508786Y-16846929D01*
X9480214Y-16861214D01*
X9408786Y-16861214D01*
X9380214Y-16846929D01*
X9365928Y-16832643D01*
X9665928Y-16861214D02*
X9665928Y-16661214D01*
X9665928Y-16689786D02*
X9680214Y-16675500D01*
X9708786Y-16661214D01*
X9751643Y-16661214D01*
X9780214Y-16675500D01*
X9794500Y-16704071D01*
X9794500Y-16861214D01*
X9794500Y-16704071D02*
X9808786Y-16675500D01*
X9837357Y-16661214D01*
X9880214Y-16661214D01*
X9908786Y-16675500D01*
X9923071Y-16704071D01*
X9923071Y-16861214D01*
X10065928Y-16861214D02*
X10065928Y-16661214D01*
X10065928Y-16689786D02*
X10080214Y-16675500D01*
X10108786Y-16661214D01*
X10151643Y-16661214D01*
X10180214Y-16675500D01*
X10194500Y-16704071D01*
X10194500Y-16861214D01*
X10194500Y-16704071D02*
X10208786Y-16675500D01*
X10237357Y-16661214D01*
X10280214Y-16661214D01*
X10308786Y-16675500D01*
X10323071Y-16704071D01*
X10323071Y-16861214D01*
X10908786Y-16546929D02*
X10651643Y-16932643D01*
X11294500Y-16561214D02*
X11323071Y-16561214D01*
X11351643Y-16575500D01*
X11365928Y-16589786D01*
X11380214Y-16618357D01*
X11394500Y-16675500D01*
X11394500Y-16746929D01*
X11380214Y-16804072D01*
X11365928Y-16832643D01*
X11351643Y-16846929D01*
X11323071Y-16861214D01*
X11294500Y-16861214D01*
X11265928Y-16846929D01*
X11251643Y-16832643D01*
X11237357Y-16804072D01*
X11223071Y-16746929D01*
X11223071Y-16675500D01*
X11237357Y-16618357D01*
X11251643Y-16589786D01*
X11265928Y-16575500D01*
X11294500Y-16561214D01*
X11523071Y-16832643D02*
X11537357Y-16846929D01*
X11523071Y-16861214D01*
X11508786Y-16846929D01*
X11523071Y-16832643D01*
X11523071Y-16861214D01*
X11723071Y-16561214D02*
X11751643Y-16561214D01*
X11780214Y-16575500D01*
X11794500Y-16589786D01*
X11808786Y-16618357D01*
X11823071Y-16675500D01*
X11823071Y-16746929D01*
X11808786Y-16804072D01*
X11794500Y-16832643D01*
X11780214Y-16846929D01*
X11751643Y-16861214D01*
X11723071Y-16861214D01*
X11694500Y-16846929D01*
X11680214Y-16832643D01*
X11665928Y-16804072D01*
X11651643Y-16746929D01*
X11651643Y-16675500D01*
X11665928Y-16618357D01*
X11680214Y-16589786D01*
X11694500Y-16575500D01*
X11723071Y-16561214D01*
X11923071Y-16561214D02*
X12108786Y-16561214D01*
X12008786Y-16675500D01*
X12051643Y-16675500D01*
X12080214Y-16689786D01*
X12094500Y-16704071D01*
X12108786Y-16732643D01*
X12108786Y-16804072D01*
X12094500Y-16832643D01*
X12080214Y-16846929D01*
X12051643Y-16861214D01*
X11965928Y-16861214D01*
X11937357Y-16846929D01*
X11923071Y-16832643D01*
X12294500Y-16561214D02*
X12323071Y-16561214D01*
X12351643Y-16575500D01*
X12365928Y-16589786D01*
X12380214Y-16618357D01*
X12394500Y-16675500D01*
X12394500Y-16746929D01*
X12380214Y-16804072D01*
X12365928Y-16832643D01*
X12351643Y-16846929D01*
X12323071Y-16861214D01*
X12294500Y-16861214D01*
X12265928Y-16846929D01*
X12251643Y-16832643D01*
X12237357Y-16804072D01*
X12223071Y-16746929D01*
X12223071Y-16675500D01*
X12237357Y-16618357D01*
X12251643Y-16589786D01*
X12265928Y-16575500D01*
X12294500Y-16561214D01*
X12508786Y-16561214D02*
X12508786Y-16618357D01*
X12623071Y-16561214D02*
X12623071Y-16618357D01*
X13065928Y-16975500D02*
X13051643Y-16961214D01*
X13023071Y-16918357D01*
X13008786Y-16889786D01*
X12994500Y-16846929D01*
X12980214Y-16775500D01*
X12980214Y-16718357D01*
X12994500Y-16646929D01*
X13008786Y-16604071D01*
X13023071Y-16575500D01*
X13051643Y-16532643D01*
X13065928Y-16518357D01*
X13151643Y-16561214D02*
X13337357Y-16561214D01*
X13237357Y-16675500D01*
X13280214Y-16675500D01*
X13308786Y-16689786D01*
X13323071Y-16704071D01*
X13337357Y-16732643D01*
X13337357Y-16804072D01*
X13323071Y-16832643D01*
X13308786Y-16846929D01*
X13280214Y-16861214D01*
X13194500Y-16861214D01*
X13165928Y-16846929D01*
X13151643Y-16832643D01*
X13694500Y-16861214D02*
X13694500Y-16561214D01*
X13823071Y-16861214D02*
X13823071Y-16704071D01*
X13808786Y-16675500D01*
X13780214Y-16661214D01*
X13737357Y-16661214D01*
X13708786Y-16675500D01*
X13694500Y-16689786D01*
X14008786Y-16861214D02*
X13980214Y-16846929D01*
X13965928Y-16832643D01*
X13951643Y-16804072D01*
X13951643Y-16718357D01*
X13965928Y-16689786D01*
X13980214Y-16675500D01*
X14008786Y-16661214D01*
X14051643Y-16661214D01*
X14080214Y-16675500D01*
X14094500Y-16689786D01*
X14108786Y-16718357D01*
X14108786Y-16804072D01*
X14094500Y-16832643D01*
X14080214Y-16846929D01*
X14051643Y-16861214D01*
X14008786Y-16861214D01*
X14280214Y-16861214D02*
X14251643Y-16846929D01*
X14237357Y-16818357D01*
X14237357Y-16561214D01*
X14508786Y-16846929D02*
X14480214Y-16861214D01*
X14423071Y-16861214D01*
X14394500Y-16846929D01*
X14380214Y-16818357D01*
X14380214Y-16704071D01*
X14394500Y-16675500D01*
X14423071Y-16661214D01*
X14480214Y-16661214D01*
X14508786Y-16675500D01*
X14523071Y-16704071D01*
X14523071Y-16732643D01*
X14380214Y-16761214D01*
X14637357Y-16846929D02*
X14665928Y-16861214D01*
X14723071Y-16861214D01*
X14751643Y-16846929D01*
X14765928Y-16818357D01*
X14765928Y-16804072D01*
X14751643Y-16775500D01*
X14723071Y-16761214D01*
X14680214Y-16761214D01*
X14651643Y-16746929D01*
X14637357Y-16718357D01*
X14637357Y-16704071D01*
X14651643Y-16675500D01*
X14680214Y-16661214D01*
X14723071Y-16661214D01*
X14751643Y-16675500D01*
X14865928Y-16975500D02*
X14880214Y-16961214D01*
X14908786Y-16918357D01*
X14923071Y-16889786D01*
X14937357Y-16846929D01*
X14951643Y-16775500D01*
X14951643Y-16718357D01*
X14937357Y-16646929D01*
X14923071Y-16604071D01*
X14908786Y-16575500D01*
X14880214Y-16532643D01*
X14865928Y-16518357D01*
X8339500Y-17081500D02*
X8339500Y-17161500D01*
X8299500Y-17121500D02*
X8379500Y-17121500D01*
X8723071Y-16957214D02*
X8751643Y-16957214D01*
X8780214Y-16971500D01*
X8794500Y-16985786D01*
X8808786Y-17014357D01*
X8823071Y-17071500D01*
X8823071Y-17142929D01*
X8808786Y-17200072D01*
X8794500Y-17228643D01*
X8780214Y-17242929D01*
X8751643Y-17257214D01*
X8723071Y-17257214D01*
X8694500Y-17242929D01*
X8680214Y-17228643D01*
X8665928Y-17200072D01*
X8651643Y-17142929D01*
X8651643Y-17071500D01*
X8665928Y-17014357D01*
X8680214Y-16985786D01*
X8694500Y-16971500D01*
X8723071Y-16957214D01*
X8951643Y-17228643D02*
X8965928Y-17242929D01*
X8951643Y-17257214D01*
X8937357Y-17242929D01*
X8951643Y-17228643D01*
X8951643Y-17257214D01*
X9137357Y-17085786D02*
X9108786Y-17071500D01*
X9094500Y-17057214D01*
X9080214Y-17028643D01*
X9080214Y-17014357D01*
X9094500Y-16985786D01*
X9108786Y-16971500D01*
X9137357Y-16957214D01*
X9194500Y-16957214D01*
X9223071Y-16971500D01*
X9237357Y-16985786D01*
X9251643Y-17014357D01*
X9251643Y-17028643D01*
X9237357Y-17057214D01*
X9223071Y-17071500D01*
X9194500Y-17085786D01*
X9137357Y-17085786D01*
X9108786Y-17100072D01*
X9094500Y-17114357D01*
X9080214Y-17142929D01*
X9080214Y-17200072D01*
X9094500Y-17228643D01*
X9108786Y-17242929D01*
X9137357Y-17257214D01*
X9194500Y-17257214D01*
X9223071Y-17242929D01*
X9237357Y-17228643D01*
X9251643Y-17200072D01*
X9251643Y-17142929D01*
X9237357Y-17114357D01*
X9223071Y-17100072D01*
X9194500Y-17085786D01*
X9437357Y-16957214D02*
X9465928Y-16957214D01*
X9494500Y-16971500D01*
X9508786Y-16985786D01*
X9523071Y-17014357D01*
X9537357Y-17071500D01*
X9537357Y-17142929D01*
X9523071Y-17200072D01*
X9508786Y-17228643D01*
X9494500Y-17242929D01*
X9465928Y-17257214D01*
X9437357Y-17257214D01*
X9408786Y-17242929D01*
X9394500Y-17228643D01*
X9380214Y-17200072D01*
X9365928Y-17142929D01*
X9365928Y-17071500D01*
X9380214Y-17014357D01*
X9394500Y-16985786D01*
X9408786Y-16971500D01*
X9437357Y-16957214D01*
X9665928Y-17257214D02*
X9665928Y-17057214D01*
X9665928Y-17085786D02*
X9680214Y-17071500D01*
X9708786Y-17057214D01*
X9751643Y-17057214D01*
X9780214Y-17071500D01*
X9794500Y-17100072D01*
X9794500Y-17257214D01*
X9794500Y-17100072D02*
X9808786Y-17071500D01*
X9837357Y-17057214D01*
X9880214Y-17057214D01*
X9908786Y-17071500D01*
X9923071Y-17100072D01*
X9923071Y-17257214D01*
X10065928Y-17257214D02*
X10065928Y-17057214D01*
X10065928Y-17085786D02*
X10080214Y-17071500D01*
X10108786Y-17057214D01*
X10151643Y-17057214D01*
X10180214Y-17071500D01*
X10194500Y-17100072D01*
X10194500Y-17257214D01*
X10194500Y-17100072D02*
X10208786Y-17071500D01*
X10237357Y-17057214D01*
X10280214Y-17057214D01*
X10308786Y-17071500D01*
X10323071Y-17100072D01*
X10323071Y-17257214D01*
X10908786Y-16942929D02*
X10651643Y-17328643D01*
X11294500Y-16957214D02*
X11323071Y-16957214D01*
X11351643Y-16971500D01*
X11365928Y-16985786D01*
X11380214Y-17014357D01*
X11394500Y-17071500D01*
X11394500Y-17142929D01*
X11380214Y-17200072D01*
X11365928Y-17228643D01*
X11351643Y-17242929D01*
X11323071Y-17257214D01*
X11294500Y-17257214D01*
X11265928Y-17242929D01*
X11251643Y-17228643D01*
X11237357Y-17200072D01*
X11223071Y-17142929D01*
X11223071Y-17071500D01*
X11237357Y-17014357D01*
X11251643Y-16985786D01*
X11265928Y-16971500D01*
X11294500Y-16957214D01*
X11523071Y-17228643D02*
X11537357Y-17242929D01*
X11523071Y-17257214D01*
X11508786Y-17242929D01*
X11523071Y-17228643D01*
X11523071Y-17257214D01*
X11723071Y-16957214D02*
X11751643Y-16957214D01*
X11780214Y-16971500D01*
X11794500Y-16985786D01*
X11808786Y-17014357D01*
X11823071Y-17071500D01*
X11823071Y-17142929D01*
X11808786Y-17200072D01*
X11794500Y-17228643D01*
X11780214Y-17242929D01*
X11751643Y-17257214D01*
X11723071Y-17257214D01*
X11694500Y-17242929D01*
X11680214Y-17228643D01*
X11665928Y-17200072D01*
X11651643Y-17142929D01*
X11651643Y-17071500D01*
X11665928Y-17014357D01*
X11680214Y-16985786D01*
X11694500Y-16971500D01*
X11723071Y-16957214D01*
X11923071Y-16957214D02*
X12108786Y-16957214D01*
X12008786Y-17071500D01*
X12051643Y-17071500D01*
X12080214Y-17085786D01*
X12094500Y-17100072D01*
X12108786Y-17128643D01*
X12108786Y-17200072D01*
X12094500Y-17228643D01*
X12080214Y-17242929D01*
X12051643Y-17257214D01*
X11965928Y-17257214D01*
X11937357Y-17242929D01*
X11923071Y-17228643D01*
X12394500Y-17257214D02*
X12223071Y-17257214D01*
X12308786Y-17257214D02*
X12308786Y-16957214D01*
X12280214Y-17000072D01*
X12251643Y-17028643D01*
X12223071Y-17042929D01*
X12508786Y-16957214D02*
X12508786Y-17014357D01*
X12623071Y-16957214D02*
X12623071Y-17014357D01*
X13065928Y-17371500D02*
X13051643Y-17357214D01*
X13023071Y-17314357D01*
X13008786Y-17285786D01*
X12994500Y-17242929D01*
X12980214Y-17171500D01*
X12980214Y-17114357D01*
X12994500Y-17042929D01*
X13008786Y-17000072D01*
X13023071Y-16971500D01*
X13051643Y-16928643D01*
X13065928Y-16914357D01*
X13337357Y-17257214D02*
X13165928Y-17257214D01*
X13251643Y-17257214D02*
X13251643Y-16957214D01*
X13223071Y-17000072D01*
X13194500Y-17028643D01*
X13165928Y-17042929D01*
X13480214Y-17257214D02*
X13537357Y-17257214D01*
X13565928Y-17242929D01*
X13580214Y-17228643D01*
X13608786Y-17185786D01*
X13623071Y-17128643D01*
X13623071Y-17014357D01*
X13608786Y-16985786D01*
X13594500Y-16971500D01*
X13565928Y-16957214D01*
X13508786Y-16957214D01*
X13480214Y-16971500D01*
X13465928Y-16985786D01*
X13451643Y-17014357D01*
X13451643Y-17085786D01*
X13465928Y-17114357D01*
X13480214Y-17128643D01*
X13508786Y-17142929D01*
X13565928Y-17142929D01*
X13594500Y-17128643D01*
X13608786Y-17114357D01*
X13623071Y-17085786D01*
X13908786Y-17257214D02*
X13737357Y-17257214D01*
X13823071Y-17257214D02*
X13823071Y-16957214D01*
X13794500Y-17000072D01*
X13765928Y-17028643D01*
X13737357Y-17042929D01*
X14265928Y-17257214D02*
X14265928Y-16957214D01*
X14394500Y-17257214D02*
X14394500Y-17100072D01*
X14380214Y-17071500D01*
X14351643Y-17057214D01*
X14308786Y-17057214D01*
X14280214Y-17071500D01*
X14265928Y-17085786D01*
X14580214Y-17257214D02*
X14551643Y-17242929D01*
X14537357Y-17228643D01*
X14523071Y-17200072D01*
X14523071Y-17114357D01*
X14537357Y-17085786D01*
X14551643Y-17071500D01*
X14580214Y-17057214D01*
X14623071Y-17057214D01*
X14651643Y-17071500D01*
X14665928Y-17085786D01*
X14680214Y-17114357D01*
X14680214Y-17200072D01*
X14665928Y-17228643D01*
X14651643Y-17242929D01*
X14623071Y-17257214D01*
X14580214Y-17257214D01*
X14851643Y-17257214D02*
X14823071Y-17242929D01*
X14808786Y-17214357D01*
X14808786Y-16957214D01*
X15080214Y-17242929D02*
X15051643Y-17257214D01*
X14994500Y-17257214D01*
X14965928Y-17242929D01*
X14951643Y-17214357D01*
X14951643Y-17100072D01*
X14965928Y-17071500D01*
X14994500Y-17057214D01*
X15051643Y-17057214D01*
X15080214Y-17071500D01*
X15094500Y-17100072D01*
X15094500Y-17128643D01*
X14951643Y-17157214D01*
X15208786Y-17242929D02*
X15237357Y-17257214D01*
X15294500Y-17257214D01*
X15323071Y-17242929D01*
X15337357Y-17214357D01*
X15337357Y-17200072D01*
X15323071Y-17171500D01*
X15294500Y-17157214D01*
X15251643Y-17157214D01*
X15223071Y-17142929D01*
X15208786Y-17114357D01*
X15208786Y-17100072D01*
X15223071Y-17071500D01*
X15251643Y-17057214D01*
X15294500Y-17057214D01*
X15323071Y-17071500D01*
X15437357Y-17371500D02*
X15451643Y-17357214D01*
X15480214Y-17314357D01*
X15494500Y-17285786D01*
X15508786Y-17242929D01*
X15523071Y-17171500D01*
X15523071Y-17114357D01*
X15508786Y-17042929D01*
X15494500Y-17000072D01*
X15480214Y-16971500D01*
X15451643Y-16928643D01*
X15437357Y-16914357D01*
X8364856Y-17552856D02*
X8364856Y-17482144D01*
X8294144Y-17482144D01*
X8294144Y-17552856D01*
X8364856Y-17552856D01*
X8823071Y-17653214D02*
X8651643Y-17653214D01*
X8737357Y-17653214D02*
X8737357Y-17353214D01*
X8708786Y-17396072D01*
X8680214Y-17424643D01*
X8651643Y-17438929D01*
X8951643Y-17624643D02*
X8965928Y-17638929D01*
X8951643Y-17653214D01*
X8937357Y-17638929D01*
X8951643Y-17624643D01*
X8951643Y-17653214D01*
X9151643Y-17353214D02*
X9180214Y-17353214D01*
X9208786Y-17367500D01*
X9223071Y-17381786D01*
X9237357Y-17410357D01*
X9251643Y-17467500D01*
X9251643Y-17538929D01*
X9237357Y-17596072D01*
X9223071Y-17624643D01*
X9208786Y-17638929D01*
X9180214Y-17653214D01*
X9151643Y-17653214D01*
X9123071Y-17638929D01*
X9108786Y-17624643D01*
X9094500Y-17596072D01*
X9080214Y-17538929D01*
X9080214Y-17467500D01*
X9094500Y-17410357D01*
X9108786Y-17381786D01*
X9123071Y-17367500D01*
X9151643Y-17353214D01*
X9437357Y-17353214D02*
X9465928Y-17353214D01*
X9494500Y-17367500D01*
X9508786Y-17381786D01*
X9523071Y-17410357D01*
X9537357Y-17467500D01*
X9537357Y-17538929D01*
X9523071Y-17596072D01*
X9508786Y-17624643D01*
X9494500Y-17638929D01*
X9465928Y-17653214D01*
X9437357Y-17653214D01*
X9408786Y-17638929D01*
X9394500Y-17624643D01*
X9380214Y-17596072D01*
X9365928Y-17538929D01*
X9365928Y-17467500D01*
X9380214Y-17410357D01*
X9394500Y-17381786D01*
X9408786Y-17367500D01*
X9437357Y-17353214D01*
X9665928Y-17653214D02*
X9665928Y-17453214D01*
X9665928Y-17481786D02*
X9680214Y-17467500D01*
X9708786Y-17453214D01*
X9751643Y-17453214D01*
X9780214Y-17467500D01*
X9794500Y-17496072D01*
X9794500Y-17653214D01*
X9794500Y-17496072D02*
X9808786Y-17467500D01*
X9837357Y-17453214D01*
X9880214Y-17453214D01*
X9908786Y-17467500D01*
X9923071Y-17496072D01*
X9923071Y-17653214D01*
X10065928Y-17653214D02*
X10065928Y-17453214D01*
X10065928Y-17481786D02*
X10080214Y-17467500D01*
X10108786Y-17453214D01*
X10151643Y-17453214D01*
X10180214Y-17467500D01*
X10194500Y-17496072D01*
X10194500Y-17653214D01*
X10194500Y-17496072D02*
X10208786Y-17467500D01*
X10237357Y-17453214D01*
X10280214Y-17453214D01*
X10308786Y-17467500D01*
X10323071Y-17496072D01*
X10323071Y-17653214D01*
X10908786Y-17338929D02*
X10651643Y-17724643D01*
X11294500Y-17353214D02*
X11323071Y-17353214D01*
X11351643Y-17367500D01*
X11365928Y-17381786D01*
X11380214Y-17410357D01*
X11394500Y-17467500D01*
X11394500Y-17538929D01*
X11380214Y-17596072D01*
X11365928Y-17624643D01*
X11351643Y-17638929D01*
X11323071Y-17653214D01*
X11294500Y-17653214D01*
X11265928Y-17638929D01*
X11251643Y-17624643D01*
X11237357Y-17596072D01*
X11223071Y-17538929D01*
X11223071Y-17467500D01*
X11237357Y-17410357D01*
X11251643Y-17381786D01*
X11265928Y-17367500D01*
X11294500Y-17353214D01*
X11523071Y-17624643D02*
X11537357Y-17638929D01*
X11523071Y-17653214D01*
X11508786Y-17638929D01*
X11523071Y-17624643D01*
X11523071Y-17653214D01*
X11723071Y-17353214D02*
X11751643Y-17353214D01*
X11780214Y-17367500D01*
X11794500Y-17381786D01*
X11808786Y-17410357D01*
X11823071Y-17467500D01*
X11823071Y-17538929D01*
X11808786Y-17596072D01*
X11794500Y-17624643D01*
X11780214Y-17638929D01*
X11751643Y-17653214D01*
X11723071Y-17653214D01*
X11694500Y-17638929D01*
X11680214Y-17624643D01*
X11665928Y-17596072D01*
X11651643Y-17538929D01*
X11651643Y-17467500D01*
X11665928Y-17410357D01*
X11680214Y-17381786D01*
X11694500Y-17367500D01*
X11723071Y-17353214D01*
X11923071Y-17353214D02*
X12108786Y-17353214D01*
X12008786Y-17467500D01*
X12051643Y-17467500D01*
X12080214Y-17481786D01*
X12094500Y-17496072D01*
X12108786Y-17524643D01*
X12108786Y-17596072D01*
X12094500Y-17624643D01*
X12080214Y-17638929D01*
X12051643Y-17653214D01*
X11965928Y-17653214D01*
X11937357Y-17638929D01*
X11923071Y-17624643D01*
X12251643Y-17653214D02*
X12308786Y-17653214D01*
X12337357Y-17638929D01*
X12351643Y-17624643D01*
X12380214Y-17581786D01*
X12394500Y-17524643D01*
X12394500Y-17410357D01*
X12380214Y-17381786D01*
X12365928Y-17367500D01*
X12337357Y-17353214D01*
X12280214Y-17353214D01*
X12251643Y-17367500D01*
X12237357Y-17381786D01*
X12223071Y-17410357D01*
X12223071Y-17481786D01*
X12237357Y-17510357D01*
X12251643Y-17524643D01*
X12280214Y-17538929D01*
X12337357Y-17538929D01*
X12365928Y-17524643D01*
X12380214Y-17510357D01*
X12394500Y-17481786D01*
X12508786Y-17353214D02*
X12508786Y-17410357D01*
X12623071Y-17353214D02*
X12623071Y-17410357D01*
X13065928Y-17767500D02*
X13051643Y-17753214D01*
X13023071Y-17710357D01*
X13008786Y-17681786D01*
X12994500Y-17638929D01*
X12980214Y-17567500D01*
X12980214Y-17510357D01*
X12994500Y-17438929D01*
X13008786Y-17396072D01*
X13023071Y-17367500D01*
X13051643Y-17324643D01*
X13065928Y-17310357D01*
X13165928Y-17381786D02*
X13180214Y-17367500D01*
X13208786Y-17353214D01*
X13280214Y-17353214D01*
X13308786Y-17367500D01*
X13323071Y-17381786D01*
X13337357Y-17410357D01*
X13337357Y-17438929D01*
X13323071Y-17481786D01*
X13151643Y-17653214D01*
X13337357Y-17653214D01*
X13694500Y-17653214D02*
X13694500Y-17353214D01*
X13823071Y-17653214D02*
X13823071Y-17496072D01*
X13808786Y-17467500D01*
X13780214Y-17453214D01*
X13737357Y-17453214D01*
X13708786Y-17467500D01*
X13694500Y-17481786D01*
X14008786Y-17653214D02*
X13980214Y-17638929D01*
X13965928Y-17624643D01*
X13951643Y-17596072D01*
X13951643Y-17510357D01*
X13965928Y-17481786D01*
X13980214Y-17467500D01*
X14008786Y-17453214D01*
X14051643Y-17453214D01*
X14080214Y-17467500D01*
X14094500Y-17481786D01*
X14108786Y-17510357D01*
X14108786Y-17596072D01*
X14094500Y-17624643D01*
X14080214Y-17638929D01*
X14051643Y-17653214D01*
X14008786Y-17653214D01*
X14280214Y-17653214D02*
X14251643Y-17638929D01*
X14237357Y-17610357D01*
X14237357Y-17353214D01*
X14508786Y-17638929D02*
X14480214Y-17653214D01*
X14423071Y-17653214D01*
X14394500Y-17638929D01*
X14380214Y-17610357D01*
X14380214Y-17496072D01*
X14394500Y-17467500D01*
X14423071Y-17453214D01*
X14480214Y-17453214D01*
X14508786Y-17467500D01*
X14523071Y-17496072D01*
X14523071Y-17524643D01*
X14380214Y-17553214D01*
X14637357Y-17638929D02*
X14665928Y-17653214D01*
X14723071Y-17653214D01*
X14751643Y-17638929D01*
X14765928Y-17610357D01*
X14765928Y-17596072D01*
X14751643Y-17567500D01*
X14723071Y-17553214D01*
X14680214Y-17553214D01*
X14651643Y-17538929D01*
X14637357Y-17510357D01*
X14637357Y-17496072D01*
X14651643Y-17467500D01*
X14680214Y-17453214D01*
X14723071Y-17453214D01*
X14751643Y-17467500D01*
X14865928Y-17767500D02*
X14880214Y-17753214D01*
X14908786Y-17710357D01*
X14923071Y-17681786D01*
X14937357Y-17638929D01*
X14951643Y-17567500D01*
X14951643Y-17510357D01*
X14937357Y-17438929D01*
X14923071Y-17396072D01*
X14908786Y-17367500D01*
X14880214Y-17324643D01*
X14865928Y-17310357D01*
X8219500Y-18073500D02*
X8379500Y-17913500D01*
X8219500Y-17753500D01*
X8059500Y-17913500D01*
X8219500Y-18073500D01*
X8637357Y-17749214D02*
X8823071Y-17749214D01*
X8723071Y-17863500D01*
X8765928Y-17863500D01*
X8794500Y-17877786D01*
X8808786Y-17892072D01*
X8823071Y-17920643D01*
X8823071Y-17992072D01*
X8808786Y-18020643D01*
X8794500Y-18034929D01*
X8765928Y-18049214D01*
X8680214Y-18049214D01*
X8651643Y-18034929D01*
X8637357Y-18020643D01*
X8951643Y-18020643D02*
X8965928Y-18034929D01*
X8951643Y-18049214D01*
X8937357Y-18034929D01*
X8951643Y-18020643D01*
X8951643Y-18049214D01*
X9080214Y-17777786D02*
X9094500Y-17763500D01*
X9123071Y-17749214D01*
X9194500Y-17749214D01*
X9223071Y-17763500D01*
X9237357Y-17777786D01*
X9251643Y-17806357D01*
X9251643Y-17834929D01*
X9237357Y-17877786D01*
X9065928Y-18049214D01*
X9251643Y-18049214D01*
X9437357Y-17749214D02*
X9465928Y-17749214D01*
X9494500Y-17763500D01*
X9508786Y-17777786D01*
X9523071Y-17806357D01*
X9537357Y-17863500D01*
X9537357Y-17934929D01*
X9523071Y-17992072D01*
X9508786Y-18020643D01*
X9494500Y-18034929D01*
X9465928Y-18049214D01*
X9437357Y-18049214D01*
X9408786Y-18034929D01*
X9394500Y-18020643D01*
X9380214Y-17992072D01*
X9365928Y-17934929D01*
X9365928Y-17863500D01*
X9380214Y-17806357D01*
X9394500Y-17777786D01*
X9408786Y-17763500D01*
X9437357Y-17749214D01*
X9665928Y-18049214D02*
X9665928Y-17849214D01*
X9665928Y-17877786D02*
X9680214Y-17863500D01*
X9708786Y-17849214D01*
X9751643Y-17849214D01*
X9780214Y-17863500D01*
X9794500Y-17892072D01*
X9794500Y-18049214D01*
X9794500Y-17892072D02*
X9808786Y-17863500D01*
X9837357Y-17849214D01*
X9880214Y-17849214D01*
X9908786Y-17863500D01*
X9923071Y-17892072D01*
X9923071Y-18049214D01*
X10065928Y-18049214D02*
X10065928Y-17849214D01*
X10065928Y-17877786D02*
X10080214Y-17863500D01*
X10108786Y-17849214D01*
X10151643Y-17849214D01*
X10180214Y-17863500D01*
X10194500Y-17892072D01*
X10194500Y-18049214D01*
X10194500Y-17892072D02*
X10208786Y-17863500D01*
X10237357Y-17849214D01*
X10280214Y-17849214D01*
X10308786Y-17863500D01*
X10323071Y-17892072D01*
X10323071Y-18049214D01*
X10908786Y-17734929D02*
X10651643Y-18120643D01*
X11294500Y-17749214D02*
X11323071Y-17749214D01*
X11351643Y-17763500D01*
X11365928Y-17777786D01*
X11380214Y-17806357D01*
X11394500Y-17863500D01*
X11394500Y-17934929D01*
X11380214Y-17992072D01*
X11365928Y-18020643D01*
X11351643Y-18034929D01*
X11323071Y-18049214D01*
X11294500Y-18049214D01*
X11265928Y-18034929D01*
X11251643Y-18020643D01*
X11237357Y-17992072D01*
X11223071Y-17934929D01*
X11223071Y-17863500D01*
X11237357Y-17806357D01*
X11251643Y-17777786D01*
X11265928Y-17763500D01*
X11294500Y-17749214D01*
X11523071Y-18020643D02*
X11537357Y-18034929D01*
X11523071Y-18049214D01*
X11508786Y-18034929D01*
X11523071Y-18020643D01*
X11523071Y-18049214D01*
X11823071Y-18049214D02*
X11651643Y-18049214D01*
X11737357Y-18049214D02*
X11737357Y-17749214D01*
X11708786Y-17792072D01*
X11680214Y-17820643D01*
X11651643Y-17834929D01*
X11937357Y-17777786D02*
X11951643Y-17763500D01*
X11980214Y-17749214D01*
X12051643Y-17749214D01*
X12080214Y-17763500D01*
X12094500Y-17777786D01*
X12108786Y-17806357D01*
X12108786Y-17834929D01*
X12094500Y-17877786D01*
X11923071Y-18049214D01*
X12108786Y-18049214D01*
X12365928Y-17749214D02*
X12308786Y-17749214D01*
X12280214Y-17763500D01*
X12265928Y-17777786D01*
X12237357Y-17820643D01*
X12223071Y-17877786D01*
X12223071Y-17992072D01*
X12237357Y-18020643D01*
X12251643Y-18034929D01*
X12280214Y-18049214D01*
X12337357Y-18049214D01*
X12365928Y-18034929D01*
X12380214Y-18020643D01*
X12394500Y-17992072D01*
X12394500Y-17920643D01*
X12380214Y-17892072D01*
X12365928Y-17877786D01*
X12337357Y-17863500D01*
X12280214Y-17863500D01*
X12251643Y-17877786D01*
X12237357Y-17892072D01*
X12223071Y-17920643D01*
X12508786Y-17749214D02*
X12508786Y-17806357D01*
X12623071Y-17749214D02*
X12623071Y-17806357D01*
X13065928Y-18163500D02*
X13051643Y-18149214D01*
X13023071Y-18106357D01*
X13008786Y-18077786D01*
X12994500Y-18034929D01*
X12980214Y-17963500D01*
X12980214Y-17906357D01*
X12994500Y-17834929D01*
X13008786Y-17792072D01*
X13023071Y-17763500D01*
X13051643Y-17720643D01*
X13065928Y-17706357D01*
X13165928Y-17777786D02*
X13180214Y-17763500D01*
X13208786Y-17749214D01*
X13280214Y-17749214D01*
X13308786Y-17763500D01*
X13323071Y-17777786D01*
X13337357Y-17806357D01*
X13337357Y-17834929D01*
X13323071Y-17877786D01*
X13151643Y-18049214D01*
X13337357Y-18049214D01*
X13694500Y-18049214D02*
X13694500Y-17749214D01*
X13823071Y-18049214D02*
X13823071Y-17892072D01*
X13808786Y-17863500D01*
X13780214Y-17849214D01*
X13737357Y-17849214D01*
X13708786Y-17863500D01*
X13694500Y-17877786D01*
X14008786Y-18049214D02*
X13980214Y-18034929D01*
X13965928Y-18020643D01*
X13951643Y-17992072D01*
X13951643Y-17906357D01*
X13965928Y-17877786D01*
X13980214Y-17863500D01*
X14008786Y-17849214D01*
X14051643Y-17849214D01*
X14080214Y-17863500D01*
X14094500Y-17877786D01*
X14108786Y-17906357D01*
X14108786Y-17992072D01*
X14094500Y-18020643D01*
X14080214Y-18034929D01*
X14051643Y-18049214D01*
X14008786Y-18049214D01*
X14280214Y-18049214D02*
X14251643Y-18034929D01*
X14237357Y-18006357D01*
X14237357Y-17749214D01*
X14508786Y-18034929D02*
X14480214Y-18049214D01*
X14423071Y-18049214D01*
X14394500Y-18034929D01*
X14380214Y-18006357D01*
X14380214Y-17892072D01*
X14394500Y-17863500D01*
X14423071Y-17849214D01*
X14480214Y-17849214D01*
X14508786Y-17863500D01*
X14523071Y-17892072D01*
X14523071Y-17920643D01*
X14380214Y-17949214D01*
X14637357Y-18034929D02*
X14665928Y-18049214D01*
X14723071Y-18049214D01*
X14751643Y-18034929D01*
X14765928Y-18006357D01*
X14765928Y-17992072D01*
X14751643Y-17963500D01*
X14723071Y-17949214D01*
X14680214Y-17949214D01*
X14651643Y-17934929D01*
X14637357Y-17906357D01*
X14637357Y-17892072D01*
X14651643Y-17863500D01*
X14680214Y-17849214D01*
X14723071Y-17849214D01*
X14751643Y-17863500D01*
X14865928Y-18163500D02*
X14880214Y-18149214D01*
X14908786Y-18106357D01*
X14923071Y-18077786D01*
X14937357Y-18034929D01*
X14951643Y-17963500D01*
X14951643Y-17906357D01*
X14937357Y-17834929D01*
X14923071Y-17792072D01*
X14908786Y-17763500D01*
X14880214Y-17720643D01*
X14865928Y-17706357D01*
M02*
