%TF.GenerationSoftware,KiCad,Pcbnew,(5.1.9-0-10_14)*%
%TF.CreationDate,2022-05-15T13:48:24+02:00*%
%TF.ProjectId,xtsd,78747364-2e6b-4696-9361-645f70636258,rev?*%
%TF.SameCoordinates,Original*%
%TF.FileFunction,Soldermask,Bot*%
%TF.FilePolarity,Negative*%
%FSLAX46Y46*%
G04 Gerber Fmt 4.6, Leading zero omitted, Abs format (unit mm)*
G04 Created by KiCad (PCBNEW (5.1.9-0-10_14)) date 2022-05-15 13:48:24*
%MOMM*%
%LPD*%
G01*
G04 APERTURE LIST*
%ADD10C,0.010000*%
%ADD11O,1.700000X1.700000*%
%ADD12R,1.700000X1.700000*%
%ADD13R,1.780000X7.366000*%
%ADD14O,1.600000X2.400000*%
%ADD15R,1.600000X2.400000*%
%ADD16C,4.000000*%
%ADD17O,1.600000X1.600000*%
%ADD18R,1.600000X1.600000*%
%ADD19C,1.600000*%
%ADD20O,2.400000X1.600000*%
%ADD21R,2.400000X1.600000*%
%ADD22C,0.100000*%
%ADD23R,1.500000X1.500000*%
%ADD24R,1.500000X1.050000*%
%ADD25O,1.500000X1.050000*%
G04 APERTURE END LIST*
D10*
G36*
X83947000Y-146050000D02*
G01*
X164973000Y-146050000D01*
X164973000Y-153670000D01*
X83947000Y-153670000D01*
X83947000Y-146050000D01*
G37*
X83947000Y-146050000D02*
X164973000Y-146050000D01*
X164973000Y-153670000D01*
X83947000Y-153670000D01*
X83947000Y-146050000D01*
D11*
X161290000Y-86360000D03*
D12*
X158750000Y-86360000D03*
D13*
X86360000Y-149733000D03*
X88900000Y-149733000D03*
X91440000Y-149733000D03*
X93980000Y-149733000D03*
X96520000Y-149733000D03*
X99060000Y-149733000D03*
X101600000Y-149733000D03*
X104140000Y-149733000D03*
X106680000Y-149733000D03*
X109220000Y-149733000D03*
X111760000Y-149733000D03*
X114300000Y-149733000D03*
X116840000Y-149733000D03*
X119380000Y-149733000D03*
X121920000Y-149733000D03*
X124460000Y-149733000D03*
X127000000Y-149733000D03*
X129540000Y-149733000D03*
X132080000Y-149733000D03*
X134620000Y-149733000D03*
X137160000Y-149733000D03*
X139700000Y-149733000D03*
X142240000Y-149733000D03*
X144780000Y-149733000D03*
X147320000Y-149733000D03*
X149860000Y-149733000D03*
X152400000Y-149733000D03*
X154940000Y-149733000D03*
X157480000Y-149733000D03*
X160020000Y-149733000D03*
X162560000Y-149733000D03*
D14*
X88900000Y-130810000D03*
X111760000Y-138430000D03*
X91440000Y-130810000D03*
X109220000Y-138430000D03*
X93980000Y-130810000D03*
X106680000Y-138430000D03*
X96520000Y-130810000D03*
X104140000Y-138430000D03*
X99060000Y-130810000D03*
X101600000Y-138430000D03*
X101600000Y-130810000D03*
X99060000Y-138430000D03*
X104140000Y-130810000D03*
X96520000Y-138430000D03*
X106680000Y-130810000D03*
X93980000Y-138430000D03*
X109220000Y-130810000D03*
X91440000Y-138430000D03*
X111760000Y-130810000D03*
D15*
X88900000Y-138430000D03*
D16*
X182956200Y-85273000D03*
X182956200Y-141788000D03*
D14*
X144780000Y-130810000D03*
X162560000Y-138430000D03*
X147320000Y-130810000D03*
X160020000Y-138430000D03*
X149860000Y-130810000D03*
X157480000Y-138430000D03*
X152400000Y-130810000D03*
X154940000Y-138430000D03*
X154940000Y-130810000D03*
X152400000Y-138430000D03*
X157480000Y-130810000D03*
X149860000Y-138430000D03*
X160020000Y-130810000D03*
X147320000Y-138430000D03*
X162560000Y-130810000D03*
D15*
X144780000Y-138430000D03*
D14*
X116840000Y-130810000D03*
X139700000Y-138430000D03*
X119380000Y-130810000D03*
X137160000Y-138430000D03*
X121920000Y-130810000D03*
X134620000Y-138430000D03*
X124460000Y-130810000D03*
X132080000Y-138430000D03*
X127000000Y-130810000D03*
X129540000Y-138430000D03*
X129540000Y-130810000D03*
X127000000Y-138430000D03*
X132080000Y-130810000D03*
X124460000Y-138430000D03*
X134620000Y-130810000D03*
X121920000Y-138430000D03*
X137160000Y-130810000D03*
X119380000Y-138430000D03*
X139700000Y-130810000D03*
D15*
X116840000Y-138430000D03*
D17*
X109220000Y-120650000D03*
X91440000Y-113030000D03*
X106680000Y-120650000D03*
X93980000Y-113030000D03*
X104140000Y-120650000D03*
X96520000Y-113030000D03*
X101600000Y-120650000D03*
X99060000Y-113030000D03*
X99060000Y-120650000D03*
X101600000Y-113030000D03*
X96520000Y-120650000D03*
X104140000Y-113030000D03*
X93980000Y-120650000D03*
X106680000Y-113030000D03*
X91440000Y-120650000D03*
D18*
X109220000Y-113030000D03*
D14*
X127000000Y-102870000D03*
X88900000Y-87630000D03*
X124460000Y-102870000D03*
X91440000Y-87630000D03*
X121920000Y-102870000D03*
X93980000Y-87630000D03*
X119380000Y-102870000D03*
X96520000Y-87630000D03*
X116840000Y-102870000D03*
X99060000Y-87630000D03*
X114300000Y-102870000D03*
X101600000Y-87630000D03*
X111760000Y-102870000D03*
X104140000Y-87630000D03*
X109220000Y-102870000D03*
X106680000Y-87630000D03*
X106680000Y-102870000D03*
X109220000Y-87630000D03*
X104140000Y-102870000D03*
X111760000Y-87630000D03*
X101600000Y-102870000D03*
X114300000Y-87630000D03*
X99060000Y-102870000D03*
X116840000Y-87630000D03*
X96520000Y-102870000D03*
X119380000Y-87630000D03*
X93980000Y-102870000D03*
X121920000Y-87630000D03*
X91440000Y-102870000D03*
X124460000Y-87630000D03*
X88900000Y-102870000D03*
D15*
X127000000Y-87630000D03*
D17*
X183515000Y-120015000D03*
D19*
X183515000Y-127635000D03*
D17*
X179705000Y-120015000D03*
D19*
X179705000Y-127635000D03*
D14*
X116840000Y-113030000D03*
X144780000Y-120650000D03*
X119380000Y-113030000D03*
X142240000Y-120650000D03*
X121920000Y-113030000D03*
X139700000Y-120650000D03*
X124460000Y-113030000D03*
X137160000Y-120650000D03*
X127000000Y-113030000D03*
X134620000Y-120650000D03*
X129540000Y-113030000D03*
X132080000Y-120650000D03*
X132080000Y-113030000D03*
X129540000Y-120650000D03*
X134620000Y-113030000D03*
X127000000Y-120650000D03*
X137160000Y-113030000D03*
X124460000Y-120650000D03*
X139700000Y-113030000D03*
X121920000Y-120650000D03*
X142240000Y-113030000D03*
X119380000Y-120650000D03*
X144780000Y-113030000D03*
D15*
X116840000Y-120650000D03*
D20*
X132080000Y-105410000D03*
X139700000Y-87630000D03*
X132080000Y-102870000D03*
X139700000Y-90170000D03*
X132080000Y-100330000D03*
X139700000Y-92710000D03*
X132080000Y-97790000D03*
X139700000Y-95250000D03*
X132080000Y-95250000D03*
X139700000Y-97790000D03*
X132080000Y-92710000D03*
X139700000Y-100330000D03*
X132080000Y-90170000D03*
X139700000Y-102870000D03*
X132080000Y-87630000D03*
D21*
X139700000Y-105410000D03*
D22*
G36*
X120920000Y-85090000D02*
G01*
X120420000Y-85840000D01*
X119420000Y-85840000D01*
X119420000Y-84340000D01*
X120420000Y-84340000D01*
X120920000Y-85090000D01*
G37*
G36*
X122920000Y-85090000D02*
G01*
X123420000Y-84340000D01*
X124420000Y-84340000D01*
X124420000Y-85840000D01*
X123420000Y-85840000D01*
X122920000Y-85090000D01*
G37*
D23*
X123120000Y-85090000D03*
X120720000Y-85090000D03*
D22*
G36*
X119015000Y-105410000D02*
G01*
X118515000Y-106160000D01*
X117515000Y-106160000D01*
X117515000Y-104660000D01*
X118515000Y-104660000D01*
X119015000Y-105410000D01*
G37*
G36*
X121015000Y-105410000D02*
G01*
X121515000Y-104660000D01*
X122515000Y-104660000D01*
X122515000Y-106160000D01*
X121515000Y-106160000D01*
X121015000Y-105410000D01*
G37*
D23*
X121215000Y-105410000D03*
X118815000Y-105410000D03*
D17*
X151130000Y-105410000D03*
D18*
X143510000Y-105410000D03*
D17*
X151130000Y-102870000D03*
D18*
X143510000Y-102870000D03*
D17*
X151130000Y-99060000D03*
D19*
X143510000Y-99060000D03*
D24*
X182245000Y-132080000D03*
D25*
X182245000Y-134620000D03*
X182245000Y-133350000D03*
D17*
X109220000Y-125730000D03*
X106680000Y-125730000D03*
X104140000Y-125730000D03*
X101600000Y-125730000D03*
X99060000Y-125730000D03*
X96520000Y-125730000D03*
X93980000Y-125730000D03*
X91440000Y-125730000D03*
D18*
X88900000Y-125730000D03*
D19*
X123745000Y-109220000D03*
X118745000Y-109220000D03*
X154305000Y-103505000D03*
X154305000Y-98505000D03*
D20*
X167640000Y-138430000D03*
X175260000Y-120650000D03*
X167640000Y-135890000D03*
X175260000Y-123190000D03*
X167640000Y-133350000D03*
X175260000Y-125730000D03*
X167640000Y-130810000D03*
X175260000Y-128270000D03*
X167640000Y-128270000D03*
X175260000Y-130810000D03*
X167640000Y-125730000D03*
X175260000Y-133350000D03*
X167640000Y-123190000D03*
X175260000Y-135890000D03*
X167640000Y-120650000D03*
D21*
X175260000Y-138430000D03*
D19*
X167640000Y-142240000D03*
X172640000Y-142240000D03*
X142160000Y-142240000D03*
X137160000Y-142240000D03*
X88900000Y-142240000D03*
X93900000Y-142240000D03*
X132080000Y-125730000D03*
X127080000Y-125730000D03*
M02*
