%TF.GenerationSoftware,KiCad,Pcbnew,(5.1.9-0-10_14)*%
%TF.CreationDate,2022-05-15T13:48:24+02:00*%
%TF.ProjectId,xtsd,78747364-2e6b-4696-9361-645f70636258,rev?*%
%TF.SameCoordinates,Original*%
%TF.FileFunction,Copper,L1,Top*%
%TF.FilePolarity,Positive*%
%FSLAX46Y46*%
G04 Gerber Fmt 4.6, Leading zero omitted, Abs format (unit mm)*
G04 Created by KiCad (PCBNEW (5.1.9-0-10_14)) date 2022-05-15 13:48:24*
%MOMM*%
%LPD*%
G01*
G04 APERTURE LIST*
%TA.AperFunction,ComponentPad*%
%ADD10O,1.700000X1.700000*%
%TD*%
%TA.AperFunction,ComponentPad*%
%ADD11R,1.700000X1.700000*%
%TD*%
%TA.AperFunction,ConnectorPad*%
%ADD12R,1.780000X7.366000*%
%TD*%
%TA.AperFunction,ComponentPad*%
%ADD13O,1.600000X2.400000*%
%TD*%
%TA.AperFunction,ComponentPad*%
%ADD14R,1.600000X2.400000*%
%TD*%
%TA.AperFunction,ComponentPad*%
%ADD15C,4.000000*%
%TD*%
%TA.AperFunction,SMDPad,CuDef*%
%ADD16R,1.950000X1.200000*%
%TD*%
%TA.AperFunction,SMDPad,CuDef*%
%ADD17R,3.200000X2.100000*%
%TD*%
%TA.AperFunction,SMDPad,CuDef*%
%ADD18R,2.000000X1.000000*%
%TD*%
%TA.AperFunction,SMDPad,CuDef*%
%ADD19R,2.200000X1.550000*%
%TD*%
%TA.AperFunction,SMDPad,CuDef*%
%ADD20R,4.170000X1.550000*%
%TD*%
%TA.AperFunction,SMDPad,CuDef*%
%ADD21R,1.650000X1.500000*%
%TD*%
%TA.AperFunction,SMDPad,CuDef*%
%ADD22R,1.100000X1.500000*%
%TD*%
%TA.AperFunction,SMDPad,CuDef*%
%ADD23R,1.870000X1.600000*%
%TD*%
%TA.AperFunction,ComponentPad*%
%ADD24O,1.600000X1.600000*%
%TD*%
%TA.AperFunction,ComponentPad*%
%ADD25R,1.600000X1.600000*%
%TD*%
%TA.AperFunction,ComponentPad*%
%ADD26C,1.600000*%
%TD*%
%TA.AperFunction,ComponentPad*%
%ADD27O,2.400000X1.600000*%
%TD*%
%TA.AperFunction,ComponentPad*%
%ADD28R,2.400000X1.600000*%
%TD*%
%TA.AperFunction,ComponentPad*%
%ADD29R,1.500000X1.050000*%
%TD*%
%TA.AperFunction,ComponentPad*%
%ADD30O,1.500000X1.050000*%
%TD*%
%TA.AperFunction,SMDPad,CuDef*%
%ADD31R,0.850000X1.100000*%
%TD*%
%TA.AperFunction,SMDPad,CuDef*%
%ADD32R,0.750000X1.100000*%
%TD*%
%TA.AperFunction,SMDPad,CuDef*%
%ADD33R,1.170000X1.800000*%
%TD*%
%TA.AperFunction,SMDPad,CuDef*%
%ADD34R,1.550000X1.350000*%
%TD*%
%TA.AperFunction,SMDPad,CuDef*%
%ADD35R,1.200000X1.000000*%
%TD*%
%TA.AperFunction,SMDPad,CuDef*%
%ADD36R,1.900000X1.350000*%
%TD*%
%TA.AperFunction,ViaPad*%
%ADD37C,0.800000*%
%TD*%
%TA.AperFunction,Conductor*%
%ADD38C,0.250000*%
%TD*%
%TA.AperFunction,Conductor*%
%ADD39C,0.500000*%
%TD*%
G04 APERTURE END LIST*
D10*
X161290000Y-86360000D03*
D11*
X158750000Y-86360000D03*
D12*
X137160000Y-149733000D03*
X139700000Y-149733000D03*
X142240000Y-149733000D03*
X144780000Y-149733000D03*
X147320000Y-149733000D03*
X149860000Y-149733000D03*
X152400000Y-149733000D03*
X154940000Y-149733000D03*
X157480000Y-149733000D03*
X160020000Y-149733000D03*
X162560000Y-149733000D03*
X86360000Y-149733000D03*
X88900000Y-149733000D03*
X91440000Y-149733000D03*
X93980000Y-149733000D03*
X96520000Y-149733000D03*
X99060000Y-149733000D03*
X101600000Y-149733000D03*
X104140000Y-149733000D03*
X106680000Y-149733000D03*
X109220000Y-149733000D03*
X111760000Y-149733000D03*
X114300000Y-149733000D03*
X116840000Y-149733000D03*
X119380000Y-149733000D03*
X121920000Y-149733000D03*
X124460000Y-149733000D03*
X127000000Y-149733000D03*
X129540000Y-149733000D03*
X132080000Y-149733000D03*
X134620000Y-149733000D03*
D13*
X88900000Y-130810000D03*
X111760000Y-138430000D03*
X91440000Y-130810000D03*
X109220000Y-138430000D03*
X93980000Y-130810000D03*
X106680000Y-138430000D03*
X96520000Y-130810000D03*
X104140000Y-138430000D03*
X99060000Y-130810000D03*
X101600000Y-138430000D03*
X101600000Y-130810000D03*
X99060000Y-138430000D03*
X104140000Y-130810000D03*
X96520000Y-138430000D03*
X106680000Y-130810000D03*
X93980000Y-138430000D03*
X109220000Y-130810000D03*
X91440000Y-138430000D03*
X111760000Y-130810000D03*
D14*
X88900000Y-138430000D03*
D15*
X182956200Y-85273000D03*
X182956200Y-141788000D03*
D13*
X144780000Y-130810000D03*
X162560000Y-138430000D03*
X147320000Y-130810000D03*
X160020000Y-138430000D03*
X149860000Y-130810000D03*
X157480000Y-138430000D03*
X152400000Y-130810000D03*
X154940000Y-138430000D03*
X154940000Y-130810000D03*
X152400000Y-138430000D03*
X157480000Y-130810000D03*
X149860000Y-138430000D03*
X160020000Y-130810000D03*
X147320000Y-138430000D03*
X162560000Y-130810000D03*
D14*
X144780000Y-138430000D03*
D13*
X116840000Y-130810000D03*
X139700000Y-138430000D03*
X119380000Y-130810000D03*
X137160000Y-138430000D03*
X121920000Y-130810000D03*
X134620000Y-138430000D03*
X124460000Y-130810000D03*
X132080000Y-138430000D03*
X127000000Y-130810000D03*
X129540000Y-138430000D03*
X129540000Y-130810000D03*
X127000000Y-138430000D03*
X132080000Y-130810000D03*
X124460000Y-138430000D03*
X134620000Y-130810000D03*
X121920000Y-138430000D03*
X137160000Y-130810000D03*
X119380000Y-138430000D03*
X139700000Y-130810000D03*
D14*
X116840000Y-138430000D03*
D16*
X172995000Y-96875000D03*
X172995000Y-99375000D03*
X172995000Y-101875000D03*
X172995000Y-104375000D03*
X172995000Y-106875000D03*
X172995000Y-109375000D03*
X172995000Y-110875000D03*
X172995000Y-112375000D03*
X172995000Y-94375000D03*
D17*
X181300000Y-115650000D03*
X181300000Y-91850000D03*
D18*
X177160000Y-115370000D03*
X177160000Y-116570000D03*
D19*
X176620000Y-89445000D03*
D20*
X158885000Y-89445000D03*
D21*
X157625000Y-117220000D03*
D22*
X165790000Y-117220000D03*
D23*
X157735000Y-111350000D03*
D24*
X109220000Y-120650000D03*
X91440000Y-113030000D03*
X106680000Y-120650000D03*
X93980000Y-113030000D03*
X104140000Y-120650000D03*
X96520000Y-113030000D03*
X101600000Y-120650000D03*
X99060000Y-113030000D03*
X99060000Y-120650000D03*
X101600000Y-113030000D03*
X96520000Y-120650000D03*
X104140000Y-113030000D03*
X93980000Y-120650000D03*
X106680000Y-113030000D03*
X91440000Y-120650000D03*
D25*
X109220000Y-113030000D03*
D13*
X127000000Y-102870000D03*
X88900000Y-87630000D03*
X124460000Y-102870000D03*
X91440000Y-87630000D03*
X121920000Y-102870000D03*
X93980000Y-87630000D03*
X119380000Y-102870000D03*
X96520000Y-87630000D03*
X116840000Y-102870000D03*
X99060000Y-87630000D03*
X114300000Y-102870000D03*
X101600000Y-87630000D03*
X111760000Y-102870000D03*
X104140000Y-87630000D03*
X109220000Y-102870000D03*
X106680000Y-87630000D03*
X106680000Y-102870000D03*
X109220000Y-87630000D03*
X104140000Y-102870000D03*
X111760000Y-87630000D03*
X101600000Y-102870000D03*
X114300000Y-87630000D03*
X99060000Y-102870000D03*
X116840000Y-87630000D03*
X96520000Y-102870000D03*
X119380000Y-87630000D03*
X93980000Y-102870000D03*
X121920000Y-87630000D03*
X91440000Y-102870000D03*
X124460000Y-87630000D03*
X88900000Y-102870000D03*
D14*
X127000000Y-87630000D03*
D24*
X183515000Y-120015000D03*
D26*
X183515000Y-127635000D03*
D24*
X179705000Y-120015000D03*
D26*
X179705000Y-127635000D03*
D13*
X116840000Y-113030000D03*
X144780000Y-120650000D03*
X119380000Y-113030000D03*
X142240000Y-120650000D03*
X121920000Y-113030000D03*
X139700000Y-120650000D03*
X124460000Y-113030000D03*
X137160000Y-120650000D03*
X127000000Y-113030000D03*
X134620000Y-120650000D03*
X129540000Y-113030000D03*
X132080000Y-120650000D03*
X132080000Y-113030000D03*
X129540000Y-120650000D03*
X134620000Y-113030000D03*
X127000000Y-120650000D03*
X137160000Y-113030000D03*
X124460000Y-120650000D03*
X139700000Y-113030000D03*
X121920000Y-120650000D03*
X142240000Y-113030000D03*
X119380000Y-120650000D03*
X144780000Y-113030000D03*
D14*
X116840000Y-120650000D03*
D27*
X132080000Y-105410000D03*
X139700000Y-87630000D03*
X132080000Y-102870000D03*
X139700000Y-90170000D03*
X132080000Y-100330000D03*
X139700000Y-92710000D03*
X132080000Y-97790000D03*
X139700000Y-95250000D03*
X132080000Y-95250000D03*
X139700000Y-97790000D03*
X132080000Y-92710000D03*
X139700000Y-100330000D03*
X132080000Y-90170000D03*
X139700000Y-102870000D03*
X132080000Y-87630000D03*
D28*
X139700000Y-105410000D03*
D24*
X151130000Y-105410000D03*
D25*
X143510000Y-105410000D03*
D24*
X151130000Y-102870000D03*
D25*
X143510000Y-102870000D03*
D24*
X151130000Y-99060000D03*
D26*
X143510000Y-99060000D03*
D29*
X182245000Y-132080000D03*
D30*
X182245000Y-134620000D03*
X182245000Y-133350000D03*
D31*
X145485000Y-83450000D03*
D32*
X153135000Y-83450000D03*
D31*
X146585000Y-83450000D03*
X147685000Y-83450000D03*
X148785000Y-83450000D03*
X149885000Y-83450000D03*
X150985000Y-83450000D03*
X152085000Y-83450000D03*
D33*
X154345000Y-83800000D03*
D34*
X143025000Y-83575000D03*
D35*
X142850000Y-93300000D03*
X142850000Y-89600000D03*
D36*
X146350000Y-94275000D03*
X152320000Y-94275000D03*
D24*
X109220000Y-125730000D03*
X106680000Y-125730000D03*
X104140000Y-125730000D03*
X101600000Y-125730000D03*
X99060000Y-125730000D03*
X96520000Y-125730000D03*
X93980000Y-125730000D03*
X91440000Y-125730000D03*
D25*
X88900000Y-125730000D03*
D26*
X123745000Y-109220000D03*
X118745000Y-109220000D03*
X154305000Y-103505000D03*
X154305000Y-98505000D03*
D27*
X167640000Y-138430000D03*
X175260000Y-120650000D03*
X167640000Y-135890000D03*
X175260000Y-123190000D03*
X167640000Y-133350000D03*
X175260000Y-125730000D03*
X167640000Y-130810000D03*
X175260000Y-128270000D03*
X167640000Y-128270000D03*
X175260000Y-130810000D03*
X167640000Y-125730000D03*
X175260000Y-133350000D03*
X167640000Y-123190000D03*
X175260000Y-135890000D03*
X167640000Y-120650000D03*
D28*
X175260000Y-138430000D03*
D26*
X167640000Y-142240000D03*
X172640000Y-142240000D03*
X142160000Y-142240000D03*
X137160000Y-142240000D03*
X88900000Y-142240000D03*
X93900000Y-142240000D03*
X132080000Y-125730000D03*
X127080000Y-125730000D03*
D37*
X87630010Y-116840000D03*
X97155000Y-135890000D03*
X116205000Y-109220000D03*
X88900000Y-115479990D03*
X111125000Y-107950000D03*
X112395008Y-105409992D03*
X118110000Y-105410000D03*
X123825000Y-85090000D03*
X133350000Y-114935000D03*
X132080006Y-110490000D03*
X144780000Y-133985000D03*
X136525000Y-100330000D03*
X91440000Y-97155000D03*
X96520000Y-95250000D03*
X106680000Y-92710000D03*
X113030000Y-90170000D03*
X135890000Y-144145000D03*
X123190000Y-107315000D03*
X132715000Y-142875000D03*
X126999986Y-115570000D03*
X139700000Y-134620000D03*
X157480000Y-111125000D03*
X172720000Y-100965000D03*
X172720000Y-108585000D03*
X181610000Y-92075000D03*
X176530000Y-89535000D03*
X158750000Y-89535000D03*
X157480000Y-117475000D03*
X142875000Y-83820000D03*
X154305000Y-83820000D03*
X146685000Y-93980000D03*
X152400000Y-93980000D03*
X151130000Y-84455000D03*
X181610000Y-116205000D03*
X142240000Y-139065000D03*
X161925010Y-142240000D03*
X157480000Y-125095000D03*
X144780000Y-110490000D03*
X122555000Y-118110000D03*
X123190000Y-142875000D03*
X130810000Y-142875000D03*
X139700000Y-110490000D03*
X156210000Y-142240000D03*
X119380006Y-126365000D03*
X157480000Y-92075000D03*
X172085000Y-119380000D03*
X163195000Y-135890000D03*
X161924996Y-121920000D03*
X125730000Y-142875000D03*
X155575000Y-117475000D03*
X162560000Y-118745000D03*
X144779998Y-87630000D03*
X177165000Y-118110000D03*
X165735000Y-118110000D03*
X145415006Y-86360000D03*
X119920000Y-85090000D03*
X121285000Y-124460000D03*
X119380000Y-123825000D03*
D38*
X97790000Y-90170000D02*
X99060000Y-88900000D01*
X92710000Y-90170000D02*
X97790000Y-90170000D01*
X86360000Y-96520000D02*
X92710000Y-90170000D01*
X99060000Y-88900000D02*
X99060000Y-87630000D01*
X86360000Y-114300000D02*
X86360000Y-96520000D01*
X87630000Y-115570000D02*
X86360000Y-114300000D01*
X85090000Y-142240000D02*
X85090000Y-119380000D01*
X87630000Y-116840000D02*
X87630000Y-115570000D01*
X85090000Y-119380000D02*
X87630000Y-116840000D01*
X86360000Y-143510000D02*
X85090000Y-142240000D01*
X86360000Y-143510000D02*
X86360000Y-149860000D01*
X109220000Y-88355000D02*
X109220000Y-87630000D01*
X102325000Y-95250000D02*
X109220000Y-88355000D01*
X95250000Y-98326502D02*
X98326502Y-95250000D01*
X98326502Y-95250000D02*
X102325000Y-95250000D01*
X95250000Y-101600000D02*
X95250000Y-98326502D01*
X95250000Y-133985000D02*
X95250000Y-101403004D01*
X97790000Y-136525000D02*
X95250000Y-133985000D01*
X97790000Y-142240000D02*
X97790000Y-136525000D01*
X96520000Y-149860000D02*
X96520000Y-144780000D01*
X97790000Y-143510000D02*
X97790000Y-142240000D01*
X96520000Y-144780000D02*
X97790000Y-143510000D01*
X101600000Y-137795000D02*
X101600000Y-138430000D01*
X118110000Y-118110000D02*
X114935000Y-114935000D01*
X119380000Y-129360000D02*
X118110000Y-128090000D01*
X118110000Y-128090000D02*
X118110000Y-118110000D01*
X114935000Y-110490000D02*
X116205000Y-109220000D01*
X114935000Y-114935000D02*
X114935000Y-110490000D01*
X119380000Y-130810000D02*
X119380000Y-129360000D01*
X87630000Y-114209990D02*
X88900000Y-115479990D01*
X87630000Y-97155000D02*
X87630000Y-114209990D01*
X99240000Y-91440000D02*
X93345000Y-91440000D01*
X101600000Y-87630000D02*
X101600000Y-89080000D01*
X101600000Y-89080000D02*
X99240000Y-91440000D01*
X93345000Y-91440000D02*
X87630000Y-97155000D01*
X86360000Y-141605000D02*
X88900000Y-144145000D01*
X88900000Y-144145000D02*
X88900000Y-149860000D01*
X86360000Y-120650000D02*
X86360000Y-141605000D01*
X88900000Y-118110000D02*
X86360000Y-120650000D01*
X88900000Y-115479990D02*
X88900000Y-118110000D01*
X91440000Y-137160000D02*
X91440000Y-138430000D01*
X87630000Y-121920000D02*
X87630000Y-133350000D01*
X87630000Y-133350000D02*
X91440000Y-137160000D01*
X90170000Y-119380000D02*
X87630000Y-121920000D01*
X90170000Y-96520000D02*
X90170000Y-119380000D01*
X93980000Y-92710000D02*
X90170000Y-96520000D01*
X100510000Y-92710000D02*
X93980000Y-92710000D01*
X104140000Y-89080000D02*
X100510000Y-92710000D01*
X104140000Y-87630000D02*
X104140000Y-89080000D01*
X91440000Y-138430000D02*
X91440000Y-149860000D01*
X101600000Y-93980000D02*
X95885000Y-93980000D01*
X92710000Y-97155000D02*
X92710000Y-133350000D01*
X96520000Y-137160000D02*
X96520000Y-138430000D01*
X95885000Y-93980000D02*
X92710000Y-97155000D01*
X106680000Y-88900000D02*
X101600000Y-93980000D01*
X92710000Y-133350000D02*
X96520000Y-137160000D01*
X106680000Y-87630000D02*
X106680000Y-88900000D01*
X93980000Y-149860000D02*
X93980000Y-144780000D01*
X93980000Y-144780000D02*
X96520000Y-142240000D01*
X96520000Y-142240000D02*
X96520000Y-138430000D01*
X97790000Y-99695000D02*
X97790000Y-127635000D01*
X96520000Y-128905000D02*
X96520000Y-130810000D01*
X99695000Y-97790000D02*
X97790000Y-99695000D01*
X97790000Y-127635000D02*
X96520000Y-128905000D01*
X103506411Y-97790000D02*
X99695000Y-97790000D01*
X111760000Y-89536411D02*
X103506411Y-97790000D01*
X111760000Y-87630000D02*
X111760000Y-89536411D01*
X96520000Y-130810000D02*
X96520000Y-131445000D01*
X99060000Y-142875000D02*
X99060000Y-149860000D01*
X96520000Y-130810000D02*
X96520000Y-132080000D01*
X100185010Y-141749990D02*
X99060000Y-142875000D01*
X100185010Y-135745010D02*
X100185010Y-141749990D01*
X96520000Y-132080000D02*
X100185010Y-135745010D01*
X114300000Y-90805000D02*
X114300000Y-87630000D01*
X101600000Y-130810000D02*
X101600000Y-128905000D01*
X101600000Y-100330000D02*
X104775000Y-100330000D01*
X104775000Y-100330000D02*
X114300000Y-90805000D01*
X100330000Y-101600000D02*
X101600000Y-100330000D01*
X101600000Y-128905000D02*
X100330000Y-127635000D01*
X100330000Y-127635000D02*
X100330000Y-101600000D01*
X101600000Y-130810000D02*
X101600000Y-135255000D01*
X102725010Y-136380010D02*
X102725010Y-142384990D01*
X101600000Y-135255000D02*
X102725010Y-136380010D01*
X101600000Y-143510000D02*
X101600000Y-149860000D01*
X102725010Y-142384990D02*
X101600000Y-143510000D01*
X105410000Y-101600000D02*
X105410000Y-104774295D01*
X116840000Y-90170000D02*
X105410000Y-101600000D01*
X105410000Y-104774295D02*
X102870000Y-107314295D01*
X116840000Y-87630000D02*
X116840000Y-90170000D01*
X102870000Y-107314295D02*
X102870000Y-116205000D01*
X105265001Y-118600001D02*
X105265001Y-127490001D01*
X102870000Y-116205000D02*
X105265001Y-118600001D01*
X106680000Y-128905000D02*
X106680000Y-130810000D01*
X105265001Y-127490001D02*
X106680000Y-128905000D01*
X106680000Y-133350000D02*
X106680000Y-130810000D01*
X105410000Y-134620000D02*
X106680000Y-133350000D01*
X105410000Y-142240000D02*
X105410000Y-134620000D01*
X104140000Y-143510000D02*
X105410000Y-142240000D01*
X104140000Y-149860000D02*
X104140000Y-143510000D01*
X114300000Y-102870000D02*
X114300000Y-100965000D01*
X114300000Y-100965000D02*
X113665000Y-100330000D01*
X113665000Y-100330000D02*
X111125000Y-100330000D01*
X111125000Y-100330000D02*
X110490000Y-100965000D01*
X110490000Y-100965000D02*
X110490000Y-104140000D01*
X110490000Y-104140000D02*
X107950000Y-106680000D01*
X107950000Y-106680000D02*
X107950000Y-134620000D01*
X107950000Y-134620000D02*
X106680000Y-135890000D01*
X106680000Y-135890000D02*
X106680000Y-138430000D01*
X106680000Y-145415000D02*
X106680000Y-149860000D01*
X106680000Y-138430000D02*
X106680000Y-145415000D01*
X111760000Y-104140000D02*
X111760000Y-102870000D01*
X109855000Y-106045000D02*
X111760000Y-104140000D01*
X109855000Y-108902500D02*
X109855000Y-106045000D01*
X111125000Y-124460000D02*
X111125000Y-110172500D01*
X111760000Y-134620000D02*
X111760000Y-125095000D01*
X111760000Y-125095000D02*
X111125000Y-124460000D01*
X109220000Y-149860000D02*
X109220000Y-143510000D01*
X110490000Y-135890000D02*
X111760000Y-134620000D01*
X110490000Y-142240000D02*
X110490000Y-135890000D01*
X111125000Y-110172500D02*
X109855000Y-108902500D01*
X109220000Y-143510000D02*
X110490000Y-142240000D01*
X104140000Y-102870000D02*
X104140000Y-103270000D01*
X111760000Y-143510000D02*
X111760000Y-149860000D01*
X113030000Y-125095000D02*
X113030000Y-142240000D01*
X111125000Y-107950000D02*
X111760000Y-108585000D01*
X113030000Y-142240000D02*
X111760000Y-143510000D01*
X111760000Y-123825000D02*
X113030000Y-125095000D01*
X111760000Y-108585000D02*
X111760000Y-123825000D01*
X109220000Y-102870000D02*
X109220000Y-102235000D01*
X113665000Y-124460000D02*
X112395008Y-123190008D01*
X112395008Y-123190008D02*
X112395008Y-105409992D01*
X113665000Y-142875000D02*
X114300000Y-143510000D01*
X113665000Y-142875000D02*
X113665000Y-124460000D01*
X114300000Y-143510000D02*
X114300000Y-149860000D01*
X119380000Y-91440000D02*
X119380000Y-87630000D01*
X115570000Y-104140000D02*
X115570000Y-95250000D01*
X113030000Y-106680000D02*
X115570000Y-104140000D01*
X115570000Y-95250000D02*
X119380000Y-91440000D01*
X113030000Y-122555000D02*
X113030000Y-106680000D01*
X114300000Y-123825000D02*
X113030000Y-122555000D01*
X114300000Y-141605000D02*
X114300000Y-123825000D01*
X116840000Y-144145000D02*
X114300000Y-141605000D01*
X116840000Y-149860000D02*
X116840000Y-144145000D01*
X113665000Y-121920000D02*
X113665000Y-107495000D01*
X116840000Y-104320000D02*
X116840000Y-102870000D01*
X113665000Y-107495000D02*
X116840000Y-104320000D01*
X114935000Y-123190000D02*
X113665000Y-121920000D01*
X119380000Y-144780000D02*
X114935000Y-140335000D01*
X114935000Y-140335000D02*
X114935000Y-123190000D01*
X119380000Y-149860000D02*
X119380000Y-144780000D01*
X123190000Y-85725000D02*
X123825000Y-85090000D01*
X118110000Y-105410000D02*
X119380000Y-105410000D01*
X120650000Y-104140000D02*
X120650000Y-93345000D01*
X120650000Y-93345000D02*
X123190000Y-90805000D01*
X119380000Y-105410000D02*
X120650000Y-104140000D01*
X123190000Y-90805000D02*
X123190000Y-85725000D01*
X114300000Y-121285000D02*
X115570000Y-122555000D01*
X115570000Y-122555000D02*
X115570000Y-132715000D01*
X118110000Y-105410000D02*
X114300000Y-109220000D01*
X114300000Y-109220000D02*
X114300000Y-121285000D01*
X115570000Y-132715000D02*
X118110000Y-135255000D01*
X118110000Y-135255000D02*
X118110000Y-141605000D01*
X118110000Y-141605000D02*
X121920000Y-145415000D01*
X121920000Y-145415000D02*
X121920000Y-149860000D01*
X123825000Y-144145000D02*
X124460000Y-144780000D01*
X124460000Y-144780000D02*
X124460000Y-149860000D01*
X122555000Y-144145000D02*
X123825000Y-144145000D01*
X119380000Y-140970000D02*
X122555000Y-144145000D01*
X119380000Y-138430000D02*
X119380000Y-140970000D01*
X127000000Y-142240000D02*
X127000000Y-149860000D01*
X128270000Y-136525000D02*
X128270000Y-140970000D01*
X129540000Y-135255000D02*
X128270000Y-136525000D01*
X128270000Y-140970000D02*
X127000000Y-142240000D01*
X129540000Y-130810000D02*
X129540000Y-135255000D01*
X129540000Y-138430000D02*
X129540000Y-149860000D01*
X132080000Y-144938750D02*
X132080000Y-149860000D01*
X133826250Y-141763750D02*
X133826250Y-143192500D01*
X134620000Y-140970000D02*
X133826250Y-141763750D01*
X133826250Y-143192500D02*
X132080000Y-144938750D01*
X134620000Y-138430000D02*
X134620000Y-140970000D01*
X134620000Y-142765499D02*
X134620000Y-149860000D01*
X135890000Y-141495499D02*
X134620000Y-142765499D01*
X135890000Y-135890000D02*
X135890000Y-141495499D01*
X134620000Y-134620000D02*
X135890000Y-135890000D01*
X134620000Y-130810000D02*
X134620000Y-134620000D01*
X142240000Y-123190000D02*
X142240000Y-120650000D01*
X147320000Y-128270000D02*
X142240000Y-123190000D01*
X147320000Y-130810000D02*
X147320000Y-128270000D01*
X134620000Y-110490000D02*
X135255000Y-109855000D01*
X135255000Y-109855000D02*
X135255000Y-94615000D01*
X133350000Y-92710000D02*
X132080000Y-92710000D01*
X135255000Y-94615000D02*
X133350000Y-92710000D01*
X134620000Y-110490000D02*
X133350000Y-111760000D01*
X133350000Y-111760000D02*
X133350000Y-114935000D01*
X147320000Y-132715000D02*
X147320000Y-130810000D01*
X143654999Y-136380001D02*
X147320000Y-132715000D01*
X143654999Y-144000001D02*
X143654999Y-136380001D01*
X142240000Y-145415000D02*
X143654999Y-144000001D01*
X142240000Y-149860000D02*
X142240000Y-145415000D01*
X133985000Y-97155000D02*
X133985000Y-108585006D01*
X132080000Y-95250000D02*
X133985000Y-97155000D01*
X133985000Y-108585006D02*
X132080006Y-110490000D01*
X144780000Y-138430000D02*
X144780000Y-149860000D01*
X139700000Y-123190000D02*
X139700000Y-120650000D01*
X146050000Y-129540000D02*
X139700000Y-123190000D01*
X146050000Y-129540000D02*
X146050000Y-132715000D01*
X146050000Y-132715000D02*
X144780000Y-133985000D01*
X147320000Y-138430000D02*
X147320000Y-149860000D01*
X130175000Y-97790000D02*
X132080000Y-97790000D01*
X128905000Y-99060000D02*
X130175000Y-97790000D01*
X128270000Y-110490000D02*
X128905000Y-109855000D01*
X130175000Y-116840000D02*
X128270000Y-114935000D01*
X134620000Y-116840000D02*
X130175000Y-116840000D01*
X128905000Y-109855000D02*
X128905000Y-99060000D01*
X148590000Y-127000000D02*
X143510000Y-121920000D01*
X142918002Y-118745000D02*
X136525000Y-118745000D01*
X136525000Y-118745000D02*
X134620000Y-116840000D01*
X143510000Y-119336998D02*
X142918002Y-118745000D01*
X148590000Y-133350000D02*
X148590000Y-127000000D01*
X147320000Y-138430000D02*
X147320000Y-134620000D01*
X143510000Y-121920000D02*
X143510000Y-119336998D01*
X128270000Y-114935000D02*
X128270000Y-110490000D01*
X147320000Y-134620000D02*
X148590000Y-133350000D01*
X144780000Y-118110000D02*
X137160000Y-118110000D01*
X129540000Y-109658006D02*
X129540000Y-101420000D01*
X132080000Y-116205000D02*
X130810000Y-114935000D01*
X130810000Y-114935000D02*
X130810000Y-110928006D01*
X130630000Y-100330000D02*
X132080000Y-100330000D01*
X130810000Y-110928006D02*
X129540000Y-109658006D01*
X137160000Y-118110000D02*
X135255000Y-116205000D01*
X151130000Y-124460000D02*
X144780000Y-118110000D01*
X129540000Y-101420000D02*
X130630000Y-100330000D01*
X135255000Y-116205000D02*
X132080000Y-116205000D01*
X149860000Y-138430000D02*
X149860000Y-149860000D01*
X149860000Y-138430000D02*
X149860000Y-134620000D01*
X149860000Y-134620000D02*
X151130000Y-133350000D01*
X151130000Y-133350000D02*
X151130000Y-124460000D01*
X136525000Y-100240000D02*
X136525005Y-100239995D01*
X135890000Y-111760000D02*
X136525000Y-111125000D01*
X135890000Y-114300000D02*
X135890000Y-111760000D01*
X146050000Y-116840000D02*
X138430000Y-116840000D01*
X138430000Y-116840000D02*
X135890000Y-114300000D01*
X136525000Y-111125000D02*
X136525000Y-100240000D01*
X153525010Y-124315010D02*
X146050000Y-116840000D01*
X152400000Y-138430000D02*
X152400000Y-134620000D01*
X152400000Y-134620000D02*
X153525010Y-133494990D01*
X153525010Y-133494990D02*
X153525010Y-124315010D01*
X91440000Y-97155000D02*
X91440000Y-102870000D01*
X152400000Y-138430000D02*
X152400000Y-149860000D01*
X138430000Y-97790000D02*
X139700000Y-97790000D01*
X138430000Y-111760000D02*
X137795000Y-111125000D01*
X139700000Y-115570000D02*
X138430000Y-114300000D01*
X137795000Y-98425000D02*
X138430000Y-97790000D01*
X147320000Y-115570000D02*
X139700000Y-115570000D01*
X138430000Y-114300000D02*
X138430000Y-111760000D01*
X154940000Y-134620000D02*
X156210000Y-133350000D01*
X156210000Y-124460000D02*
X147320000Y-115570000D01*
X137795000Y-111125000D02*
X137795000Y-98425000D01*
X156210000Y-133350000D02*
X156210000Y-124460000D01*
X154940000Y-138430000D02*
X154940000Y-134620000D01*
X96520000Y-95250000D02*
X93980000Y-97790000D01*
X93980000Y-97790000D02*
X93980000Y-102870000D01*
X154940000Y-138430000D02*
X154940000Y-149860000D01*
X161145010Y-133314990D02*
X157480000Y-136980000D01*
X146050000Y-99695000D02*
X146050000Y-110490000D01*
X161145010Y-125585010D02*
X161145010Y-133314990D01*
X146050000Y-110490000D02*
X161145010Y-125585010D01*
X141605000Y-95250000D02*
X146050000Y-99695000D01*
X157480000Y-136980000D02*
X157480000Y-138430000D01*
X139700000Y-95250000D02*
X141605000Y-95250000D01*
X106680000Y-92710000D02*
X102870000Y-96520000D01*
X102870000Y-96520000D02*
X99060000Y-96520000D01*
X99060000Y-96520000D02*
X96520000Y-99060000D01*
X96520000Y-99060000D02*
X96520000Y-102870000D01*
X157480000Y-138430000D02*
X157480000Y-149860000D01*
X163830000Y-132715000D02*
X163830000Y-126997884D01*
X160020000Y-136525000D02*
X163830000Y-132715000D01*
X160020000Y-138430000D02*
X160020000Y-136525000D01*
X163830000Y-126997884D02*
X163827884Y-126997884D01*
X163827884Y-126997884D02*
X147320000Y-110490000D01*
X140574998Y-92710000D02*
X139700000Y-92710000D01*
X147320000Y-99455002D02*
X140574998Y-92710000D01*
X147320000Y-110490000D02*
X147320000Y-99455002D01*
X100330000Y-99060000D02*
X99060000Y-100330000D01*
X104140000Y-99060000D02*
X100330000Y-99060000D01*
X99060000Y-100330000D02*
X99060000Y-102870000D01*
X113030000Y-90170000D02*
X104140000Y-99060000D01*
X160020000Y-149860000D02*
X160020000Y-138430000D01*
X137160000Y-149860000D02*
X137160000Y-145415000D01*
X137160000Y-145415000D02*
X135890000Y-144145000D01*
X132080000Y-118110000D02*
X133350000Y-119380000D01*
X127000000Y-118110000D02*
X132080000Y-118110000D01*
X132715000Y-140970000D02*
X133350000Y-140335000D01*
X132715000Y-142875000D02*
X132715000Y-140970000D01*
X133350000Y-119380000D02*
X133350000Y-140335000D01*
X123190000Y-107315000D02*
X124460000Y-107315000D01*
X125874990Y-116984990D02*
X127000000Y-118110000D01*
X125874990Y-108729990D02*
X125874990Y-116984990D01*
X124460000Y-107315000D02*
X125874990Y-108729990D01*
X128904986Y-117475000D02*
X126999986Y-115570000D01*
X135890000Y-119380000D02*
X133985000Y-117475000D01*
X133985000Y-117475000D02*
X128904986Y-117475000D01*
X139700000Y-134620000D02*
X141605000Y-132715000D01*
X141605000Y-132715000D02*
X141605000Y-128270000D01*
X141605000Y-128270000D02*
X135890000Y-122555000D01*
X135890000Y-122555000D02*
X135890000Y-119380000D01*
D39*
X116840000Y-138430000D02*
X116840000Y-139065000D01*
D38*
X157705000Y-111350000D02*
X157480000Y-111125000D01*
X157735000Y-111350000D02*
X157705000Y-111350000D01*
D39*
X172995000Y-101240000D02*
X172720000Y-100965000D01*
X172995000Y-101875000D02*
X172995000Y-101240000D01*
X172995000Y-109375000D02*
X172995000Y-108860000D01*
X172995000Y-108860000D02*
X172720000Y-108585000D01*
D38*
X181385000Y-91850000D02*
X181610000Y-92075000D01*
X181300000Y-91850000D02*
X181385000Y-91850000D01*
X176620000Y-89445000D02*
X176530000Y-89535000D01*
X158840000Y-89445000D02*
X158750000Y-89535000D01*
X158885000Y-89445000D02*
X158840000Y-89445000D01*
X157625000Y-117330000D02*
X157480000Y-117475000D01*
X157625000Y-117220000D02*
X157625000Y-117330000D01*
X143025000Y-83670000D02*
X142875000Y-83820000D01*
X143025000Y-83575000D02*
X143025000Y-83670000D01*
X154325000Y-83800000D02*
X154305000Y-83820000D01*
X154345000Y-83800000D02*
X154325000Y-83800000D01*
X146390000Y-94275000D02*
X146685000Y-93980000D01*
X146350000Y-94275000D02*
X146390000Y-94275000D01*
X152320000Y-94060000D02*
X152400000Y-93980000D01*
X152320000Y-94275000D02*
X152320000Y-94060000D01*
X150985000Y-84310000D02*
X151130000Y-84455000D01*
X150985000Y-83450000D02*
X150985000Y-84310000D01*
X181300000Y-115650000D02*
X181610000Y-115960000D01*
X181610000Y-115960000D02*
X181610000Y-116205000D01*
X91440000Y-120650000D02*
X91440000Y-125730000D01*
D39*
X109220000Y-138430000D02*
X109220000Y-133350000D01*
X109220000Y-133350000D02*
X109220000Y-130810000D01*
X93980000Y-142160000D02*
X93900000Y-142240000D01*
X93980000Y-138430000D02*
X93980000Y-142160000D01*
X88900000Y-125730000D02*
X88900000Y-130810000D01*
X137160000Y-142240000D02*
X137160000Y-130810000D01*
X88900000Y-130810000D02*
X88900000Y-132080000D01*
X93980000Y-137160000D02*
X93980000Y-138430000D01*
X88900000Y-132080000D02*
X93980000Y-137160000D01*
X93900000Y-142320000D02*
X93900000Y-142240000D01*
X144780000Y-132080000D02*
X142240000Y-134620000D01*
X144780000Y-130810000D02*
X144780000Y-132080000D01*
X137160000Y-142240000D02*
X139065000Y-142240000D01*
X121920000Y-102870000D02*
X121920000Y-98425000D01*
X116840000Y-111113004D02*
X118745000Y-109208004D01*
X116840000Y-114300000D02*
X116840000Y-111113004D01*
X118745000Y-109208004D02*
X118745000Y-107745000D01*
X118745000Y-107745000D02*
X121920000Y-104570000D01*
X121920000Y-104570000D02*
X121920000Y-102870000D01*
X116840000Y-114300000D02*
X116840000Y-113030000D01*
X121920000Y-119380000D02*
X116840000Y-114300000D01*
X121920000Y-120650000D02*
X121920000Y-119380000D01*
X139700000Y-130810000D02*
X137160000Y-130810000D01*
X129540000Y-90170000D02*
X132080000Y-90170000D01*
X121920000Y-97790000D02*
X129540000Y-90170000D01*
X121920000Y-98425000D02*
X121920000Y-97790000D01*
X121920000Y-99695000D02*
X121920000Y-98425000D01*
X125730000Y-99695000D02*
X121920000Y-99695000D01*
X127000000Y-100965000D02*
X125730000Y-99695000D01*
X127000000Y-102870000D02*
X127000000Y-100965000D01*
X142240000Y-134620000D02*
X142240000Y-139065000D01*
X142240000Y-139065000D02*
X139065000Y-142240000D01*
X163830010Y-144145000D02*
X161925010Y-142240000D01*
X173990000Y-144145000D02*
X163830010Y-144145000D01*
X182245000Y-135890000D02*
X173990000Y-144145000D01*
X182245000Y-134620000D02*
X182245000Y-135890000D01*
D38*
X96520000Y-120650000D02*
X96520000Y-125730000D01*
X93980000Y-120650000D02*
X93980000Y-125730000D01*
X157480000Y-130810000D02*
X157480000Y-125095000D01*
X139065000Y-102870000D02*
X139700000Y-102870000D01*
X145415000Y-102235000D02*
X144145000Y-100965000D01*
X143510000Y-114300000D02*
X143510000Y-111760000D01*
X147955000Y-114935000D02*
X144145000Y-114935000D01*
X157480000Y-124460000D02*
X147955000Y-114935000D01*
X140335000Y-102870000D02*
X139700000Y-102870000D01*
X142240000Y-100965000D02*
X140335000Y-102870000D01*
X144145000Y-100965000D02*
X142240000Y-100965000D01*
X145415000Y-109855000D02*
X145415000Y-102235000D01*
X144145000Y-114935000D02*
X143510000Y-114300000D01*
X157480000Y-125095000D02*
X157480000Y-124460000D01*
X144780000Y-110490000D02*
X145415000Y-109855000D01*
X143510000Y-111760000D02*
X144780000Y-110490000D01*
X173990000Y-125730000D02*
X175260000Y-125730000D01*
X170815000Y-114300000D02*
X173355000Y-116840000D01*
X171890000Y-106875000D02*
X170815000Y-107950000D01*
X174281399Y-90805000D02*
X177165000Y-93688601D01*
X174281399Y-86651399D02*
X174281399Y-90805000D01*
X173355000Y-125095000D02*
X173990000Y-125730000D01*
X170815000Y-107950000D02*
X170815000Y-114300000D01*
X177165000Y-93688601D02*
X177165000Y-104775000D01*
X155575000Y-86360000D02*
X157480000Y-84455000D01*
X157480000Y-84455000D02*
X172085000Y-84455000D01*
X173355000Y-116840000D02*
X173355000Y-125095000D01*
X151130000Y-86360000D02*
X155575000Y-86360000D01*
X177165000Y-104775000D02*
X175065000Y-106875000D01*
X172085000Y-84455000D02*
X174281399Y-86651399D01*
X149885000Y-85115000D02*
X151130000Y-86360000D01*
X175065000Y-106875000D02*
X171890000Y-106875000D01*
X149885000Y-83450000D02*
X149885000Y-85115000D01*
X169090000Y-128270000D02*
X167640000Y-128270000D01*
X171450000Y-125910000D02*
X169090000Y-128270000D01*
X171450000Y-121920000D02*
X171450000Y-125910000D01*
X171730000Y-96875000D02*
X168275000Y-100330000D01*
X168275000Y-100330000D02*
X168275000Y-118745000D01*
X168275000Y-118745000D02*
X171450000Y-121920000D01*
X172020000Y-96875000D02*
X171730000Y-96875000D01*
X109220000Y-120650000D02*
X109220000Y-125730000D01*
X124460000Y-104140000D02*
X124460000Y-102870000D01*
X120650000Y-107950000D02*
X124460000Y-104140000D01*
X120650000Y-115570000D02*
X120650000Y-107950000D01*
X122555000Y-117475000D02*
X120650000Y-115570000D01*
X122555000Y-118110000D02*
X122555000Y-117475000D01*
X120650000Y-140335000D02*
X123190000Y-142875000D01*
X116840000Y-120650000D02*
X116840000Y-128270000D01*
X116840000Y-128270000D02*
X118110000Y-129540000D01*
X118110000Y-129540000D02*
X118110000Y-133350000D01*
X118110000Y-133350000D02*
X120650000Y-135890000D01*
X120650000Y-135890000D02*
X120650000Y-140335000D01*
X130810000Y-123825000D02*
X130810000Y-142875000D01*
X132080000Y-122555000D02*
X130810000Y-123825000D01*
X132080000Y-120650000D02*
X132080000Y-122555000D01*
X152400000Y-129360000D02*
X152400000Y-130810000D01*
X152400000Y-124458589D02*
X152400000Y-129360000D01*
X145416411Y-117475000D02*
X152400000Y-124458589D01*
X137795000Y-117475000D02*
X145416411Y-117475000D01*
X134620000Y-114300000D02*
X137795000Y-117475000D01*
X134620000Y-113030000D02*
X134620000Y-114300000D01*
X154940000Y-124460000D02*
X154940000Y-130810000D01*
X139065000Y-116205000D02*
X146685000Y-116205000D01*
X146685000Y-116205000D02*
X154940000Y-124460000D01*
X137160000Y-114300000D02*
X139065000Y-116205000D01*
X137160000Y-113030000D02*
X137160000Y-114300000D01*
X139700000Y-110490000D02*
X139700000Y-105410000D01*
X147320000Y-113030000D02*
X144780000Y-113030000D01*
X158750000Y-124460000D02*
X147320000Y-113030000D01*
X158750000Y-133350000D02*
X158750000Y-124460000D01*
X156210000Y-135890000D02*
X158750000Y-133350000D01*
X156210000Y-142240000D02*
X156210000Y-135890000D01*
X101600000Y-120650000D02*
X101600000Y-125730000D01*
X120650000Y-133985000D02*
X121920000Y-135255000D01*
X121920000Y-135255000D02*
X121920000Y-138430000D01*
X120650000Y-127634994D02*
X120650000Y-133985000D01*
X119380006Y-126365000D02*
X120650000Y-127634994D01*
X160655000Y-118745000D02*
X165100000Y-123190000D01*
X146585000Y-85625000D02*
X160655000Y-99695000D01*
X165100000Y-123190000D02*
X167640000Y-123190000D01*
X160655000Y-99695000D02*
X160655000Y-118745000D01*
X146585000Y-83450000D02*
X146585000Y-85625000D01*
D39*
X157480000Y-92075000D02*
X157480000Y-91440000D01*
X148785000Y-85285000D02*
X154940000Y-91440000D01*
X148785000Y-83450000D02*
X148785000Y-85285000D01*
X154940000Y-91440000D02*
X173990000Y-91440000D01*
X175549988Y-102580012D02*
X173755000Y-104375000D01*
X173755000Y-104375000D02*
X171850000Y-104375000D01*
X173990000Y-91440000D02*
X175549988Y-92999988D01*
X169545000Y-106680000D02*
X169545000Y-116840000D01*
X169545000Y-116840000D02*
X172085000Y-119380000D01*
X171850000Y-104375000D02*
X169545000Y-106680000D01*
X175549988Y-92999988D02*
X175549988Y-102580012D01*
D38*
X163195000Y-135890000D02*
X164465000Y-134620000D01*
X175981004Y-134620000D02*
X177800000Y-132801004D01*
X164465000Y-134620000D02*
X175981004Y-134620000D01*
X181610000Y-125730000D02*
X183515000Y-127635000D01*
X177800000Y-132801004D02*
X177800000Y-125730000D01*
X177800000Y-125730000D02*
X181610000Y-125730000D01*
X172995000Y-110875000D02*
X174875000Y-110875000D01*
X175260000Y-118110000D02*
X175260000Y-111260000D01*
X175260000Y-111260000D02*
X174875000Y-110875000D01*
X177800000Y-120650000D02*
X175260000Y-118110000D01*
X177800000Y-125730000D02*
X177800000Y-120650000D01*
X153560000Y-85725000D02*
X152085000Y-84250000D01*
X172720000Y-83820000D02*
X156845000Y-83820000D01*
X154940000Y-85725000D02*
X153560000Y-85725000D01*
X156845000Y-83820000D02*
X154940000Y-85725000D01*
X178435000Y-93720002D02*
X174884998Y-90170000D01*
X152085000Y-84250000D02*
X152085000Y-83450000D01*
X174884998Y-85984998D02*
X172720000Y-83820000D01*
X174884998Y-90170000D02*
X174884998Y-85984998D01*
X178435000Y-107315000D02*
X178435000Y-93720002D01*
X174875000Y-110875000D02*
X178435000Y-107315000D01*
X161290000Y-121920000D02*
X161924996Y-121920000D01*
X159385000Y-120015000D02*
X161290000Y-121920000D01*
X148590000Y-105340695D02*
X159385000Y-116135695D01*
X159385000Y-116135695D02*
X159385000Y-120015000D01*
X148590000Y-93345000D02*
X148590000Y-105340695D01*
X140335000Y-85090000D02*
X148590000Y-93345000D01*
X134620000Y-85090000D02*
X140335000Y-85090000D01*
X132080000Y-87630000D02*
X134620000Y-85090000D01*
X125730000Y-136525000D02*
X125730000Y-142875000D01*
X128270000Y-133985000D02*
X125730000Y-136525000D01*
X128270000Y-123825000D02*
X128270000Y-133985000D01*
X129540000Y-122555000D02*
X128270000Y-123825000D01*
X129540000Y-120650000D02*
X129540000Y-122555000D01*
X167640000Y-125730000D02*
X163830004Y-125730000D01*
X143510000Y-109855000D02*
X143510000Y-105410000D01*
X142240000Y-111125000D02*
X143510000Y-109855000D01*
X142240000Y-113030000D02*
X142240000Y-111125000D01*
X163830000Y-125730000D02*
X163830004Y-125730000D01*
X155575000Y-117475000D02*
X163830000Y-125730000D01*
X141605000Y-103725000D02*
X142460000Y-102870000D01*
X142460000Y-102870000D02*
X143510000Y-102870000D01*
X141605000Y-110490000D02*
X141605000Y-103725000D01*
X139700000Y-112395000D02*
X141605000Y-110490000D01*
X139700000Y-113030000D02*
X139700000Y-112395000D01*
X167005000Y-121285000D02*
X167640000Y-120650000D01*
X164465000Y-120650000D02*
X167640000Y-120650000D01*
X162560000Y-118745000D02*
X164465000Y-120650000D01*
X151130000Y-102870000D02*
X151130000Y-105410000D01*
X151130000Y-102870000D02*
X149225000Y-100965000D01*
X149225000Y-100965000D02*
X149225000Y-92075002D01*
X149225000Y-92075002D02*
X144779998Y-87630000D01*
X177165000Y-116575000D02*
X177160000Y-116570000D01*
X177165000Y-118110000D02*
X177165000Y-116575000D01*
X165790000Y-118055000D02*
X165735000Y-118110000D01*
X165790000Y-117220000D02*
X165790000Y-118055000D01*
X150330001Y-91274995D02*
X145415006Y-86360000D01*
X151130000Y-99060000D02*
X150330001Y-98260001D01*
X150330001Y-98260001D02*
X150330001Y-91274995D01*
X172720000Y-129720000D02*
X173810000Y-130810000D01*
X172720000Y-121920000D02*
X172720000Y-129720000D01*
X168910000Y-118110000D02*
X172720000Y-121920000D01*
X168910000Y-100965000D02*
X168910000Y-118110000D01*
X170500000Y-99375000D02*
X168910000Y-100965000D01*
X173675000Y-99375000D02*
X170500000Y-99375000D01*
X174625000Y-93345000D02*
X174625000Y-98425000D01*
X173355000Y-92075000D02*
X174625000Y-93345000D01*
X174625000Y-98425000D02*
X173675000Y-99375000D01*
X173810000Y-130810000D02*
X175260000Y-130810000D01*
X155575000Y-93345000D02*
X158750000Y-93345000D01*
X160020000Y-92075000D02*
X173355000Y-92075000D01*
X158750000Y-93345000D02*
X160020000Y-92075000D01*
X147685000Y-85455000D02*
X155575000Y-93345000D01*
X147685000Y-83450000D02*
X147685000Y-85455000D01*
X179705000Y-120015000D02*
X183515000Y-120015000D01*
X177160000Y-115370000D02*
X178235000Y-115370000D01*
X178235000Y-115370000D02*
X179070000Y-116205000D01*
X179070000Y-119380000D02*
X179705000Y-120015000D01*
X179070000Y-116205000D02*
X179070000Y-119380000D01*
X106680000Y-120650000D02*
X106680000Y-125730000D01*
X120015000Y-85090000D02*
X119920000Y-85090000D01*
X118745000Y-85090000D02*
X120015000Y-85090000D01*
X118110000Y-85725000D02*
X118745000Y-85090000D01*
X118110000Y-90805000D02*
X118110000Y-85725000D01*
X108094990Y-100820010D02*
X118110000Y-90805000D01*
X108094990Y-104630010D02*
X108094990Y-100820010D01*
X105554999Y-107170001D02*
X108094990Y-104630010D01*
X105554999Y-116349999D02*
X105554999Y-107170001D01*
X106680000Y-117475000D02*
X105554999Y-116349999D01*
X106680000Y-120650000D02*
X106680000Y-117475000D01*
X127000000Y-130810000D02*
X127000000Y-130175000D01*
X123190000Y-124460000D02*
X121285000Y-124460000D01*
X127000000Y-128270000D02*
X123190000Y-124460000D01*
X127000000Y-130810000D02*
X127000000Y-128270000D01*
X104140000Y-120650000D02*
X104140000Y-125730000D01*
X99060000Y-120650000D02*
X99060000Y-125730000D01*
X119380000Y-124687500D02*
X119380000Y-123825000D01*
X124460000Y-129767500D02*
X119380000Y-124687500D01*
X124460000Y-130810000D02*
X124460000Y-129767500D01*
X142850000Y-89600000D02*
X142850000Y-89560000D01*
M02*
