M48
; DRILL file {KiCad (5.1.9-0-10_14)} date Sunday, May 15, 2022 at 01:48:28 PM
; FORMAT={-:-/ absolute / metric / decimal}
; #@! TF.CreationDate,2022-05-15T13:48:28+02:00
; #@! TF.GenerationSoftware,Kicad,Pcbnew,(5.1.9-0-10_14)
; #@! TF.FileFunction,Plated,1,2,PTH
FMAT,2
METRIC
T1C0.400
T2C0.750
T3C0.800
T4C1.000
T5C3.200
%
G90
G05
T1
X87.63Y-116.84
X88.9Y-115.48
X91.44Y-97.155
X96.52Y-95.25
X97.155Y-135.89
X106.68Y-92.71
X111.125Y-107.95
X112.395Y-105.41
X113.03Y-90.17
X116.205Y-109.22
X118.11Y-105.41
X119.38Y-123.825
X119.38Y-126.365
X119.92Y-85.09
X121.285Y-124.46
X122.555Y-118.11
X123.19Y-107.315
X123.19Y-142.875
X123.825Y-85.09
X125.73Y-142.875
X127.0Y-115.57
X130.81Y-142.875
X132.08Y-110.49
X132.715Y-142.875
X133.35Y-114.935
X135.89Y-144.145
X136.525Y-100.33
X139.7Y-110.49
X139.7Y-134.62
X142.24Y-139.065
X142.875Y-83.82
X144.78Y-87.63
X144.78Y-110.49
X144.78Y-133.985
X145.415Y-86.36
X146.685Y-93.98
X151.13Y-84.455
X152.4Y-93.98
X154.305Y-83.82
X155.575Y-117.475
X156.21Y-142.24
X157.48Y-92.075
X157.48Y-111.125
X157.48Y-117.475
X157.48Y-125.095
X158.75Y-89.535
X161.925Y-121.92
X161.925Y-142.24
X162.56Y-118.745
X163.195Y-135.89
X165.735Y-118.11
X172.085Y-119.38
X172.72Y-100.965
X172.72Y-108.585
X176.53Y-89.535
X177.165Y-118.11
X181.61Y-92.075
X181.61Y-116.205
T2
X182.245Y-132.08
X182.245Y-133.35
X182.245Y-134.62
T3
X88.9Y-87.63
X88.9Y-102.87
X88.9Y-125.73
X88.9Y-130.81
X88.9Y-138.43
X88.9Y-142.24
X91.44Y-87.63
X91.44Y-102.87
X91.44Y-113.03
X91.44Y-120.65
X91.44Y-125.73
X91.44Y-130.81
X91.44Y-138.43
X93.9Y-142.24
X93.98Y-87.63
X93.98Y-102.87
X93.98Y-113.03
X93.98Y-120.65
X93.98Y-125.73
X93.98Y-130.81
X93.98Y-138.43
X96.52Y-87.63
X96.52Y-102.87
X96.52Y-113.03
X96.52Y-120.65
X96.52Y-125.73
X96.52Y-130.81
X96.52Y-138.43
X99.06Y-87.63
X99.06Y-102.87
X99.06Y-113.03
X99.06Y-120.65
X99.06Y-125.73
X99.06Y-130.81
X99.06Y-138.43
X101.6Y-87.63
X101.6Y-102.87
X101.6Y-113.03
X101.6Y-120.65
X101.6Y-125.73
X101.6Y-130.81
X101.6Y-138.43
X104.14Y-87.63
X104.14Y-102.87
X104.14Y-113.03
X104.14Y-120.65
X104.14Y-125.73
X104.14Y-130.81
X104.14Y-138.43
X106.68Y-87.63
X106.68Y-102.87
X106.68Y-113.03
X106.68Y-120.65
X106.68Y-125.73
X106.68Y-130.81
X106.68Y-138.43
X109.22Y-87.63
X109.22Y-102.87
X109.22Y-113.03
X109.22Y-120.65
X109.22Y-125.73
X109.22Y-130.81
X109.22Y-138.43
X111.76Y-87.63
X111.76Y-102.87
X111.76Y-130.81
X111.76Y-138.43
X114.3Y-87.63
X114.3Y-102.87
X116.84Y-87.63
X116.84Y-102.87
X116.84Y-113.03
X116.84Y-120.65
X116.84Y-130.81
X116.84Y-138.43
X118.745Y-109.22
X119.38Y-87.63
X119.38Y-102.87
X119.38Y-113.03
X119.38Y-120.65
X119.38Y-130.81
X119.38Y-138.43
X121.92Y-87.63
X121.92Y-102.87
X121.92Y-113.03
X121.92Y-120.65
X121.92Y-130.81
X121.92Y-138.43
X123.745Y-109.22
X124.46Y-87.63
X124.46Y-102.87
X124.46Y-113.03
X124.46Y-120.65
X124.46Y-130.81
X124.46Y-138.43
X127.0Y-87.63
X127.0Y-102.87
X127.0Y-113.03
X127.0Y-120.65
X127.0Y-130.81
X127.0Y-138.43
X127.08Y-125.73
X129.54Y-113.03
X129.54Y-120.65
X129.54Y-130.81
X129.54Y-138.43
X132.08Y-87.63
X132.08Y-90.17
X132.08Y-92.71
X132.08Y-95.25
X132.08Y-97.79
X132.08Y-100.33
X132.08Y-102.87
X132.08Y-105.41
X132.08Y-113.03
X132.08Y-120.65
X132.08Y-125.73
X132.08Y-130.81
X132.08Y-138.43
X134.62Y-113.03
X134.62Y-120.65
X134.62Y-130.81
X134.62Y-138.43
X137.16Y-113.03
X137.16Y-120.65
X137.16Y-130.81
X137.16Y-138.43
X137.16Y-142.24
X139.7Y-87.63
X139.7Y-90.17
X139.7Y-92.71
X139.7Y-95.25
X139.7Y-97.79
X139.7Y-100.33
X139.7Y-102.87
X139.7Y-105.41
X139.7Y-113.03
X139.7Y-120.65
X139.7Y-130.81
X139.7Y-138.43
X142.16Y-142.24
X142.24Y-113.03
X142.24Y-120.65
X143.51Y-99.06
X143.51Y-102.87
X143.51Y-105.41
X144.78Y-113.03
X144.78Y-120.65
X144.78Y-130.81
X144.78Y-138.43
X147.32Y-130.81
X147.32Y-138.43
X149.86Y-130.81
X149.86Y-138.43
X151.13Y-99.06
X151.13Y-102.87
X151.13Y-105.41
X152.4Y-130.81
X152.4Y-138.43
X154.305Y-98.505
X154.305Y-103.505
X154.94Y-130.81
X154.94Y-138.43
X157.48Y-130.81
X157.48Y-138.43
X160.02Y-130.81
X160.02Y-138.43
X162.56Y-130.81
X162.56Y-138.43
X167.64Y-120.65
X167.64Y-123.19
X167.64Y-125.73
X167.64Y-128.27
X167.64Y-130.81
X167.64Y-133.35
X167.64Y-135.89
X167.64Y-138.43
X167.64Y-142.24
X172.64Y-142.24
X175.26Y-120.65
X175.26Y-123.19
X175.26Y-125.73
X175.26Y-128.27
X175.26Y-130.81
X175.26Y-133.35
X175.26Y-135.89
X175.26Y-138.43
X179.705Y-120.015
X179.705Y-127.635
X183.515Y-120.015
X183.515Y-127.635
T4
X158.75Y-86.36
X161.29Y-86.36
T5
X182.956Y-85.273
X182.956Y-141.788
T0
M30
