%TF.GenerationSoftware,KiCad,Pcbnew,(5.1.9-0-10_14)*%
%TF.CreationDate,2022-05-15T13:48:24+02:00*%
%TF.ProjectId,xtsd,78747364-2e6b-4696-9361-645f70636258,rev?*%
%TF.SameCoordinates,Original*%
%TF.FileFunction,Soldermask,Top*%
%TF.FilePolarity,Negative*%
%FSLAX46Y46*%
G04 Gerber Fmt 4.6, Leading zero omitted, Abs format (unit mm)*
G04 Created by KiCad (PCBNEW (5.1.9-0-10_14)) date 2022-05-15 13:48:24*
%MOMM*%
%LPD*%
G01*
G04 APERTURE LIST*
%ADD10C,0.120000*%
%ADD11C,0.010000*%
%ADD12O,1.700000X1.700000*%
%ADD13R,1.700000X1.700000*%
%ADD14R,1.780000X7.366000*%
%ADD15O,1.600000X2.400000*%
%ADD16R,1.600000X2.400000*%
%ADD17C,4.000000*%
%ADD18R,1.950000X1.200000*%
%ADD19R,3.200000X2.100000*%
%ADD20R,2.000000X1.000000*%
%ADD21R,2.200000X1.550000*%
%ADD22R,4.170000X1.550000*%
%ADD23R,1.650000X1.500000*%
%ADD24R,1.100000X1.500000*%
%ADD25R,1.870000X1.600000*%
%ADD26O,1.600000X1.600000*%
%ADD27R,1.600000X1.600000*%
%ADD28C,1.600000*%
%ADD29O,2.400000X1.600000*%
%ADD30R,2.400000X1.600000*%
%ADD31R,1.500000X1.050000*%
%ADD32O,1.500000X1.050000*%
%ADD33R,0.850000X1.100000*%
%ADD34R,0.750000X1.100000*%
%ADD35R,1.170000X1.800000*%
%ADD36R,1.550000X1.350000*%
%ADD37R,1.200000X1.000000*%
%ADD38R,1.900000X1.350000*%
G04 APERTURE END LIST*
D10*
X83947000Y-153670000D02*
X83947000Y-146050000D01*
D11*
G36*
X83947000Y-146050000D02*
G01*
X164973000Y-146050000D01*
X164973000Y-153670000D01*
X83947000Y-153670000D01*
X83947000Y-146050000D01*
G37*
X83947000Y-146050000D02*
X164973000Y-146050000D01*
X164973000Y-153670000D01*
X83947000Y-153670000D01*
X83947000Y-146050000D01*
D12*
X161290000Y-86360000D03*
D13*
X158750000Y-86360000D03*
D14*
X137160000Y-149733000D03*
X139700000Y-149733000D03*
X142240000Y-149733000D03*
X144780000Y-149733000D03*
X147320000Y-149733000D03*
X149860000Y-149733000D03*
X152400000Y-149733000D03*
X154940000Y-149733000D03*
X157480000Y-149733000D03*
X160020000Y-149733000D03*
X162560000Y-149733000D03*
X86360000Y-149733000D03*
X88900000Y-149733000D03*
X91440000Y-149733000D03*
X93980000Y-149733000D03*
X96520000Y-149733000D03*
X99060000Y-149733000D03*
X101600000Y-149733000D03*
X104140000Y-149733000D03*
X106680000Y-149733000D03*
X109220000Y-149733000D03*
X111760000Y-149733000D03*
X114300000Y-149733000D03*
X116840000Y-149733000D03*
X119380000Y-149733000D03*
X121920000Y-149733000D03*
X124460000Y-149733000D03*
X127000000Y-149733000D03*
X129540000Y-149733000D03*
X132080000Y-149733000D03*
X134620000Y-149733000D03*
D15*
X88900000Y-130810000D03*
X111760000Y-138430000D03*
X91440000Y-130810000D03*
X109220000Y-138430000D03*
X93980000Y-130810000D03*
X106680000Y-138430000D03*
X96520000Y-130810000D03*
X104140000Y-138430000D03*
X99060000Y-130810000D03*
X101600000Y-138430000D03*
X101600000Y-130810000D03*
X99060000Y-138430000D03*
X104140000Y-130810000D03*
X96520000Y-138430000D03*
X106680000Y-130810000D03*
X93980000Y-138430000D03*
X109220000Y-130810000D03*
X91440000Y-138430000D03*
X111760000Y-130810000D03*
D16*
X88900000Y-138430000D03*
D17*
X182956200Y-85273000D03*
X182956200Y-141788000D03*
D15*
X144780000Y-130810000D03*
X162560000Y-138430000D03*
X147320000Y-130810000D03*
X160020000Y-138430000D03*
X149860000Y-130810000D03*
X157480000Y-138430000D03*
X152400000Y-130810000D03*
X154940000Y-138430000D03*
X154940000Y-130810000D03*
X152400000Y-138430000D03*
X157480000Y-130810000D03*
X149860000Y-138430000D03*
X160020000Y-130810000D03*
X147320000Y-138430000D03*
X162560000Y-130810000D03*
D16*
X144780000Y-138430000D03*
D15*
X116840000Y-130810000D03*
X139700000Y-138430000D03*
X119380000Y-130810000D03*
X137160000Y-138430000D03*
X121920000Y-130810000D03*
X134620000Y-138430000D03*
X124460000Y-130810000D03*
X132080000Y-138430000D03*
X127000000Y-130810000D03*
X129540000Y-138430000D03*
X129540000Y-130810000D03*
X127000000Y-138430000D03*
X132080000Y-130810000D03*
X124460000Y-138430000D03*
X134620000Y-130810000D03*
X121920000Y-138430000D03*
X137160000Y-130810000D03*
X119380000Y-138430000D03*
X139700000Y-130810000D03*
D16*
X116840000Y-138430000D03*
D18*
X172995000Y-96875000D03*
X172995000Y-99375000D03*
X172995000Y-101875000D03*
X172995000Y-104375000D03*
X172995000Y-106875000D03*
X172995000Y-109375000D03*
X172995000Y-110875000D03*
X172995000Y-112375000D03*
X172995000Y-94375000D03*
D19*
X181300000Y-115650000D03*
X181300000Y-91850000D03*
D20*
X177160000Y-115370000D03*
X177160000Y-116570000D03*
D21*
X176620000Y-89445000D03*
D22*
X158885000Y-89445000D03*
D23*
X157625000Y-117220000D03*
D24*
X165790000Y-117220000D03*
D25*
X157735000Y-111350000D03*
D26*
X109220000Y-120650000D03*
X91440000Y-113030000D03*
X106680000Y-120650000D03*
X93980000Y-113030000D03*
X104140000Y-120650000D03*
X96520000Y-113030000D03*
X101600000Y-120650000D03*
X99060000Y-113030000D03*
X99060000Y-120650000D03*
X101600000Y-113030000D03*
X96520000Y-120650000D03*
X104140000Y-113030000D03*
X93980000Y-120650000D03*
X106680000Y-113030000D03*
X91440000Y-120650000D03*
D27*
X109220000Y-113030000D03*
D15*
X127000000Y-102870000D03*
X88900000Y-87630000D03*
X124460000Y-102870000D03*
X91440000Y-87630000D03*
X121920000Y-102870000D03*
X93980000Y-87630000D03*
X119380000Y-102870000D03*
X96520000Y-87630000D03*
X116840000Y-102870000D03*
X99060000Y-87630000D03*
X114300000Y-102870000D03*
X101600000Y-87630000D03*
X111760000Y-102870000D03*
X104140000Y-87630000D03*
X109220000Y-102870000D03*
X106680000Y-87630000D03*
X106680000Y-102870000D03*
X109220000Y-87630000D03*
X104140000Y-102870000D03*
X111760000Y-87630000D03*
X101600000Y-102870000D03*
X114300000Y-87630000D03*
X99060000Y-102870000D03*
X116840000Y-87630000D03*
X96520000Y-102870000D03*
X119380000Y-87630000D03*
X93980000Y-102870000D03*
X121920000Y-87630000D03*
X91440000Y-102870000D03*
X124460000Y-87630000D03*
X88900000Y-102870000D03*
D16*
X127000000Y-87630000D03*
D26*
X183515000Y-120015000D03*
D28*
X183515000Y-127635000D03*
D26*
X179705000Y-120015000D03*
D28*
X179705000Y-127635000D03*
D15*
X116840000Y-113030000D03*
X144780000Y-120650000D03*
X119380000Y-113030000D03*
X142240000Y-120650000D03*
X121920000Y-113030000D03*
X139700000Y-120650000D03*
X124460000Y-113030000D03*
X137160000Y-120650000D03*
X127000000Y-113030000D03*
X134620000Y-120650000D03*
X129540000Y-113030000D03*
X132080000Y-120650000D03*
X132080000Y-113030000D03*
X129540000Y-120650000D03*
X134620000Y-113030000D03*
X127000000Y-120650000D03*
X137160000Y-113030000D03*
X124460000Y-120650000D03*
X139700000Y-113030000D03*
X121920000Y-120650000D03*
X142240000Y-113030000D03*
X119380000Y-120650000D03*
X144780000Y-113030000D03*
D16*
X116840000Y-120650000D03*
D29*
X132080000Y-105410000D03*
X139700000Y-87630000D03*
X132080000Y-102870000D03*
X139700000Y-90170000D03*
X132080000Y-100330000D03*
X139700000Y-92710000D03*
X132080000Y-97790000D03*
X139700000Y-95250000D03*
X132080000Y-95250000D03*
X139700000Y-97790000D03*
X132080000Y-92710000D03*
X139700000Y-100330000D03*
X132080000Y-90170000D03*
X139700000Y-102870000D03*
X132080000Y-87630000D03*
D30*
X139700000Y-105410000D03*
D26*
X151130000Y-105410000D03*
D27*
X143510000Y-105410000D03*
D26*
X151130000Y-102870000D03*
D27*
X143510000Y-102870000D03*
D26*
X151130000Y-99060000D03*
D28*
X143510000Y-99060000D03*
D31*
X182245000Y-132080000D03*
D32*
X182245000Y-134620000D03*
X182245000Y-133350000D03*
D33*
X145485000Y-83450000D03*
D34*
X153135000Y-83450000D03*
D33*
X146585000Y-83450000D03*
X147685000Y-83450000D03*
X148785000Y-83450000D03*
X149885000Y-83450000D03*
X150985000Y-83450000D03*
X152085000Y-83450000D03*
D35*
X154345000Y-83800000D03*
D36*
X143025000Y-83575000D03*
D37*
X142850000Y-93300000D03*
X142850000Y-89600000D03*
D38*
X146350000Y-94275000D03*
X152320000Y-94275000D03*
D26*
X109220000Y-125730000D03*
X106680000Y-125730000D03*
X104140000Y-125730000D03*
X101600000Y-125730000D03*
X99060000Y-125730000D03*
X96520000Y-125730000D03*
X93980000Y-125730000D03*
X91440000Y-125730000D03*
D27*
X88900000Y-125730000D03*
D28*
X123745000Y-109220000D03*
X118745000Y-109220000D03*
X154305000Y-103505000D03*
X154305000Y-98505000D03*
D29*
X167640000Y-138430000D03*
X175260000Y-120650000D03*
X167640000Y-135890000D03*
X175260000Y-123190000D03*
X167640000Y-133350000D03*
X175260000Y-125730000D03*
X167640000Y-130810000D03*
X175260000Y-128270000D03*
X167640000Y-128270000D03*
X175260000Y-130810000D03*
X167640000Y-125730000D03*
X175260000Y-133350000D03*
X167640000Y-123190000D03*
X175260000Y-135890000D03*
X167640000Y-120650000D03*
D30*
X175260000Y-138430000D03*
D28*
X167640000Y-142240000D03*
X172640000Y-142240000D03*
X142160000Y-142240000D03*
X137160000Y-142240000D03*
X88900000Y-142240000D03*
X93900000Y-142240000D03*
X132080000Y-125730000D03*
X127080000Y-125730000D03*
M02*
