%TF.GenerationSoftware,KiCad,Pcbnew,(5.1.9-0-10_14)*%
%TF.CreationDate,2022-05-15T13:48:24+02:00*%
%TF.ProjectId,xtsd,78747364-2e6b-4696-9361-645f70636258,rev?*%
%TF.SameCoordinates,Original*%
%TF.FileFunction,Legend,Top*%
%TF.FilePolarity,Positive*%
%FSLAX46Y46*%
G04 Gerber Fmt 4.6, Leading zero omitted, Abs format (unit mm)*
G04 Created by KiCad (PCBNEW (5.1.9-0-10_14)) date 2022-05-15 13:48:24*
%MOMM*%
%LPD*%
G01*
G04 APERTURE LIST*
%ADD10C,0.150000*%
%ADD11C,0.120000*%
%ADD12C,0.250000*%
%ADD13C,0.010000*%
%ADD14O,1.700000X1.700000*%
%ADD15R,1.700000X1.700000*%
%ADD16R,1.780000X7.366000*%
%ADD17O,1.600000X2.400000*%
%ADD18R,1.600000X2.400000*%
%ADD19C,4.000000*%
%ADD20R,1.950000X1.200000*%
%ADD21R,3.200000X2.100000*%
%ADD22R,2.000000X1.000000*%
%ADD23R,2.200000X1.550000*%
%ADD24R,4.170000X1.550000*%
%ADD25R,1.650000X1.500000*%
%ADD26R,1.100000X1.500000*%
%ADD27R,1.870000X1.600000*%
%ADD28O,1.600000X1.600000*%
%ADD29R,1.600000X1.600000*%
%ADD30C,1.600000*%
%ADD31O,2.400000X1.600000*%
%ADD32R,2.400000X1.600000*%
%ADD33R,1.500000X1.050000*%
%ADD34O,1.500000X1.050000*%
%ADD35R,0.850000X1.100000*%
%ADD36R,0.750000X1.100000*%
%ADD37R,1.170000X1.800000*%
%ADD38R,1.550000X1.350000*%
%ADD39R,1.200000X1.000000*%
%ADD40R,1.900000X1.350000*%
G04 APERTURE END LIST*
D10*
X123650952Y-134072380D02*
X123650952Y-134786666D01*
X123603333Y-134929523D01*
X123508095Y-135024761D01*
X123365238Y-135072380D01*
X123270000Y-135072380D01*
X124603333Y-135072380D02*
X124127142Y-135072380D01*
X124127142Y-134072380D01*
X125508095Y-134977142D02*
X125460476Y-135024761D01*
X125317619Y-135072380D01*
X125222380Y-135072380D01*
X125079523Y-135024761D01*
X124984285Y-134929523D01*
X124936666Y-134834285D01*
X124889047Y-134643809D01*
X124889047Y-134500952D01*
X124936666Y-134310476D01*
X124984285Y-134215238D01*
X125079523Y-134120000D01*
X125222380Y-134072380D01*
X125317619Y-134072380D01*
X125460476Y-134120000D01*
X125508095Y-134167619D01*
X126222380Y-134072380D02*
X126222380Y-134786666D01*
X126174761Y-134929523D01*
X126079523Y-135024761D01*
X125936666Y-135072380D01*
X125841428Y-135072380D01*
X127174761Y-135072380D02*
X126698571Y-135072380D01*
X126698571Y-134072380D01*
X128079523Y-134977142D02*
X128031904Y-135024761D01*
X127889047Y-135072380D01*
X127793809Y-135072380D01*
X127650952Y-135024761D01*
X127555714Y-134929523D01*
X127508095Y-134834285D01*
X127460476Y-134643809D01*
X127460476Y-134500952D01*
X127508095Y-134310476D01*
X127555714Y-134215238D01*
X127650952Y-134120000D01*
X127793809Y-134072380D01*
X127889047Y-134072380D01*
X128031904Y-134120000D01*
X128079523Y-134167619D01*
X128793809Y-134072380D02*
X128793809Y-134786666D01*
X128746190Y-134929523D01*
X128650952Y-135024761D01*
X128508095Y-135072380D01*
X128412857Y-135072380D01*
X129746190Y-135072380D02*
X129270000Y-135072380D01*
X129270000Y-134072380D01*
X130650952Y-134977142D02*
X130603333Y-135024761D01*
X130460476Y-135072380D01*
X130365238Y-135072380D01*
X130222380Y-135024761D01*
X130127142Y-134929523D01*
X130079523Y-134834285D01*
X130031904Y-134643809D01*
X130031904Y-134500952D01*
X130079523Y-134310476D01*
X130127142Y-134215238D01*
X130222380Y-134120000D01*
X130365238Y-134072380D01*
X130460476Y-134072380D01*
X130603333Y-134120000D01*
X130650952Y-134167619D01*
X131365238Y-134072380D02*
X131365238Y-134786666D01*
X131317619Y-134929523D01*
X131222380Y-135024761D01*
X131079523Y-135072380D01*
X130984285Y-135072380D01*
X132317619Y-135072380D02*
X131841428Y-135072380D01*
X131841428Y-134072380D01*
X133222380Y-134977142D02*
X133174761Y-135024761D01*
X133031904Y-135072380D01*
X132936666Y-135072380D01*
X132793809Y-135024761D01*
X132698571Y-134929523D01*
X132650952Y-134834285D01*
X132603333Y-134643809D01*
X132603333Y-134500952D01*
X132650952Y-134310476D01*
X132698571Y-134215238D01*
X132793809Y-134120000D01*
X132936666Y-134072380D01*
X133031904Y-134072380D01*
X133174761Y-134120000D01*
X133222380Y-134167619D01*
X87634285Y-83633571D02*
X88634285Y-85133571D01*
X88634285Y-83633571D02*
X87634285Y-85133571D01*
X88991428Y-83633571D02*
X89848571Y-83633571D01*
X89420000Y-85133571D02*
X89420000Y-83633571D01*
X90277142Y-85062142D02*
X90491428Y-85133571D01*
X90848571Y-85133571D01*
X90991428Y-85062142D01*
X91062857Y-84990714D01*
X91134285Y-84847857D01*
X91134285Y-84705000D01*
X91062857Y-84562142D01*
X90991428Y-84490714D01*
X90848571Y-84419285D01*
X90562857Y-84347857D01*
X90420000Y-84276428D01*
X90348571Y-84205000D01*
X90277142Y-84062142D01*
X90277142Y-83919285D01*
X90348571Y-83776428D01*
X90420000Y-83705000D01*
X90562857Y-83633571D01*
X90920000Y-83633571D01*
X91134285Y-83705000D01*
X91777142Y-85133571D02*
X91777142Y-83633571D01*
X92134285Y-83633571D01*
X92348571Y-83705000D01*
X92491428Y-83847857D01*
X92562857Y-83990714D01*
X92634285Y-84276428D01*
X92634285Y-84490714D01*
X92562857Y-84776428D01*
X92491428Y-84919285D01*
X92348571Y-85062142D01*
X92134285Y-85133571D01*
X91777142Y-85133571D01*
X112101428Y-109668571D02*
X112387142Y-109668571D01*
X112530000Y-109740000D01*
X112672857Y-109882857D01*
X112744285Y-110168571D01*
X112744285Y-110668571D01*
X112672857Y-110954285D01*
X112530000Y-111097142D01*
X112387142Y-111168571D01*
X112101428Y-111168571D01*
X111958571Y-111097142D01*
X111815714Y-110954285D01*
X111744285Y-110668571D01*
X111744285Y-110168571D01*
X111815714Y-109882857D01*
X111958571Y-109740000D01*
X112101428Y-109668571D01*
X113387142Y-111168571D02*
X113387142Y-109668571D01*
X114244285Y-111168571D01*
X114244285Y-109668571D01*
X106180000Y-109668571D02*
X107180000Y-109668571D01*
X106537142Y-111168571D01*
X104425714Y-109668571D02*
X104140000Y-109668571D01*
X103997142Y-109740000D01*
X103925714Y-109811428D01*
X103782857Y-110025714D01*
X103711428Y-110311428D01*
X103711428Y-110882857D01*
X103782857Y-111025714D01*
X103854285Y-111097142D01*
X103997142Y-111168571D01*
X104282857Y-111168571D01*
X104425714Y-111097142D01*
X104497142Y-111025714D01*
X104568571Y-110882857D01*
X104568571Y-110525714D01*
X104497142Y-110382857D01*
X104425714Y-110311428D01*
X104282857Y-110240000D01*
X103997142Y-110240000D01*
X103854285Y-110311428D01*
X103782857Y-110382857D01*
X103711428Y-110525714D01*
X101957142Y-109668571D02*
X101242857Y-109668571D01*
X101171428Y-110382857D01*
X101242857Y-110311428D01*
X101385714Y-110240000D01*
X101742857Y-110240000D01*
X101885714Y-110311428D01*
X101957142Y-110382857D01*
X102028571Y-110525714D01*
X102028571Y-110882857D01*
X101957142Y-111025714D01*
X101885714Y-111097142D01*
X101742857Y-111168571D01*
X101385714Y-111168571D01*
X101242857Y-111097142D01*
X101171428Y-111025714D01*
X99345714Y-110168571D02*
X99345714Y-111168571D01*
X98988571Y-109597142D02*
X98631428Y-110668571D01*
X99560000Y-110668571D01*
X96020000Y-109668571D02*
X96948571Y-109668571D01*
X96448571Y-110240000D01*
X96662857Y-110240000D01*
X96805714Y-110311428D01*
X96877142Y-110382857D01*
X96948571Y-110525714D01*
X96948571Y-110882857D01*
X96877142Y-111025714D01*
X96805714Y-111097142D01*
X96662857Y-111168571D01*
X96234285Y-111168571D01*
X96091428Y-111097142D01*
X96020000Y-111025714D01*
X93551428Y-109811428D02*
X93622857Y-109740000D01*
X93765714Y-109668571D01*
X94122857Y-109668571D01*
X94265714Y-109740000D01*
X94337142Y-109811428D01*
X94408571Y-109954285D01*
X94408571Y-110097142D01*
X94337142Y-110311428D01*
X93480000Y-111168571D01*
X94408571Y-111168571D01*
X109077142Y-110311428D02*
X108934285Y-110240000D01*
X108862857Y-110168571D01*
X108791428Y-110025714D01*
X108791428Y-109954285D01*
X108862857Y-109811428D01*
X108934285Y-109740000D01*
X109077142Y-109668571D01*
X109362857Y-109668571D01*
X109505714Y-109740000D01*
X109577142Y-109811428D01*
X109648571Y-109954285D01*
X109648571Y-110025714D01*
X109577142Y-110168571D01*
X109505714Y-110240000D01*
X109362857Y-110311428D01*
X109077142Y-110311428D01*
X108934285Y-110382857D01*
X108862857Y-110454285D01*
X108791428Y-110597142D01*
X108791428Y-110882857D01*
X108862857Y-111025714D01*
X108934285Y-111097142D01*
X109077142Y-111168571D01*
X109362857Y-111168571D01*
X109505714Y-111097142D01*
X109577142Y-111025714D01*
X109648571Y-110882857D01*
X109648571Y-110597142D01*
X109577142Y-110454285D01*
X109505714Y-110382857D01*
X109362857Y-110311428D01*
X91868571Y-111168571D02*
X91011428Y-111168571D01*
X91440000Y-111168571D02*
X91440000Y-109668571D01*
X91297142Y-109882857D01*
X91154285Y-110025714D01*
X91011428Y-110097142D01*
D11*
X157420000Y-84920000D02*
X162620000Y-84920000D01*
X162620000Y-84920000D02*
X162620000Y-82260000D01*
X162620000Y-82260000D02*
X157420000Y-82260000D01*
X157420000Y-82260000D02*
X157420000Y-84920000D01*
X158370000Y-82260000D02*
X158370000Y-76260000D01*
X158370000Y-76260000D02*
X159130000Y-76260000D01*
X159130000Y-76260000D02*
X159130000Y-82260000D01*
X158430000Y-82260000D02*
X158430000Y-76260000D01*
X158550000Y-82260000D02*
X158550000Y-76260000D01*
X158670000Y-82260000D02*
X158670000Y-76260000D01*
X158790000Y-82260000D02*
X158790000Y-76260000D01*
X158910000Y-82260000D02*
X158910000Y-76260000D01*
X159030000Y-82260000D02*
X159030000Y-76260000D01*
X158370000Y-85250000D02*
X158370000Y-84920000D01*
X159130000Y-85250000D02*
X159130000Y-84920000D01*
X160020000Y-84920000D02*
X160020000Y-82260000D01*
X160910000Y-82260000D02*
X160910000Y-76260000D01*
X160910000Y-76260000D02*
X161670000Y-76260000D01*
X161670000Y-76260000D02*
X161670000Y-82260000D01*
X160910000Y-85317071D02*
X160910000Y-84920000D01*
X161670000Y-85317071D02*
X161670000Y-84920000D01*
X158750000Y-87630000D02*
X157480000Y-87630000D01*
X157480000Y-87630000D02*
X157480000Y-86360000D01*
X87570000Y-135620000D02*
X87570000Y-136870000D01*
X87570000Y-136870000D02*
X113090000Y-136870000D01*
X113090000Y-136870000D02*
X113090000Y-132370000D01*
X113090000Y-132370000D02*
X87570000Y-132370000D01*
X87570000Y-132370000D02*
X87570000Y-133620000D01*
X87570000Y-133620000D02*
G75*
G02*
X87570000Y-135620000I0J-1000000D01*
G01*
D12*
X185956200Y-141788000D02*
G75*
G03*
X185956200Y-141788000I-3000000J0D01*
G01*
X185956200Y-85273000D02*
G75*
G03*
X185956200Y-85273000I-3000000J0D01*
G01*
D11*
X143450000Y-135620000D02*
X143450000Y-136870000D01*
X143450000Y-136870000D02*
X163890000Y-136870000D01*
X163890000Y-136870000D02*
X163890000Y-132370000D01*
X163890000Y-132370000D02*
X143450000Y-132370000D01*
X143450000Y-132370000D02*
X143450000Y-133620000D01*
X143450000Y-133620000D02*
G75*
G02*
X143450000Y-135620000I0J-1000000D01*
G01*
X115510000Y-135620000D02*
X115510000Y-136870000D01*
X115510000Y-136870000D02*
X141030000Y-136870000D01*
X141030000Y-136870000D02*
X141030000Y-132370000D01*
X141030000Y-132370000D02*
X115510000Y-132370000D01*
X115510000Y-132370000D02*
X115510000Y-133620000D01*
X115510000Y-133620000D02*
G75*
G02*
X115510000Y-135620000I0J-1000000D01*
G01*
X184700000Y-91000000D02*
X183100000Y-91000000D01*
X179500000Y-91000000D02*
X178800000Y-91000000D01*
X178800000Y-91000000D02*
X178800000Y-89500000D01*
X178800000Y-89500000D02*
X177900000Y-89500000D01*
X175400000Y-89500000D02*
X161200000Y-89500000D01*
X157000000Y-90400000D02*
X157000000Y-110400000D01*
X157000000Y-112300000D02*
X157000000Y-116300000D01*
X158700000Y-117200000D02*
X165100000Y-117200000D01*
X166500000Y-117200000D02*
X176000000Y-117200000D01*
X178300000Y-117200000D02*
X178800000Y-117200000D01*
X178800000Y-117200000D02*
X178800000Y-116300000D01*
X178800000Y-116300000D02*
X179500000Y-116300000D01*
X183100000Y-116300000D02*
X184700000Y-116300000D01*
X184700000Y-116300000D02*
X184700000Y-91000000D01*
X111640000Y-111890000D02*
X111640000Y-121790000D01*
X89019000Y-111890000D02*
X89019000Y-121790000D01*
X111640000Y-111890000D02*
X89019000Y-111890000D01*
X111640000Y-121790000D02*
X89019000Y-121790000D01*
X111880000Y-111650000D02*
X111880000Y-113034000D01*
X111880000Y-111650000D02*
X110497000Y-111650000D01*
X109855000Y-114810000D02*
X108585000Y-114810000D01*
X108585000Y-114810000D02*
X108585000Y-118870000D01*
X108585000Y-118870000D02*
X109855000Y-118870000D01*
X109855000Y-118870000D02*
X109855000Y-114810000D01*
X109735000Y-114810000D02*
X109735000Y-116163333D01*
X109615000Y-114810000D02*
X109615000Y-116163333D01*
X109495000Y-114810000D02*
X109495000Y-116163333D01*
X109375000Y-114810000D02*
X109375000Y-116163333D01*
X109255000Y-114810000D02*
X109255000Y-116163333D01*
X109135000Y-114810000D02*
X109135000Y-116163333D01*
X109015000Y-114810000D02*
X109015000Y-116163333D01*
X108895000Y-114810000D02*
X108895000Y-116163333D01*
X108775000Y-114810000D02*
X108775000Y-116163333D01*
X108655000Y-114810000D02*
X108655000Y-116163333D01*
X109855000Y-116163333D02*
X108585000Y-116163333D01*
X107315000Y-114810000D02*
X106045000Y-114810000D01*
X106045000Y-114810000D02*
X106045000Y-118870000D01*
X106045000Y-118870000D02*
X107315000Y-118870000D01*
X107315000Y-118870000D02*
X107315000Y-114810000D01*
X107195000Y-114810000D02*
X107195000Y-116163333D01*
X107075000Y-114810000D02*
X107075000Y-116163333D01*
X106955000Y-114810000D02*
X106955000Y-116163333D01*
X106835000Y-114810000D02*
X106835000Y-116163333D01*
X106715000Y-114810000D02*
X106715000Y-116163333D01*
X106595000Y-114810000D02*
X106595000Y-116163333D01*
X106475000Y-114810000D02*
X106475000Y-116163333D01*
X106355000Y-114810000D02*
X106355000Y-116163333D01*
X106235000Y-114810000D02*
X106235000Y-116163333D01*
X106115000Y-114810000D02*
X106115000Y-116163333D01*
X107315000Y-116163333D02*
X106045000Y-116163333D01*
X104775000Y-114810000D02*
X103505000Y-114810000D01*
X103505000Y-114810000D02*
X103505000Y-118870000D01*
X103505000Y-118870000D02*
X104775000Y-118870000D01*
X104775000Y-118870000D02*
X104775000Y-114810000D01*
X104655000Y-114810000D02*
X104655000Y-116163333D01*
X104535000Y-114810000D02*
X104535000Y-116163333D01*
X104415000Y-114810000D02*
X104415000Y-116163333D01*
X104295000Y-114810000D02*
X104295000Y-116163333D01*
X104175000Y-114810000D02*
X104175000Y-116163333D01*
X104055000Y-114810000D02*
X104055000Y-116163333D01*
X103935000Y-114810000D02*
X103935000Y-116163333D01*
X103815000Y-114810000D02*
X103815000Y-116163333D01*
X103695000Y-114810000D02*
X103695000Y-116163333D01*
X103575000Y-114810000D02*
X103575000Y-116163333D01*
X104775000Y-116163333D02*
X103505000Y-116163333D01*
X102235000Y-114810000D02*
X100965000Y-114810000D01*
X100965000Y-114810000D02*
X100965000Y-118870000D01*
X100965000Y-118870000D02*
X102235000Y-118870000D01*
X102235000Y-118870000D02*
X102235000Y-114810000D01*
X102115000Y-114810000D02*
X102115000Y-116163333D01*
X101995000Y-114810000D02*
X101995000Y-116163333D01*
X101875000Y-114810000D02*
X101875000Y-116163333D01*
X101755000Y-114810000D02*
X101755000Y-116163333D01*
X101635000Y-114810000D02*
X101635000Y-116163333D01*
X101515000Y-114810000D02*
X101515000Y-116163333D01*
X101395000Y-114810000D02*
X101395000Y-116163333D01*
X101275000Y-114810000D02*
X101275000Y-116163333D01*
X101155000Y-114810000D02*
X101155000Y-116163333D01*
X101035000Y-114810000D02*
X101035000Y-116163333D01*
X102235000Y-116163333D02*
X100965000Y-116163333D01*
X99695000Y-114810000D02*
X98425000Y-114810000D01*
X98425000Y-114810000D02*
X98425000Y-118870000D01*
X98425000Y-118870000D02*
X99695000Y-118870000D01*
X99695000Y-118870000D02*
X99695000Y-114810000D01*
X99575000Y-114810000D02*
X99575000Y-116163333D01*
X99455000Y-114810000D02*
X99455000Y-116163333D01*
X99335000Y-114810000D02*
X99335000Y-116163333D01*
X99215000Y-114810000D02*
X99215000Y-116163333D01*
X99095000Y-114810000D02*
X99095000Y-116163333D01*
X98975000Y-114810000D02*
X98975000Y-116163333D01*
X98855000Y-114810000D02*
X98855000Y-116163333D01*
X98735000Y-114810000D02*
X98735000Y-116163333D01*
X98615000Y-114810000D02*
X98615000Y-116163333D01*
X98495000Y-114810000D02*
X98495000Y-116163333D01*
X99695000Y-116163333D02*
X98425000Y-116163333D01*
X97155000Y-114810000D02*
X95885000Y-114810000D01*
X95885000Y-114810000D02*
X95885000Y-118870000D01*
X95885000Y-118870000D02*
X97155000Y-118870000D01*
X97155000Y-118870000D02*
X97155000Y-114810000D01*
X97035000Y-114810000D02*
X97035000Y-116163333D01*
X96915000Y-114810000D02*
X96915000Y-116163333D01*
X96795000Y-114810000D02*
X96795000Y-116163333D01*
X96675000Y-114810000D02*
X96675000Y-116163333D01*
X96555000Y-114810000D02*
X96555000Y-116163333D01*
X96435000Y-114810000D02*
X96435000Y-116163333D01*
X96315000Y-114810000D02*
X96315000Y-116163333D01*
X96195000Y-114810000D02*
X96195000Y-116163333D01*
X96075000Y-114810000D02*
X96075000Y-116163333D01*
X95955000Y-114810000D02*
X95955000Y-116163333D01*
X97155000Y-116163333D02*
X95885000Y-116163333D01*
X94615000Y-114810000D02*
X93345000Y-114810000D01*
X93345000Y-114810000D02*
X93345000Y-118870000D01*
X93345000Y-118870000D02*
X94615000Y-118870000D01*
X94615000Y-118870000D02*
X94615000Y-114810000D01*
X94495000Y-114810000D02*
X94495000Y-116163333D01*
X94375000Y-114810000D02*
X94375000Y-116163333D01*
X94255000Y-114810000D02*
X94255000Y-116163333D01*
X94135000Y-114810000D02*
X94135000Y-116163333D01*
X94015000Y-114810000D02*
X94015000Y-116163333D01*
X93895000Y-114810000D02*
X93895000Y-116163333D01*
X93775000Y-114810000D02*
X93775000Y-116163333D01*
X93655000Y-114810000D02*
X93655000Y-116163333D01*
X93535000Y-114810000D02*
X93535000Y-116163333D01*
X93415000Y-114810000D02*
X93415000Y-116163333D01*
X94615000Y-116163333D02*
X93345000Y-116163333D01*
X92075000Y-114810000D02*
X90805000Y-114810000D01*
X90805000Y-114810000D02*
X90805000Y-118870000D01*
X90805000Y-118870000D02*
X92075000Y-118870000D01*
X92075000Y-118870000D02*
X92075000Y-114810000D01*
X91955000Y-114810000D02*
X91955000Y-116163333D01*
X91835000Y-114810000D02*
X91835000Y-116163333D01*
X91715000Y-114810000D02*
X91715000Y-116163333D01*
X91595000Y-114810000D02*
X91595000Y-116163333D01*
X91475000Y-114810000D02*
X91475000Y-116163333D01*
X91355000Y-114810000D02*
X91355000Y-116163333D01*
X91235000Y-114810000D02*
X91235000Y-116163333D01*
X91115000Y-114810000D02*
X91115000Y-116163333D01*
X90995000Y-114810000D02*
X90995000Y-116163333D01*
X90875000Y-114810000D02*
X90875000Y-116163333D01*
X92075000Y-116163333D02*
X90805000Y-116163333D01*
X128330000Y-94250000D02*
X128330000Y-89190000D01*
X128330000Y-89190000D02*
X87570000Y-89190000D01*
X87570000Y-89190000D02*
X87570000Y-101310000D01*
X87570000Y-101310000D02*
X128330000Y-101310000D01*
X128330000Y-101310000D02*
X128330000Y-96250000D01*
X128390000Y-86190000D02*
X87510000Y-86190000D01*
X87510000Y-86190000D02*
X87510000Y-104310000D01*
X87510000Y-104310000D02*
X128390000Y-104310000D01*
X128390000Y-104310000D02*
X128390000Y-86190000D01*
X128330000Y-96250000D02*
G75*
G02*
X128330000Y-94250000I0J1000000D01*
G01*
X182475000Y-127095000D02*
X182145000Y-127095000D01*
X182145000Y-127095000D02*
X182145000Y-120555000D01*
X182145000Y-120555000D02*
X182475000Y-120555000D01*
X184555000Y-127095000D02*
X184885000Y-127095000D01*
X184885000Y-127095000D02*
X184885000Y-120555000D01*
X184885000Y-120555000D02*
X184555000Y-120555000D01*
X178665000Y-127095000D02*
X178335000Y-127095000D01*
X178335000Y-127095000D02*
X178335000Y-120555000D01*
X178335000Y-120555000D02*
X178665000Y-120555000D01*
X180745000Y-127095000D02*
X181075000Y-127095000D01*
X181075000Y-127095000D02*
X181075000Y-120555000D01*
X181075000Y-120555000D02*
X180745000Y-120555000D01*
X115510000Y-117840000D02*
X115510000Y-119090000D01*
X115510000Y-119090000D02*
X146110000Y-119090000D01*
X146110000Y-119090000D02*
X146110000Y-114590000D01*
X146110000Y-114590000D02*
X115510000Y-114590000D01*
X115510000Y-114590000D02*
X115510000Y-115840000D01*
X115450000Y-122090000D02*
X146170000Y-122090000D01*
X146170000Y-122090000D02*
X146170000Y-111590000D01*
X146170000Y-111590000D02*
X115450000Y-111590000D01*
X115450000Y-111590000D02*
X115450000Y-122090000D01*
X115510000Y-115840000D02*
G75*
G02*
X115510000Y-117840000I0J-1000000D01*
G01*
X136890000Y-106740000D02*
X138140000Y-106740000D01*
X138140000Y-106740000D02*
X138140000Y-86300000D01*
X138140000Y-86300000D02*
X133640000Y-86300000D01*
X133640000Y-86300000D02*
X133640000Y-106740000D01*
X133640000Y-106740000D02*
X134890000Y-106740000D01*
X134890000Y-106740000D02*
G75*
G02*
X136890000Y-106740000I1000000J0D01*
G01*
X145200000Y-104290000D02*
X145200000Y-106530000D01*
X145200000Y-106530000D02*
X149440000Y-106530000D01*
X149440000Y-106530000D02*
X149440000Y-104290000D01*
X149440000Y-104290000D02*
X145200000Y-104290000D01*
X144550000Y-105410000D02*
X145200000Y-105410000D01*
X150090000Y-105410000D02*
X149440000Y-105410000D01*
X145920000Y-104290000D02*
X145920000Y-106530000D01*
X146040000Y-104290000D02*
X146040000Y-106530000D01*
X145800000Y-104290000D02*
X145800000Y-106530000D01*
X145200000Y-101750000D02*
X145200000Y-103990000D01*
X145200000Y-103990000D02*
X149440000Y-103990000D01*
X149440000Y-103990000D02*
X149440000Y-101750000D01*
X149440000Y-101750000D02*
X145200000Y-101750000D01*
X144550000Y-102870000D02*
X145200000Y-102870000D01*
X150090000Y-102870000D02*
X149440000Y-102870000D01*
X145920000Y-101750000D02*
X145920000Y-103990000D01*
X146040000Y-101750000D02*
X146040000Y-103990000D01*
X145800000Y-101750000D02*
X145800000Y-103990000D01*
X144050000Y-98020000D02*
X144050000Y-97690000D01*
X144050000Y-97690000D02*
X150590000Y-97690000D01*
X150590000Y-97690000D02*
X150590000Y-98020000D01*
X144050000Y-100100000D02*
X144050000Y-100430000D01*
X144050000Y-100430000D02*
X150590000Y-100430000D01*
X150590000Y-100430000D02*
X150590000Y-100100000D01*
X180395000Y-131550000D02*
X180395000Y-135150000D01*
X180406522Y-135188478D02*
G75*
G03*
X184845000Y-133350000I1838478J1838478D01*
G01*
X180406522Y-131511522D02*
G75*
G02*
X184845000Y-133350000I1838478J-1838478D01*
G01*
X142520000Y-84450000D02*
X142520000Y-88900000D01*
X142520000Y-90300000D02*
X142520000Y-92600000D01*
X142520000Y-94000000D02*
X142520000Y-94720000D01*
X142520000Y-94720000D02*
X145200000Y-94720000D01*
X147500000Y-94720000D02*
X151170000Y-94720000D01*
X153470000Y-94720000D02*
X154700000Y-94720000D01*
X154700000Y-94720000D02*
X154700000Y-84900000D01*
X144000000Y-83080000D02*
X144860000Y-83080000D01*
X87460000Y-124330000D02*
X87460000Y-127130000D01*
X87460000Y-127130000D02*
X110660000Y-127130000D01*
X110660000Y-127130000D02*
X110660000Y-124330000D01*
X110660000Y-124330000D02*
X87460000Y-124330000D01*
X90170000Y-124330000D02*
X90170000Y-127130000D01*
X118975000Y-108150000D02*
X123515000Y-108150000D01*
X118975000Y-110290000D02*
X123515000Y-110290000D01*
X118975000Y-108150000D02*
X118975000Y-108165000D01*
X118975000Y-110275000D02*
X118975000Y-110290000D01*
X123515000Y-108150000D02*
X123515000Y-108165000D01*
X123515000Y-110275000D02*
X123515000Y-110290000D01*
X155375000Y-98735000D02*
X155375000Y-103275000D01*
X153235000Y-98735000D02*
X153235000Y-103275000D01*
X155375000Y-98735000D02*
X155360000Y-98735000D01*
X153250000Y-98735000D02*
X153235000Y-98735000D01*
X155375000Y-103275000D02*
X155360000Y-103275000D01*
X153250000Y-103275000D02*
X153235000Y-103275000D01*
X172450000Y-139760000D02*
X173700000Y-139760000D01*
X173700000Y-139760000D02*
X173700000Y-119320000D01*
X173700000Y-119320000D02*
X169200000Y-119320000D01*
X169200000Y-119320000D02*
X169200000Y-139760000D01*
X169200000Y-139760000D02*
X170450000Y-139760000D01*
X170450000Y-139760000D02*
G75*
G02*
X172450000Y-139760000I1000000J0D01*
G01*
X172410000Y-143310000D02*
X167870000Y-143310000D01*
X172410000Y-141170000D02*
X167870000Y-141170000D01*
X172410000Y-143310000D02*
X172410000Y-143295000D01*
X172410000Y-141185000D02*
X172410000Y-141170000D01*
X167870000Y-143310000D02*
X167870000Y-143295000D01*
X167870000Y-141185000D02*
X167870000Y-141170000D01*
X137390000Y-141170000D02*
X141930000Y-141170000D01*
X137390000Y-143310000D02*
X141930000Y-143310000D01*
X137390000Y-141170000D02*
X137390000Y-141185000D01*
X137390000Y-143295000D02*
X137390000Y-143310000D01*
X141930000Y-141170000D02*
X141930000Y-141185000D01*
X141930000Y-143295000D02*
X141930000Y-143310000D01*
X93670000Y-143310000D02*
X89130000Y-143310000D01*
X93670000Y-141170000D02*
X89130000Y-141170000D01*
X93670000Y-143310000D02*
X93670000Y-143295000D01*
X93670000Y-141185000D02*
X93670000Y-141170000D01*
X89130000Y-143310000D02*
X89130000Y-143295000D01*
X89130000Y-141185000D02*
X89130000Y-141170000D01*
X127310000Y-124660000D02*
X131850000Y-124660000D01*
X127310000Y-126800000D02*
X131850000Y-126800000D01*
X127310000Y-124660000D02*
X127310000Y-124675000D01*
X127310000Y-126785000D02*
X127310000Y-126800000D01*
X131850000Y-124660000D02*
X131850000Y-124675000D01*
X131850000Y-126785000D02*
X131850000Y-126800000D01*
D10*
X164131666Y-83907380D02*
X164131666Y-84621666D01*
X164084047Y-84764523D01*
X163988809Y-84859761D01*
X163845952Y-84907380D01*
X163750714Y-84907380D01*
X165036428Y-84240714D02*
X165036428Y-84907380D01*
X164798333Y-83859761D02*
X164560238Y-84574047D01*
X165179285Y-84574047D01*
X86022380Y-135381904D02*
X86831904Y-135381904D01*
X86927142Y-135334285D01*
X86974761Y-135286666D01*
X87022380Y-135191428D01*
X87022380Y-135000952D01*
X86974761Y-134905714D01*
X86927142Y-134858095D01*
X86831904Y-134810476D01*
X86022380Y-134810476D01*
X87022380Y-133810476D02*
X87022380Y-134381904D01*
X87022380Y-134096190D02*
X86022380Y-134096190D01*
X86165238Y-134191428D01*
X86260476Y-134286666D01*
X86308095Y-134381904D01*
X141902380Y-135381904D02*
X142711904Y-135381904D01*
X142807142Y-135334285D01*
X142854761Y-135286666D01*
X142902380Y-135191428D01*
X142902380Y-135000952D01*
X142854761Y-134905714D01*
X142807142Y-134858095D01*
X142711904Y-134810476D01*
X141902380Y-134810476D01*
X142235714Y-133905714D02*
X142902380Y-133905714D01*
X141854761Y-134143809D02*
X142569047Y-134381904D01*
X142569047Y-133762857D01*
X113962380Y-135381904D02*
X114771904Y-135381904D01*
X114867142Y-135334285D01*
X114914761Y-135286666D01*
X114962380Y-135191428D01*
X114962380Y-135000952D01*
X114914761Y-134905714D01*
X114867142Y-134858095D01*
X114771904Y-134810476D01*
X113962380Y-134810476D01*
X114057619Y-134381904D02*
X114010000Y-134334285D01*
X113962380Y-134239047D01*
X113962380Y-134000952D01*
X114010000Y-133905714D01*
X114057619Y-133858095D01*
X114152857Y-133810476D01*
X114248095Y-133810476D01*
X114390952Y-133858095D01*
X114962380Y-134429523D01*
X114962380Y-133810476D01*
X155027380Y-116538333D02*
X155741666Y-116538333D01*
X155884523Y-116585952D01*
X155979761Y-116681190D01*
X156027380Y-116824047D01*
X156027380Y-116919285D01*
X155122619Y-116109761D02*
X155075000Y-116062142D01*
X155027380Y-115966904D01*
X155027380Y-115728809D01*
X155075000Y-115633571D01*
X155122619Y-115585952D01*
X155217857Y-115538333D01*
X155313095Y-115538333D01*
X155455952Y-115585952D01*
X156027380Y-116157380D01*
X156027380Y-115538333D01*
X88034761Y-118173333D02*
X88082380Y-118030476D01*
X88082380Y-117792380D01*
X88034761Y-117697142D01*
X87987142Y-117649523D01*
X87891904Y-117601904D01*
X87796666Y-117601904D01*
X87701428Y-117649523D01*
X87653809Y-117697142D01*
X87606190Y-117792380D01*
X87558571Y-117982857D01*
X87510952Y-118078095D01*
X87463333Y-118125714D01*
X87368095Y-118173333D01*
X87272857Y-118173333D01*
X87177619Y-118125714D01*
X87130000Y-118078095D01*
X87082380Y-117982857D01*
X87082380Y-117744761D01*
X87130000Y-117601904D01*
X87082380Y-117268571D02*
X88082380Y-117030476D01*
X87368095Y-116840000D01*
X88082380Y-116649523D01*
X87082380Y-116411428D01*
X88082380Y-115506666D02*
X88082380Y-116078095D01*
X88082380Y-115792380D02*
X87082380Y-115792380D01*
X87225238Y-115887619D01*
X87320476Y-115982857D01*
X87368095Y-116078095D01*
X128782380Y-96011904D02*
X129591904Y-96011904D01*
X129687142Y-95964285D01*
X129734761Y-95916666D01*
X129782380Y-95821428D01*
X129782380Y-95630952D01*
X129734761Y-95535714D01*
X129687142Y-95488095D01*
X129591904Y-95440476D01*
X128782380Y-95440476D01*
X128782380Y-95059523D02*
X128782380Y-94440476D01*
X129163333Y-94773809D01*
X129163333Y-94630952D01*
X129210952Y-94535714D01*
X129258571Y-94488095D01*
X129353809Y-94440476D01*
X129591904Y-94440476D01*
X129687142Y-94488095D01*
X129734761Y-94535714D01*
X129782380Y-94630952D01*
X129782380Y-94916666D01*
X129734761Y-95011904D01*
X129687142Y-95059523D01*
X185872380Y-129071666D02*
X185396190Y-129405000D01*
X185872380Y-129643095D02*
X184872380Y-129643095D01*
X184872380Y-129262142D01*
X184920000Y-129166904D01*
X184967619Y-129119285D01*
X185062857Y-129071666D01*
X185205714Y-129071666D01*
X185300952Y-129119285D01*
X185348571Y-129166904D01*
X185396190Y-129262142D01*
X185396190Y-129643095D01*
X184872380Y-128738333D02*
X184872380Y-128119285D01*
X185253333Y-128452619D01*
X185253333Y-128309761D01*
X185300952Y-128214523D01*
X185348571Y-128166904D01*
X185443809Y-128119285D01*
X185681904Y-128119285D01*
X185777142Y-128166904D01*
X185824761Y-128214523D01*
X185872380Y-128309761D01*
X185872380Y-128595476D01*
X185824761Y-128690714D01*
X185777142Y-128738333D01*
X181427380Y-129071666D02*
X180951190Y-129405000D01*
X181427380Y-129643095D02*
X180427380Y-129643095D01*
X180427380Y-129262142D01*
X180475000Y-129166904D01*
X180522619Y-129119285D01*
X180617857Y-129071666D01*
X180760714Y-129071666D01*
X180855952Y-129119285D01*
X180903571Y-129166904D01*
X180951190Y-129262142D01*
X180951190Y-129643095D01*
X180522619Y-128690714D02*
X180475000Y-128643095D01*
X180427380Y-128547857D01*
X180427380Y-128309761D01*
X180475000Y-128214523D01*
X180522619Y-128166904D01*
X180617857Y-128119285D01*
X180713095Y-128119285D01*
X180855952Y-128166904D01*
X181427380Y-128738333D01*
X181427380Y-128119285D01*
X113962380Y-117601904D02*
X114771904Y-117601904D01*
X114867142Y-117554285D01*
X114914761Y-117506666D01*
X114962380Y-117411428D01*
X114962380Y-117220952D01*
X114914761Y-117125714D01*
X114867142Y-117078095D01*
X114771904Y-117030476D01*
X113962380Y-117030476D01*
X113962380Y-116125714D02*
X113962380Y-116316190D01*
X114010000Y-116411428D01*
X114057619Y-116459047D01*
X114200476Y-116554285D01*
X114390952Y-116601904D01*
X114771904Y-116601904D01*
X114867142Y-116554285D01*
X114914761Y-116506666D01*
X114962380Y-116411428D01*
X114962380Y-116220952D01*
X114914761Y-116125714D01*
X114867142Y-116078095D01*
X114771904Y-116030476D01*
X114533809Y-116030476D01*
X114438571Y-116078095D01*
X114390952Y-116125714D01*
X114343333Y-116220952D01*
X114343333Y-116411428D01*
X114390952Y-116506666D01*
X114438571Y-116554285D01*
X114533809Y-116601904D01*
X135128095Y-107192380D02*
X135128095Y-108001904D01*
X135175714Y-108097142D01*
X135223333Y-108144761D01*
X135318571Y-108192380D01*
X135509047Y-108192380D01*
X135604285Y-108144761D01*
X135651904Y-108097142D01*
X135699523Y-108001904D01*
X135699523Y-107192380D01*
X136651904Y-107192380D02*
X136175714Y-107192380D01*
X136128095Y-107668571D01*
X136175714Y-107620952D01*
X136270952Y-107573333D01*
X136509047Y-107573333D01*
X136604285Y-107620952D01*
X136651904Y-107668571D01*
X136699523Y-107763809D01*
X136699523Y-108001904D01*
X136651904Y-108097142D01*
X136604285Y-108144761D01*
X136509047Y-108192380D01*
X136270952Y-108192380D01*
X136175714Y-108144761D01*
X136128095Y-108097142D01*
X142136904Y-107767380D02*
X142136904Y-106767380D01*
X142375000Y-106767380D01*
X142517857Y-106815000D01*
X142613095Y-106910238D01*
X142660714Y-107005476D01*
X142708333Y-107195952D01*
X142708333Y-107338809D01*
X142660714Y-107529285D01*
X142613095Y-107624523D01*
X142517857Y-107719761D01*
X142375000Y-107767380D01*
X142136904Y-107767380D01*
X143089285Y-106862619D02*
X143136904Y-106815000D01*
X143232142Y-106767380D01*
X143470238Y-106767380D01*
X143565476Y-106815000D01*
X143613095Y-106862619D01*
X143660714Y-106957857D01*
X143660714Y-107053095D01*
X143613095Y-107195952D01*
X143041666Y-107767380D01*
X143660714Y-107767380D01*
X142136904Y-101417380D02*
X142136904Y-100417380D01*
X142375000Y-100417380D01*
X142517857Y-100465000D01*
X142613095Y-100560238D01*
X142660714Y-100655476D01*
X142708333Y-100845952D01*
X142708333Y-100988809D01*
X142660714Y-101179285D01*
X142613095Y-101274523D01*
X142517857Y-101369761D01*
X142375000Y-101417380D01*
X142136904Y-101417380D01*
X143660714Y-101417380D02*
X143089285Y-101417380D01*
X143375000Y-101417380D02*
X143375000Y-100417380D01*
X143279761Y-100560238D01*
X143184523Y-100655476D01*
X143089285Y-100703095D01*
X147153333Y-97142380D02*
X146820000Y-96666190D01*
X146581904Y-97142380D02*
X146581904Y-96142380D01*
X146962857Y-96142380D01*
X147058095Y-96190000D01*
X147105714Y-96237619D01*
X147153333Y-96332857D01*
X147153333Y-96475714D01*
X147105714Y-96570952D01*
X147058095Y-96618571D01*
X146962857Y-96666190D01*
X146581904Y-96666190D01*
X148105714Y-97142380D02*
X147534285Y-97142380D01*
X147820000Y-97142380D02*
X147820000Y-96142380D01*
X147724761Y-96285238D01*
X147629523Y-96380476D01*
X147534285Y-96428095D01*
X178522380Y-134111904D02*
X179331904Y-134111904D01*
X179427142Y-134064285D01*
X179474761Y-134016666D01*
X179522380Y-133921428D01*
X179522380Y-133730952D01*
X179474761Y-133635714D01*
X179427142Y-133588095D01*
X179331904Y-133540476D01*
X178522380Y-133540476D01*
X178950952Y-132921428D02*
X178903333Y-133016666D01*
X178855714Y-133064285D01*
X178760476Y-133111904D01*
X178712857Y-133111904D01*
X178617619Y-133064285D01*
X178570000Y-133016666D01*
X178522380Y-132921428D01*
X178522380Y-132730952D01*
X178570000Y-132635714D01*
X178617619Y-132588095D01*
X178712857Y-132540476D01*
X178760476Y-132540476D01*
X178855714Y-132588095D01*
X178903333Y-132635714D01*
X178950952Y-132730952D01*
X178950952Y-132921428D01*
X178998571Y-133016666D01*
X179046190Y-133064285D01*
X179141428Y-133111904D01*
X179331904Y-133111904D01*
X179427142Y-133064285D01*
X179474761Y-133016666D01*
X179522380Y-132921428D01*
X179522380Y-132730952D01*
X179474761Y-132635714D01*
X179427142Y-132588095D01*
X179331904Y-132540476D01*
X179141428Y-132540476D01*
X179046190Y-132588095D01*
X178998571Y-132635714D01*
X178950952Y-132730952D01*
X140636666Y-83907380D02*
X140636666Y-84621666D01*
X140589047Y-84764523D01*
X140493809Y-84859761D01*
X140350952Y-84907380D01*
X140255714Y-84907380D01*
X141017619Y-83907380D02*
X141636666Y-83907380D01*
X141303333Y-84288333D01*
X141446190Y-84288333D01*
X141541428Y-84335952D01*
X141589047Y-84383571D01*
X141636666Y-84478809D01*
X141636666Y-84716904D01*
X141589047Y-84812142D01*
X141541428Y-84859761D01*
X141446190Y-84907380D01*
X141160476Y-84907380D01*
X141065238Y-84859761D01*
X141017619Y-84812142D01*
X99639523Y-123782380D02*
X99306190Y-123306190D01*
X99068095Y-123782380D02*
X99068095Y-122782380D01*
X99449047Y-122782380D01*
X99544285Y-122830000D01*
X99591904Y-122877619D01*
X99639523Y-122972857D01*
X99639523Y-123115714D01*
X99591904Y-123210952D01*
X99544285Y-123258571D01*
X99449047Y-123306190D01*
X99068095Y-123306190D01*
X100068095Y-123782380D02*
X100068095Y-122782380D01*
X100639523Y-123782380D01*
X100639523Y-122782380D01*
X101639523Y-123782380D02*
X101068095Y-123782380D01*
X101353809Y-123782380D02*
X101353809Y-122782380D01*
X101258571Y-122925238D01*
X101163333Y-123020476D01*
X101068095Y-123068095D01*
X121078333Y-107672142D02*
X121030714Y-107719761D01*
X120887857Y-107767380D01*
X120792619Y-107767380D01*
X120649761Y-107719761D01*
X120554523Y-107624523D01*
X120506904Y-107529285D01*
X120459285Y-107338809D01*
X120459285Y-107195952D01*
X120506904Y-107005476D01*
X120554523Y-106910238D01*
X120649761Y-106815000D01*
X120792619Y-106767380D01*
X120887857Y-106767380D01*
X121030714Y-106815000D01*
X121078333Y-106862619D01*
X122030714Y-107767380D02*
X121459285Y-107767380D01*
X121745000Y-107767380D02*
X121745000Y-106767380D01*
X121649761Y-106910238D01*
X121554523Y-107005476D01*
X121459285Y-107053095D01*
X156862142Y-101171666D02*
X156909761Y-101219285D01*
X156957380Y-101362142D01*
X156957380Y-101457380D01*
X156909761Y-101600238D01*
X156814523Y-101695476D01*
X156719285Y-101743095D01*
X156528809Y-101790714D01*
X156385952Y-101790714D01*
X156195476Y-101743095D01*
X156100238Y-101695476D01*
X156005000Y-101600238D01*
X155957380Y-101457380D01*
X155957380Y-101362142D01*
X156005000Y-101219285D01*
X156052619Y-101171666D01*
X155957380Y-100838333D02*
X155957380Y-100171666D01*
X156957380Y-100600238D01*
X170688095Y-139787380D02*
X170688095Y-140596904D01*
X170735714Y-140692142D01*
X170783333Y-140739761D01*
X170878571Y-140787380D01*
X171069047Y-140787380D01*
X171164285Y-140739761D01*
X171211904Y-140692142D01*
X171259523Y-140596904D01*
X171259523Y-139787380D01*
X171640476Y-139787380D02*
X172307142Y-139787380D01*
X171878571Y-140787380D01*
X169973333Y-144797142D02*
X169925714Y-144844761D01*
X169782857Y-144892380D01*
X169687619Y-144892380D01*
X169544761Y-144844761D01*
X169449523Y-144749523D01*
X169401904Y-144654285D01*
X169354285Y-144463809D01*
X169354285Y-144320952D01*
X169401904Y-144130476D01*
X169449523Y-144035238D01*
X169544761Y-143940000D01*
X169687619Y-143892380D01*
X169782857Y-143892380D01*
X169925714Y-143940000D01*
X169973333Y-143987619D01*
X170830476Y-143892380D02*
X170640000Y-143892380D01*
X170544761Y-143940000D01*
X170497142Y-143987619D01*
X170401904Y-144130476D01*
X170354285Y-144320952D01*
X170354285Y-144701904D01*
X170401904Y-144797142D01*
X170449523Y-144844761D01*
X170544761Y-144892380D01*
X170735238Y-144892380D01*
X170830476Y-144844761D01*
X170878095Y-144797142D01*
X170925714Y-144701904D01*
X170925714Y-144463809D01*
X170878095Y-144368571D01*
X170830476Y-144320952D01*
X170735238Y-144273333D01*
X170544761Y-144273333D01*
X170449523Y-144320952D01*
X170401904Y-144368571D01*
X170354285Y-144463809D01*
X139533333Y-144502142D02*
X139485714Y-144549761D01*
X139342857Y-144597380D01*
X139247619Y-144597380D01*
X139104761Y-144549761D01*
X139009523Y-144454523D01*
X138961904Y-144359285D01*
X138914285Y-144168809D01*
X138914285Y-144025952D01*
X138961904Y-143835476D01*
X139009523Y-143740238D01*
X139104761Y-143645000D01*
X139247619Y-143597380D01*
X139342857Y-143597380D01*
X139485714Y-143645000D01*
X139533333Y-143692619D01*
X140390476Y-143930714D02*
X140390476Y-144597380D01*
X140152380Y-143549761D02*
X139914285Y-144264047D01*
X140533333Y-144264047D01*
X91233333Y-144797142D02*
X91185714Y-144844761D01*
X91042857Y-144892380D01*
X90947619Y-144892380D01*
X90804761Y-144844761D01*
X90709523Y-144749523D01*
X90661904Y-144654285D01*
X90614285Y-144463809D01*
X90614285Y-144320952D01*
X90661904Y-144130476D01*
X90709523Y-144035238D01*
X90804761Y-143940000D01*
X90947619Y-143892380D01*
X91042857Y-143892380D01*
X91185714Y-143940000D01*
X91233333Y-143987619D01*
X91566666Y-143892380D02*
X92185714Y-143892380D01*
X91852380Y-144273333D01*
X91995238Y-144273333D01*
X92090476Y-144320952D01*
X92138095Y-144368571D01*
X92185714Y-144463809D01*
X92185714Y-144701904D01*
X92138095Y-144797142D01*
X92090476Y-144844761D01*
X91995238Y-144892380D01*
X91709523Y-144892380D01*
X91614285Y-144844761D01*
X91566666Y-144797142D01*
X129413333Y-123887142D02*
X129365714Y-123934761D01*
X129222857Y-123982380D01*
X129127619Y-123982380D01*
X128984761Y-123934761D01*
X128889523Y-123839523D01*
X128841904Y-123744285D01*
X128794285Y-123553809D01*
X128794285Y-123410952D01*
X128841904Y-123220476D01*
X128889523Y-123125238D01*
X128984761Y-123030000D01*
X129127619Y-122982380D01*
X129222857Y-122982380D01*
X129365714Y-123030000D01*
X129413333Y-123077619D01*
X129794285Y-123077619D02*
X129841904Y-123030000D01*
X129937142Y-122982380D01*
X130175238Y-122982380D01*
X130270476Y-123030000D01*
X130318095Y-123077619D01*
X130365714Y-123172857D01*
X130365714Y-123268095D01*
X130318095Y-123410952D01*
X129746666Y-123982380D01*
X130365714Y-123982380D01*
%LPC*%
D11*
X83947000Y-153670000D02*
X83947000Y-146050000D01*
D13*
G36*
X83947000Y-146050000D02*
G01*
X164973000Y-146050000D01*
X164973000Y-153670000D01*
X83947000Y-153670000D01*
X83947000Y-146050000D01*
G37*
X83947000Y-146050000D02*
X164973000Y-146050000D01*
X164973000Y-153670000D01*
X83947000Y-153670000D01*
X83947000Y-146050000D01*
D14*
X161290000Y-86360000D03*
D15*
X158750000Y-86360000D03*
D16*
X137160000Y-149733000D03*
X139700000Y-149733000D03*
X142240000Y-149733000D03*
X144780000Y-149733000D03*
X147320000Y-149733000D03*
X149860000Y-149733000D03*
X152400000Y-149733000D03*
X154940000Y-149733000D03*
X157480000Y-149733000D03*
X160020000Y-149733000D03*
X162560000Y-149733000D03*
X86360000Y-149733000D03*
X88900000Y-149733000D03*
X91440000Y-149733000D03*
X93980000Y-149733000D03*
X96520000Y-149733000D03*
X99060000Y-149733000D03*
X101600000Y-149733000D03*
X104140000Y-149733000D03*
X106680000Y-149733000D03*
X109220000Y-149733000D03*
X111760000Y-149733000D03*
X114300000Y-149733000D03*
X116840000Y-149733000D03*
X119380000Y-149733000D03*
X121920000Y-149733000D03*
X124460000Y-149733000D03*
X127000000Y-149733000D03*
X129540000Y-149733000D03*
X132080000Y-149733000D03*
X134620000Y-149733000D03*
D17*
X88900000Y-130810000D03*
X111760000Y-138430000D03*
X91440000Y-130810000D03*
X109220000Y-138430000D03*
X93980000Y-130810000D03*
X106680000Y-138430000D03*
X96520000Y-130810000D03*
X104140000Y-138430000D03*
X99060000Y-130810000D03*
X101600000Y-138430000D03*
X101600000Y-130810000D03*
X99060000Y-138430000D03*
X104140000Y-130810000D03*
X96520000Y-138430000D03*
X106680000Y-130810000D03*
X93980000Y-138430000D03*
X109220000Y-130810000D03*
X91440000Y-138430000D03*
X111760000Y-130810000D03*
D18*
X88900000Y-138430000D03*
D19*
X182956200Y-85273000D03*
X182956200Y-141788000D03*
D17*
X144780000Y-130810000D03*
X162560000Y-138430000D03*
X147320000Y-130810000D03*
X160020000Y-138430000D03*
X149860000Y-130810000D03*
X157480000Y-138430000D03*
X152400000Y-130810000D03*
X154940000Y-138430000D03*
X154940000Y-130810000D03*
X152400000Y-138430000D03*
X157480000Y-130810000D03*
X149860000Y-138430000D03*
X160020000Y-130810000D03*
X147320000Y-138430000D03*
X162560000Y-130810000D03*
D18*
X144780000Y-138430000D03*
D17*
X116840000Y-130810000D03*
X139700000Y-138430000D03*
X119380000Y-130810000D03*
X137160000Y-138430000D03*
X121920000Y-130810000D03*
X134620000Y-138430000D03*
X124460000Y-130810000D03*
X132080000Y-138430000D03*
X127000000Y-130810000D03*
X129540000Y-138430000D03*
X129540000Y-130810000D03*
X127000000Y-138430000D03*
X132080000Y-130810000D03*
X124460000Y-138430000D03*
X134620000Y-130810000D03*
X121920000Y-138430000D03*
X137160000Y-130810000D03*
X119380000Y-138430000D03*
X139700000Y-130810000D03*
D18*
X116840000Y-138430000D03*
D20*
X172995000Y-96875000D03*
X172995000Y-99375000D03*
X172995000Y-101875000D03*
X172995000Y-104375000D03*
X172995000Y-106875000D03*
X172995000Y-109375000D03*
X172995000Y-110875000D03*
X172995000Y-112375000D03*
X172995000Y-94375000D03*
D21*
X181300000Y-115650000D03*
X181300000Y-91850000D03*
D22*
X177160000Y-115370000D03*
X177160000Y-116570000D03*
D23*
X176620000Y-89445000D03*
D24*
X158885000Y-89445000D03*
D25*
X157625000Y-117220000D03*
D26*
X165790000Y-117220000D03*
D27*
X157735000Y-111350000D03*
D28*
X109220000Y-120650000D03*
X91440000Y-113030000D03*
X106680000Y-120650000D03*
X93980000Y-113030000D03*
X104140000Y-120650000D03*
X96520000Y-113030000D03*
X101600000Y-120650000D03*
X99060000Y-113030000D03*
X99060000Y-120650000D03*
X101600000Y-113030000D03*
X96520000Y-120650000D03*
X104140000Y-113030000D03*
X93980000Y-120650000D03*
X106680000Y-113030000D03*
X91440000Y-120650000D03*
D29*
X109220000Y-113030000D03*
D17*
X127000000Y-102870000D03*
X88900000Y-87630000D03*
X124460000Y-102870000D03*
X91440000Y-87630000D03*
X121920000Y-102870000D03*
X93980000Y-87630000D03*
X119380000Y-102870000D03*
X96520000Y-87630000D03*
X116840000Y-102870000D03*
X99060000Y-87630000D03*
X114300000Y-102870000D03*
X101600000Y-87630000D03*
X111760000Y-102870000D03*
X104140000Y-87630000D03*
X109220000Y-102870000D03*
X106680000Y-87630000D03*
X106680000Y-102870000D03*
X109220000Y-87630000D03*
X104140000Y-102870000D03*
X111760000Y-87630000D03*
X101600000Y-102870000D03*
X114300000Y-87630000D03*
X99060000Y-102870000D03*
X116840000Y-87630000D03*
X96520000Y-102870000D03*
X119380000Y-87630000D03*
X93980000Y-102870000D03*
X121920000Y-87630000D03*
X91440000Y-102870000D03*
X124460000Y-87630000D03*
X88900000Y-102870000D03*
D18*
X127000000Y-87630000D03*
D28*
X183515000Y-120015000D03*
D30*
X183515000Y-127635000D03*
D28*
X179705000Y-120015000D03*
D30*
X179705000Y-127635000D03*
D17*
X116840000Y-113030000D03*
X144780000Y-120650000D03*
X119380000Y-113030000D03*
X142240000Y-120650000D03*
X121920000Y-113030000D03*
X139700000Y-120650000D03*
X124460000Y-113030000D03*
X137160000Y-120650000D03*
X127000000Y-113030000D03*
X134620000Y-120650000D03*
X129540000Y-113030000D03*
X132080000Y-120650000D03*
X132080000Y-113030000D03*
X129540000Y-120650000D03*
X134620000Y-113030000D03*
X127000000Y-120650000D03*
X137160000Y-113030000D03*
X124460000Y-120650000D03*
X139700000Y-113030000D03*
X121920000Y-120650000D03*
X142240000Y-113030000D03*
X119380000Y-120650000D03*
X144780000Y-113030000D03*
D18*
X116840000Y-120650000D03*
D31*
X132080000Y-105410000D03*
X139700000Y-87630000D03*
X132080000Y-102870000D03*
X139700000Y-90170000D03*
X132080000Y-100330000D03*
X139700000Y-92710000D03*
X132080000Y-97790000D03*
X139700000Y-95250000D03*
X132080000Y-95250000D03*
X139700000Y-97790000D03*
X132080000Y-92710000D03*
X139700000Y-100330000D03*
X132080000Y-90170000D03*
X139700000Y-102870000D03*
X132080000Y-87630000D03*
D32*
X139700000Y-105410000D03*
D28*
X151130000Y-105410000D03*
D29*
X143510000Y-105410000D03*
D28*
X151130000Y-102870000D03*
D29*
X143510000Y-102870000D03*
D28*
X151130000Y-99060000D03*
D30*
X143510000Y-99060000D03*
D33*
X182245000Y-132080000D03*
D34*
X182245000Y-134620000D03*
X182245000Y-133350000D03*
D35*
X145485000Y-83450000D03*
D36*
X153135000Y-83450000D03*
D35*
X146585000Y-83450000D03*
X147685000Y-83450000D03*
X148785000Y-83450000D03*
X149885000Y-83450000D03*
X150985000Y-83450000D03*
X152085000Y-83450000D03*
D37*
X154345000Y-83800000D03*
D38*
X143025000Y-83575000D03*
D39*
X142850000Y-93300000D03*
X142850000Y-89600000D03*
D40*
X146350000Y-94275000D03*
X152320000Y-94275000D03*
D28*
X109220000Y-125730000D03*
X106680000Y-125730000D03*
X104140000Y-125730000D03*
X101600000Y-125730000D03*
X99060000Y-125730000D03*
X96520000Y-125730000D03*
X93980000Y-125730000D03*
X91440000Y-125730000D03*
D29*
X88900000Y-125730000D03*
D30*
X123745000Y-109220000D03*
X118745000Y-109220000D03*
X154305000Y-103505000D03*
X154305000Y-98505000D03*
D31*
X167640000Y-138430000D03*
X175260000Y-120650000D03*
X167640000Y-135890000D03*
X175260000Y-123190000D03*
X167640000Y-133350000D03*
X175260000Y-125730000D03*
X167640000Y-130810000D03*
X175260000Y-128270000D03*
X167640000Y-128270000D03*
X175260000Y-130810000D03*
X167640000Y-125730000D03*
X175260000Y-133350000D03*
X167640000Y-123190000D03*
X175260000Y-135890000D03*
X167640000Y-120650000D03*
D32*
X175260000Y-138430000D03*
D30*
X167640000Y-142240000D03*
X172640000Y-142240000D03*
X142160000Y-142240000D03*
X137160000Y-142240000D03*
X88900000Y-142240000D03*
X93900000Y-142240000D03*
X132080000Y-125730000D03*
X127080000Y-125730000D03*
M02*
